<ttFont>
    <TTGlyph name=".notdef" xMin="96" yMin="-220" xMax="507" yMax="1030">
      <contour>
        <pt x="96" y="1030" on="1"/>
        <pt x="507" y="1030" on="1"/>
        <pt x="507" y="-220" on="1"/>
        <pt x="96" y="-220" on="1"/>
      </contour>
      <contour>
        <pt x="469" y="-182" on="1"/>
        <pt x="469" y="993" on="1"/>
        <pt x="134" y="993" on="1"/>
        <pt x="134" y="-182" on="1"/>
      </contour>
    </TTGlyph>
    <TTGlyph name="A" xMin="10" yMin="0" xMax="509" yMax="740">
      <contour>
        <pt x="10" y="6" on="1"/>
        <pt x="239" y="740" on="1"/>
        <pt x="280" y="740" on="1"/>
        <pt x="509" y="6" on="1"/>
        <pt x="509" y="0" on="1"/>
        <pt x="476" y="0" on="1"/>
        <pt x="398" y="249" on="1"/>
        <pt x="121" y="249" on="1"/>
        <pt x="43" y="0" on="1"/>
        <pt x="10" y="0" on="1"/>
      </contour>
      <contour>
        <pt x="387" y="283" on="1"/>
        <pt x="293" y="586" on="1"/>
        <pt x="260" y="698" on="1"/>
        <pt x="258" y="698" on="1"/>
        <pt x="226" y="586" on="1"/>
        <pt x="131" y="283" on="1"/>
      </contour>
    </TTGlyph>
    <TTGlyph name="A.sc" xMin="15" yMin="0" xMax="450" yMax="577">
      <contour>
        <pt x="15" y="5" on="1"/>
        <pt x="211" y="577" on="1"/>
        <pt x="255" y="577" on="1"/>
        <pt x="450" y="5" on="1"/>
        <pt x="450" y="0" on="1"/>
        <pt x="417" y="0" on="1"/>
        <pt x="351" y="190" on="1"/>
        <pt x="114" y="190" on="1"/>
        <pt x="48" y="0" on="1"/>
        <pt x="15" y="0" on="1"/>
      </contour>
      <contour>
        <pt x="341" y="222" on="1"/>
        <pt x="262" y="453" on="1"/>
        <pt x="234" y="540" on="1"/>
        <pt x="230" y="540" on="1"/>
        <pt x="204" y="453" on="1"/>
        <pt x="123" y="222" on="1"/>
      </contour>
    </TTGlyph>
    <TTGlyph name="AE" xMin="8" yMin="0" xMax="682" yMax="740">
      <contour>
        <pt x="8" y="6" on="1"/>
        <pt x="257" y="740" on="1"/>
        <pt x="673" y="740" on="1"/>
        <pt x="673" y="706" on="1"/>
        <pt x="369" y="706" on="1"/>
        <pt x="383" y="393" on="1"/>
        <pt x="640" y="393" on="1"/>
        <pt x="640" y="359" on="1"/>
        <pt x="384" y="359" on="1"/>
        <pt x="399" y="34" on="1"/>
        <pt x="682" y="34" on="1"/>
        <pt x="682" y="0" on="1"/>
        <pt x="365" y="0" on="1"/>
        <pt x="355" y="249" on="1"/>
        <pt x="126" y="249" on="1"/>
        <pt x="41" y="0" on="1"/>
        <pt x="8" y="0" on="1"/>
      </contour>
      <contour>
        <pt x="137" y="283" on="1"/>
        <pt x="353" y="283" on="1"/>
        <pt x="336" y="705" on="1"/>
        <pt x="281" y="705" on="1"/>
      </contour>
    </TTGlyph>
    <TTGlyph name="AE.sc" xMin="18" yMin="0" xMax="600" yMax="577">
      <contour>
        <pt x="18" y="5" on="1"/>
        <pt x="231" y="577" on="1"/>
        <pt x="593" y="577" on="1"/>
        <pt x="593" y="545" on="1"/>
        <pt x="334" y="545" on="1"/>
        <pt x="346" y="309" on="1"/>
        <pt x="565" y="309" on="1"/>
        <pt x="565" y="277" on="1"/>
        <pt x="347" y="277" on="1"/>
        <pt x="360" y="33" on="1"/>
        <pt x="600" y="33" on="1"/>
        <pt x="600" y="0" on="1"/>
        <pt x="326" y="0" on="1"/>
        <pt x="318" y="190" on="1"/>
        <pt x="123" y="190" on="1"/>
        <pt x="52" y="0" on="1"/>
        <pt x="18" y="0" on="1"/>
      </contour>
      <contour>
        <pt x="135" y="222" on="1"/>
        <pt x="316" y="222" on="1"/>
        <pt x="302" y="545" on="1"/>
        <pt x="256" y="545" on="1"/>
      </contour>
    </TTGlyph>
    <TTGlyph name="AEacute" xMin="8" yMin="0" xMax="682" yMax="910">
      <contour>
        <pt x="8" y="6" on="1"/>
        <pt x="257" y="740" on="1"/>
        <pt x="673" y="740" on="1"/>
        <pt x="673" y="706" on="1"/>
        <pt x="369" y="706" on="1"/>
        <pt x="383" y="393" on="1"/>
        <pt x="640" y="393" on="1"/>
        <pt x="640" y="359" on="1"/>
        <pt x="384" y="359" on="1"/>
        <pt x="399" y="34" on="1"/>
        <pt x="682" y="34" on="1"/>
        <pt x="682" y="0" on="1"/>
        <pt x="365" y="0" on="1"/>
        <pt x="355" y="249" on="1"/>
        <pt x="126" y="249" on="1"/>
        <pt x="41" y="0" on="1"/>
        <pt x="8" y="0" on="1"/>
      </contour>
      <contour>
        <pt x="137" y="283" on="1"/>
        <pt x="353" y="283" on="1"/>
        <pt x="336" y="705" on="1"/>
        <pt x="281" y="705" on="1"/>
      </contour>
      <contour>
        <pt x="420" y="787" on="1"/>
        <pt x="499" y="910" on="1"/>
        <pt x="537" y="910" on="1"/>
        <pt x="452" y="784" on="1"/>
      </contour>
    </TTGlyph>
    <TTGlyph name="AEacute.sc" xMin="18" yMin="0" xMax="600" yMax="714">
      <contour>
        <pt x="18" y="5" on="1"/>
        <pt x="231" y="577" on="1"/>
        <pt x="593" y="577" on="1"/>
        <pt x="593" y="545" on="1"/>
        <pt x="334" y="545" on="1"/>
        <pt x="346" y="309" on="1"/>
        <pt x="565" y="309" on="1"/>
        <pt x="565" y="277" on="1"/>
        <pt x="347" y="277" on="1"/>
        <pt x="360" y="33" on="1"/>
        <pt x="600" y="33" on="1"/>
        <pt x="600" y="0" on="1"/>
        <pt x="326" y="0" on="1"/>
        <pt x="318" y="190" on="1"/>
        <pt x="123" y="190" on="1"/>
        <pt x="52" y="0" on="1"/>
        <pt x="18" y="0" on="1"/>
      </contour>
      <contour>
        <pt x="316" y="222" on="1"/>
        <pt x="302" y="545" on="1"/>
        <pt x="256" y="545" on="1"/>
        <pt x="135" y="222" on="1"/>
      </contour>
      <contour>
        <pt x="371" y="615" on="1"/>
        <pt x="438" y="714" on="1"/>
        <pt x="476" y="714" on="1"/>
        <pt x="402" y="613" on="1"/>
      </contour>
    </TTGlyph>
    <TTGlyph name="Aacute" xMin="10" yMin="0" xMax="509" yMax="910">
      <contour>
        <pt x="10" y="6" on="1"/>
        <pt x="239" y="740" on="1"/>
        <pt x="280" y="740" on="1"/>
        <pt x="509" y="6" on="1"/>
        <pt x="509" y="0" on="1"/>
        <pt x="476" y="0" on="1"/>
        <pt x="398" y="249" on="1"/>
        <pt x="121" y="249" on="1"/>
        <pt x="43" y="0" on="1"/>
        <pt x="10" y="0" on="1"/>
      </contour>
      <contour>
        <pt x="387" y="283" on="1"/>
        <pt x="293" y="586" on="1"/>
        <pt x="260" y="698" on="1"/>
        <pt x="258" y="698" on="1"/>
        <pt x="226" y="586" on="1"/>
        <pt x="131" y="283" on="1"/>
      </contour>
      <contour>
        <pt x="240" y="787" on="1"/>
        <pt x="319" y="910" on="1"/>
        <pt x="357" y="910" on="1"/>
        <pt x="272" y="784" on="1"/>
      </contour>
    </TTGlyph>
    <TTGlyph name="Aacute.sc" xMin="15" yMin="0" xMax="450" yMax="714">
      <contour>
        <pt x="15" y="5" on="1"/>
        <pt x="211" y="577" on="1"/>
        <pt x="255" y="577" on="1"/>
        <pt x="450" y="5" on="1"/>
        <pt x="450" y="0" on="1"/>
        <pt x="417" y="0" on="1"/>
        <pt x="351" y="190" on="1"/>
        <pt x="114" y="190" on="1"/>
        <pt x="48" y="0" on="1"/>
        <pt x="15" y="0" on="1"/>
      </contour>
      <contour>
        <pt x="341" y="222" on="1"/>
        <pt x="262" y="453" on="1"/>
        <pt x="234" y="540" on="1"/>
        <pt x="230" y="540" on="1"/>
        <pt x="204" y="453" on="1"/>
        <pt x="123" y="222" on="1"/>
      </contour>
      <contour>
        <pt x="214" y="615" on="1"/>
        <pt x="281" y="714" on="1"/>
        <pt x="318" y="714" on="1"/>
        <pt x="245" y="613" on="1"/>
      </contour>
    </TTGlyph>
    <TTGlyph name="Abreve" xMin="10" yMin="0" xMax="509" yMax="948">
      <contour>
        <pt x="10" y="6" on="1"/>
        <pt x="239" y="740" on="1"/>
        <pt x="280" y="740" on="1"/>
        <pt x="509" y="6" on="1"/>
        <pt x="509" y="0" on="1"/>
        <pt x="476" y="0" on="1"/>
        <pt x="398" y="249" on="1"/>
        <pt x="121" y="249" on="1"/>
        <pt x="43" y="0" on="1"/>
        <pt x="10" y="0" on="1"/>
      </contour>
      <contour>
        <pt x="387" y="283" on="1"/>
        <pt x="293" y="586" on="1"/>
        <pt x="260" y="698" on="1"/>
        <pt x="258" y="698" on="1"/>
        <pt x="226" y="586" on="1"/>
        <pt x="131" y="283" on="1"/>
      </contour>
      <contour>
        <pt x="261" y="816" on="1"/>
        <pt x="198" y="816" on="0"/>
        <pt x="126" y="886" on="0"/>
        <pt x="126" y="948" on="1"/>
        <pt x="160" y="948" on="1"/>
        <pt x="160" y="902" on="0"/>
        <pt x="213" y="850" on="0"/>
        <pt x="261" y="850" on="1"/>
        <pt x="309" y="850" on="0"/>
        <pt x="362" y="902" on="0"/>
        <pt x="362" y="948" on="1"/>
        <pt x="396" y="948" on="1"/>
        <pt x="396" y="886" on="0"/>
        <pt x="324" y="816" on="0"/>
      </contour>
    </TTGlyph>
    <TTGlyph name="Abreve.sc" xMin="15" yMin="0" xMax="450" yMax="741">
      <contour>
        <pt x="234" y="635" on="1"/>
        <pt x="179" y="635" on="0"/>
        <pt x="116" y="691" on="0"/>
        <pt x="116" y="741" on="1"/>
        <pt x="148" y="741" on="1"/>
        <pt x="148" y="704" on="0"/>
        <pt x="193" y="664" on="0"/>
        <pt x="234" y="664" on="1"/>
        <pt x="275" y="664" on="0"/>
        <pt x="320" y="704" on="0"/>
        <pt x="320" y="741" on="1"/>
        <pt x="352" y="741" on="1"/>
        <pt x="352" y="691" on="0"/>
        <pt x="289" y="635" on="0"/>
      </contour>
      <contour>
        <pt x="15" y="5" on="1"/>
        <pt x="211" y="577" on="1"/>
        <pt x="255" y="577" on="1"/>
        <pt x="450" y="5" on="1"/>
        <pt x="450" y="0" on="1"/>
        <pt x="417" y="0" on="1"/>
        <pt x="351" y="190" on="1"/>
        <pt x="114" y="190" on="1"/>
        <pt x="48" y="0" on="1"/>
        <pt x="15" y="0" on="1"/>
      </contour>
      <contour>
        <pt x="341" y="222" on="1"/>
        <pt x="262" y="453" on="1"/>
        <pt x="234" y="540" on="1"/>
        <pt x="230" y="540" on="1"/>
        <pt x="204" y="453" on="1"/>
        <pt x="123" y="222" on="1"/>
      </contour>
    </TTGlyph>
    <TTGlyph name="Acircumflex" xMin="10" yMin="0" xMax="509" yMax="932">
      <contour>
        <pt x="10" y="6" on="1"/>
        <pt x="239" y="740" on="1"/>
        <pt x="280" y="740" on="1"/>
        <pt x="509" y="6" on="1"/>
        <pt x="509" y="0" on="1"/>
        <pt x="476" y="0" on="1"/>
        <pt x="398" y="249" on="1"/>
        <pt x="121" y="249" on="1"/>
        <pt x="43" y="0" on="1"/>
        <pt x="10" y="0" on="1"/>
      </contour>
      <contour>
        <pt x="387" y="283" on="1"/>
        <pt x="293" y="586" on="1"/>
        <pt x="260" y="698" on="1"/>
        <pt x="258" y="698" on="1"/>
        <pt x="226" y="586" on="1"/>
        <pt x="131" y="283" on="1"/>
      </contour>
      <contour>
        <pt x="138" y="860" on="1"/>
        <pt x="259" y="932" on="1"/>
        <pt x="380" y="860" on="1"/>
        <pt x="380" y="819" on="1"/>
        <pt x="259" y="891" on="1"/>
        <pt x="138" y="819" on="1"/>
      </contour>
    </TTGlyph>
    <TTGlyph name="Acircumflex.sc" xMin="15" yMin="0" xMax="450" yMax="729">
      <contour>
        <pt x="15" y="5" on="1"/>
        <pt x="211" y="577" on="1"/>
        <pt x="255" y="577" on="1"/>
        <pt x="450" y="5" on="1"/>
        <pt x="450" y="0" on="1"/>
        <pt x="417" y="0" on="1"/>
        <pt x="351" y="190" on="1"/>
        <pt x="114" y="190" on="1"/>
        <pt x="48" y="0" on="1"/>
        <pt x="15" y="0" on="1"/>
      </contour>
      <contour>
        <pt x="341" y="222" on="1"/>
        <pt x="262" y="453" on="1"/>
        <pt x="234" y="540" on="1"/>
        <pt x="230" y="540" on="1"/>
        <pt x="204" y="453" on="1"/>
        <pt x="123" y="222" on="1"/>
      </contour>
      <contour>
        <pt x="127" y="673" on="1"/>
        <pt x="233" y="729" on="1"/>
        <pt x="338" y="673" on="1"/>
        <pt x="338" y="637" on="1"/>
        <pt x="232" y="693" on="1"/>
        <pt x="127" y="637" on="1"/>
      </contour>
    </TTGlyph>
    <TTGlyph name="Adblgrave" xMin="10" yMin="0" xMax="509" yMax="910">
      <contour>
        <pt x="10" y="6" on="1"/>
        <pt x="239" y="740" on="1"/>
        <pt x="280" y="740" on="1"/>
        <pt x="509" y="6" on="1"/>
        <pt x="509" y="0" on="1"/>
        <pt x="476" y="0" on="1"/>
        <pt x="398" y="249" on="1"/>
        <pt x="121" y="249" on="1"/>
        <pt x="43" y="0" on="1"/>
        <pt x="10" y="0" on="1"/>
      </contour>
      <contour>
        <pt x="387" y="283" on="1"/>
        <pt x="293" y="586" on="1"/>
        <pt x="260" y="698" on="1"/>
        <pt x="258" y="698" on="1"/>
        <pt x="226" y="586" on="1"/>
        <pt x="131" y="283" on="1"/>
      </contour>
      <contour>
        <pt x="181" y="784" on="1"/>
        <pt x="96" y="910" on="1"/>
        <pt x="134" y="910" on="1"/>
        <pt x="213" y="798" on="1"/>
      </contour>
      <contour>
        <pt x="308" y="784" on="1"/>
        <pt x="223" y="910" on="1"/>
        <pt x="261" y="910" on="1"/>
        <pt x="340" y="798" on="1"/>
      </contour>
    </TTGlyph>
    <TTGlyph name="Adblgrave.sc" xMin="15" yMin="0" xMax="450" yMax="714">
      <contour>
        <pt x="15" y="5" on="1"/>
        <pt x="211" y="577" on="1"/>
        <pt x="255" y="577" on="1"/>
        <pt x="450" y="5" on="1"/>
        <pt x="450" y="0" on="1"/>
        <pt x="417" y="0" on="1"/>
        <pt x="351" y="190" on="1"/>
        <pt x="114" y="190" on="1"/>
        <pt x="48" y="0" on="1"/>
        <pt x="15" y="0" on="1"/>
      </contour>
      <contour>
        <pt x="341" y="222" on="1"/>
        <pt x="262" y="453" on="1"/>
        <pt x="234" y="540" on="1"/>
        <pt x="230" y="540" on="1"/>
        <pt x="204" y="453" on="1"/>
        <pt x="123" y="222" on="1"/>
      </contour>
      <contour>
        <pt x="91" y="714" on="1"/>
        <pt x="127" y="714" on="1"/>
        <pt x="194" y="623" on="1"/>
        <pt x="164" y="612" on="1"/>
      </contour>
      <contour>
        <pt x="201" y="714" on="1"/>
        <pt x="237" y="714" on="1"/>
        <pt x="304" y="623" on="1"/>
        <pt x="275" y="612" on="1"/>
      </contour>
    </TTGlyph>
    <TTGlyph name="Adieresis" xMin="10" yMin="0" xMax="509" yMax="873">
      <contour>
        <pt x="10" y="6" on="1"/>
        <pt x="239" y="740" on="1"/>
        <pt x="280" y="740" on="1"/>
        <pt x="509" y="6" on="1"/>
        <pt x="509" y="0" on="1"/>
        <pt x="476" y="0" on="1"/>
        <pt x="398" y="249" on="1"/>
        <pt x="121" y="249" on="1"/>
        <pt x="43" y="0" on="1"/>
        <pt x="10" y="0" on="1"/>
      </contour>
      <contour>
        <pt x="387" y="283" on="1"/>
        <pt x="293" y="586" on="1"/>
        <pt x="260" y="698" on="1"/>
        <pt x="258" y="698" on="1"/>
        <pt x="226" y="586" on="1"/>
        <pt x="131" y="283" on="1"/>
      </contour>
      <contour>
        <pt x="176" y="814" on="1"/>
        <pt x="164" y="814" on="0"/>
        <pt x="147" y="828" on="0"/>
        <pt x="147" y="843" on="1"/>
        <pt x="147" y="859" on="0"/>
        <pt x="164" y="873" on="0"/>
        <pt x="176" y="873" on="1"/>
        <pt x="188" y="873" on="0"/>
        <pt x="206" y="858" on="0"/>
        <pt x="206" y="843" on="1"/>
        <pt x="206" y="828" on="0"/>
        <pt x="188" y="814" on="0"/>
      </contour>
      <contour>
        <pt x="343" y="814" on="1"/>
        <pt x="331" y="814" on="0"/>
        <pt x="313" y="828" on="0"/>
        <pt x="313" y="843" on="1"/>
        <pt x="313" y="859" on="0"/>
        <pt x="331" y="873" on="0"/>
        <pt x="343" y="873" on="1"/>
        <pt x="354" y="873" on="0"/>
        <pt x="373" y="858" on="0"/>
        <pt x="373" y="843" on="1"/>
        <pt x="373" y="828" on="0"/>
        <pt x="354" y="814" on="0"/>
      </contour>
    </TTGlyph>
    <TTGlyph name="Adieresis.sc" xMin="15" yMin="0" xMax="450" yMax="688">
      <contour>
        <pt x="158" y="635" on="1"/>
        <pt x="147" y="635" on="0"/>
        <pt x="131" y="647" on="0"/>
        <pt x="131" y="661" on="1"/>
        <pt x="131" y="675" on="0"/>
        <pt x="147" y="688" on="0"/>
        <pt x="158" y="688" on="1"/>
        <pt x="170" y="688" on="0"/>
        <pt x="186" y="675" on="0"/>
        <pt x="186" y="661" on="1"/>
        <pt x="186" y="647" on="0"/>
        <pt x="170" y="635" on="0"/>
      </contour>
      <contour>
        <pt x="307" y="635" on="1"/>
        <pt x="296" y="635" on="0"/>
        <pt x="279" y="647" on="0"/>
        <pt x="279" y="661" on="1"/>
        <pt x="279" y="675" on="0"/>
        <pt x="296" y="688" on="0"/>
        <pt x="307" y="688" on="1"/>
        <pt x="318" y="688" on="0"/>
        <pt x="335" y="675" on="0"/>
        <pt x="335" y="661" on="1"/>
        <pt x="335" y="647" on="0"/>
        <pt x="318" y="635" on="0"/>
      </contour>
      <contour>
        <pt x="15" y="5" on="1"/>
        <pt x="211" y="577" on="1"/>
        <pt x="255" y="577" on="1"/>
        <pt x="450" y="5" on="1"/>
        <pt x="450" y="0" on="1"/>
        <pt x="417" y="0" on="1"/>
        <pt x="351" y="190" on="1"/>
        <pt x="114" y="190" on="1"/>
        <pt x="48" y="0" on="1"/>
        <pt x="15" y="0" on="1"/>
      </contour>
      <contour>
        <pt x="341" y="222" on="1"/>
        <pt x="262" y="453" on="1"/>
        <pt x="234" y="540" on="1"/>
        <pt x="230" y="540" on="1"/>
        <pt x="204" y="453" on="1"/>
        <pt x="123" y="222" on="1"/>
      </contour>
    </TTGlyph>
    <TTGlyph name="Agrave" xMin="10" yMin="0" xMax="509" yMax="910">
      <contour>
        <pt x="10" y="6" on="1"/>
        <pt x="239" y="740" on="1"/>
        <pt x="280" y="740" on="1"/>
        <pt x="509" y="6" on="1"/>
        <pt x="509" y="0" on="1"/>
        <pt x="476" y="0" on="1"/>
        <pt x="398" y="249" on="1"/>
        <pt x="121" y="249" on="1"/>
        <pt x="43" y="0" on="1"/>
        <pt x="10" y="0" on="1"/>
      </contour>
      <contour>
        <pt x="387" y="283" on="1"/>
        <pt x="293" y="586" on="1"/>
        <pt x="260" y="698" on="1"/>
        <pt x="258" y="698" on="1"/>
        <pt x="226" y="586" on="1"/>
        <pt x="131" y="283" on="1"/>
      </contour>
      <contour>
        <pt x="239" y="784" on="1"/>
        <pt x="154" y="910" on="1"/>
        <pt x="192" y="910" on="1"/>
        <pt x="271" y="798" on="1"/>
      </contour>
    </TTGlyph>
    <TTGlyph name="Agrave.sc" xMin="15" yMin="0" xMax="450" yMax="714">
      <contour>
        <pt x="15" y="5" on="1"/>
        <pt x="211" y="577" on="1"/>
        <pt x="255" y="577" on="1"/>
        <pt x="450" y="5" on="1"/>
        <pt x="450" y="0" on="1"/>
        <pt x="417" y="0" on="1"/>
        <pt x="351" y="190" on="1"/>
        <pt x="114" y="190" on="1"/>
        <pt x="48" y="0" on="1"/>
        <pt x="15" y="0" on="1"/>
      </contour>
      <contour>
        <pt x="341" y="222" on="1"/>
        <pt x="262" y="453" on="1"/>
        <pt x="234" y="540" on="1"/>
        <pt x="230" y="540" on="1"/>
        <pt x="204" y="453" on="1"/>
        <pt x="123" y="222" on="1"/>
      </contour>
      <contour>
        <pt x="214" y="613" on="1"/>
        <pt x="141" y="714" on="1"/>
        <pt x="178" y="714" on="1"/>
        <pt x="245" y="623" on="1"/>
      </contour>
    </TTGlyph>
    <TTGlyph name="Ainvertedbreve" xMin="10" yMin="0" xMax="509" yMax="958">
      <contour>
        <pt x="10" y="6" on="1"/>
        <pt x="239" y="740" on="1"/>
        <pt x="280" y="740" on="1"/>
        <pt x="509" y="6" on="1"/>
        <pt x="509" y="0" on="1"/>
        <pt x="476" y="0" on="1"/>
        <pt x="398" y="249" on="1"/>
        <pt x="121" y="249" on="1"/>
        <pt x="43" y="0" on="1"/>
        <pt x="10" y="0" on="1"/>
      </contour>
      <contour>
        <pt x="387" y="283" on="1"/>
        <pt x="293" y="586" on="1"/>
        <pt x="260" y="698" on="1"/>
        <pt x="258" y="698" on="1"/>
        <pt x="226" y="586" on="1"/>
        <pt x="131" y="283" on="1"/>
      </contour>
      <contour>
        <pt x="360" y="826" on="1"/>
        <pt x="360" y="872" on="0"/>
        <pt x="307" y="924" on="0"/>
        <pt x="259" y="924" on="1"/>
        <pt x="211" y="924" on="0"/>
        <pt x="158" y="872" on="0"/>
        <pt x="158" y="826" on="1"/>
        <pt x="124" y="826" on="1"/>
        <pt x="124" y="888" on="0"/>
        <pt x="196" y="958" on="0"/>
        <pt x="259" y="958" on="1"/>
        <pt x="322" y="958" on="0"/>
        <pt x="394" y="888" on="0"/>
        <pt x="394" y="826" on="1"/>
      </contour>
    </TTGlyph>
    <TTGlyph name="Ainvertedbreve.sc" xMin="15" yMin="0" xMax="450" yMax="748">
      <contour>
        <pt x="115" y="643" on="1"/>
        <pt x="115" y="692" on="0"/>
        <pt x="177" y="748" on="0"/>
        <pt x="232" y="748" on="1"/>
        <pt x="288" y="748" on="0"/>
        <pt x="350" y="692" on="0"/>
        <pt x="350" y="643" on="1"/>
        <pt x="318" y="643" on="1"/>
        <pt x="318" y="679" on="0"/>
        <pt x="273" y="719" on="0"/>
        <pt x="232" y="719" on="1"/>
        <pt x="192" y="719" on="0"/>
        <pt x="147" y="679" on="0"/>
        <pt x="147" y="643" on="1"/>
      </contour>
      <contour>
        <pt x="15" y="5" on="1"/>
        <pt x="211" y="577" on="1"/>
        <pt x="255" y="577" on="1"/>
        <pt x="450" y="5" on="1"/>
        <pt x="450" y="0" on="1"/>
        <pt x="417" y="0" on="1"/>
        <pt x="351" y="190" on="1"/>
        <pt x="114" y="190" on="1"/>
        <pt x="48" y="0" on="1"/>
        <pt x="15" y="0" on="1"/>
      </contour>
      <contour>
        <pt x="341" y="222" on="1"/>
        <pt x="262" y="453" on="1"/>
        <pt x="234" y="540" on="1"/>
        <pt x="230" y="540" on="1"/>
        <pt x="204" y="453" on="1"/>
        <pt x="123" y="222" on="1"/>
      </contour>
    </TTGlyph>
    <TTGlyph name="Amacron" xMin="10" yMin="0" xMax="509" yMax="876">
      <contour>
        <pt x="10" y="6" on="1"/>
        <pt x="239" y="740" on="1"/>
        <pt x="280" y="740" on="1"/>
        <pt x="509" y="6" on="1"/>
        <pt x="509" y="0" on="1"/>
        <pt x="476" y="0" on="1"/>
        <pt x="398" y="249" on="1"/>
        <pt x="121" y="249" on="1"/>
        <pt x="43" y="0" on="1"/>
        <pt x="10" y="0" on="1"/>
      </contour>
      <contour>
        <pt x="387" y="283" on="1"/>
        <pt x="293" y="586" on="1"/>
        <pt x="260" y="698" on="1"/>
        <pt x="258" y="698" on="1"/>
        <pt x="226" y="586" on="1"/>
        <pt x="131" y="283" on="1"/>
      </contour>
      <contour>
        <pt x="145" y="876" on="1"/>
        <pt x="354" y="876" on="1"/>
        <pt x="354" y="842" on="1"/>
        <pt x="145" y="842" on="1"/>
      </contour>
    </TTGlyph>
    <TTGlyph name="Amacron.sc" xMin="15" yMin="0" xMax="450" yMax="687">
      <contour>
        <pt x="15" y="5" on="1"/>
        <pt x="211" y="577" on="1"/>
        <pt x="255" y="577" on="1"/>
        <pt x="450" y="5" on="1"/>
        <pt x="450" y="0" on="1"/>
        <pt x="417" y="0" on="1"/>
        <pt x="351" y="190" on="1"/>
        <pt x="114" y="190" on="1"/>
        <pt x="48" y="0" on="1"/>
        <pt x="15" y="0" on="1"/>
      </contour>
      <contour>
        <pt x="341" y="222" on="1"/>
        <pt x="262" y="453" on="1"/>
        <pt x="234" y="540" on="1"/>
        <pt x="230" y="540" on="1"/>
        <pt x="204" y="453" on="1"/>
        <pt x="123" y="222" on="1"/>
      </contour>
      <contour>
        <pt x="132" y="687" on="1"/>
        <pt x="318" y="687" on="1"/>
        <pt x="318" y="656" on="1"/>
        <pt x="132" y="656" on="1"/>
      </contour>
    </TTGlyph>
    <TTGlyph name="Aogonek" xMin="10" yMin="-220" xMax="509" yMax="740">
      <contour>
        <pt x="463" y="-220" on="1"/>
        <pt x="428" y="-220" on="0"/>
        <pt x="386" y="-176" on="0"/>
        <pt x="386" y="-138" on="1"/>
        <pt x="386" y="-58" on="0"/>
        <pt x="480" y="0" on="1"/>
        <pt x="476" y="0" on="1"/>
        <pt x="398" y="249" on="1"/>
        <pt x="121" y="249" on="1"/>
        <pt x="43" y="0" on="1"/>
        <pt x="10" y="0" on="1"/>
        <pt x="10" y="6" on="1"/>
        <pt x="239" y="740" on="1"/>
        <pt x="280" y="740" on="1"/>
        <pt x="509" y="6" on="1"/>
        <pt x="509" y="-19" on="1"/>
        <pt x="461" y="-45" on="0"/>
        <pt x="420" y="-99" on="0"/>
        <pt x="420" y="-135" on="1"/>
        <pt x="420" y="-162" on="0"/>
        <pt x="443" y="-186" on="0"/>
        <pt x="468" y="-186" on="1"/>
        <pt x="490" y="-186" on="0"/>
        <pt x="509" y="-176" on="1"/>
        <pt x="509" y="-208" on="1"/>
        <pt x="488" y="-220" on="0"/>
      </contour>
      <contour>
        <pt x="387" y="283" on="1"/>
        <pt x="293" y="586" on="1"/>
        <pt x="260" y="698" on="1"/>
        <pt x="258" y="698" on="1"/>
        <pt x="226" y="586" on="1"/>
        <pt x="131" y="283" on="1"/>
      </contour>
    </TTGlyph>
    <TTGlyph name="Aogonek.sc" xMin="14" yMin="-171" xMax="449" yMax="577">
      <contour>
        <pt x="410" y="-171" on="1"/>
        <pt x="377" y="-171" on="0"/>
        <pt x="340" y="-138" on="0"/>
        <pt x="340" y="-106" on="1"/>
        <pt x="340" y="-45" on="0"/>
        <pt x="418" y="0" on="1"/>
        <pt x="416" y="0" on="1"/>
        <pt x="350" y="190" on="1"/>
        <pt x="113" y="190" on="1"/>
        <pt x="47" y="0" on="1"/>
        <pt x="14" y="0" on="1"/>
        <pt x="14" y="5" on="1"/>
        <pt x="210" y="577" on="1"/>
        <pt x="254" y="577" on="1"/>
        <pt x="449" y="5" on="1"/>
        <pt x="449" y="-14" on="1"/>
        <pt x="414" y="-27" on="0"/>
        <pt x="372" y="-76" on="0"/>
        <pt x="372" y="-105" on="1"/>
        <pt x="372" y="-141" on="0"/>
        <pt x="412" y="-141" on="1"/>
        <pt x="434" y="-141" on="0"/>
        <pt x="449" y="-133" on="1"/>
        <pt x="449" y="-162" on="1"/>
        <pt x="431" y="-171" on="0"/>
      </contour>
      <contour>
        <pt x="340" y="222" on="1"/>
        <pt x="261" y="459" on="1"/>
        <pt x="233" y="540" on="1"/>
        <pt x="229" y="540" on="1"/>
        <pt x="203" y="459" on="1"/>
        <pt x="122" y="222" on="1"/>
      </contour>
    </TTGlyph>
    <TTGlyph name="Aring" xMin="10" yMin="0" xMax="509" yMax="906">
      <contour>
        <pt x="10" y="6" on="1"/>
        <pt x="230" y="710" on="1"/>
        <pt x="201" y="720" on="0"/>
        <pt x="171" y="772" on="0"/>
        <pt x="171" y="806" on="1"/>
        <pt x="171" y="848" on="0"/>
        <pt x="215" y="906" on="0"/>
        <pt x="259" y="906" on="1"/>
        <pt x="303" y="906" on="0"/>
        <pt x="348" y="848" on="0"/>
        <pt x="348" y="806" on="1"/>
        <pt x="348" y="772" on="0"/>
        <pt x="318" y="721" on="0"/>
        <pt x="289" y="711" on="1"/>
        <pt x="509" y="6" on="1"/>
        <pt x="509" y="0" on="1"/>
        <pt x="476" y="0" on="1"/>
        <pt x="398" y="249" on="1"/>
        <pt x="121" y="249" on="1"/>
        <pt x="43" y="0" on="1"/>
        <pt x="10" y="0" on="1"/>
      </contour>
      <contour>
        <pt x="387" y="283" on="1"/>
        <pt x="293" y="586" on="1"/>
        <pt x="260" y="698" on="1"/>
        <pt x="258" y="698" on="1"/>
        <pt x="226" y="586" on="1"/>
        <pt x="131" y="283" on="1"/>
      </contour>
      <contour>
        <pt x="259" y="740" on="1"/>
        <pt x="285" y="740" on="0"/>
        <pt x="314" y="778" on="0"/>
        <pt x="314" y="806" on="1"/>
        <pt x="314" y="834" on="0"/>
        <pt x="286" y="872" on="0"/>
        <pt x="259" y="872" on="1"/>
        <pt x="232" y="872" on="0"/>
        <pt x="205" y="834" on="0"/>
        <pt x="205" y="806" on="1"/>
        <pt x="205" y="778" on="0"/>
        <pt x="233" y="740" on="0"/>
      </contour>
    </TTGlyph>
    <TTGlyph name="Aring.sc" xMin="15" yMin="0" xMax="450" yMax="770">
      <contour>
        <pt x="15" y="5" on="1"/>
        <pt x="211" y="577" on="1"/>
        <pt x="255" y="577" on="1"/>
        <pt x="450" y="5" on="1"/>
        <pt x="450" y="0" on="1"/>
        <pt x="417" y="0" on="1"/>
        <pt x="351" y="190" on="1"/>
        <pt x="114" y="190" on="1"/>
        <pt x="48" y="0" on="1"/>
        <pt x="15" y="0" on="1"/>
      </contour>
      <contour>
        <pt x="341" y="222" on="1"/>
        <pt x="262" y="453" on="1"/>
        <pt x="234" y="540" on="1"/>
        <pt x="230" y="540" on="1"/>
        <pt x="204" y="453" on="1"/>
        <pt x="123" y="222" on="1"/>
      </contour>
      <contour>
        <pt x="231" y="612" on="1"/>
        <pt x="194" y="612" on="0"/>
        <pt x="154" y="659" on="0"/>
        <pt x="154" y="691" on="1"/>
        <pt x="154" y="724" on="0"/>
        <pt x="193" y="770" on="0"/>
        <pt x="231" y="770" on="1"/>
        <pt x="269" y="770" on="0"/>
        <pt x="309" y="724" on="0"/>
        <pt x="309" y="691" on="1"/>
        <pt x="309" y="659" on="0"/>
        <pt x="269" y="612" on="0"/>
      </contour>
      <contour>
        <pt x="231" y="640" on="1"/>
        <pt x="254" y="640" on="0"/>
        <pt x="279" y="669" on="0"/>
        <pt x="279" y="691" on="1"/>
        <pt x="279" y="713" on="0"/>
        <pt x="255" y="742" on="0"/>
        <pt x="231" y="742" on="1"/>
        <pt x="208" y="742" on="0"/>
        <pt x="184" y="713" on="0"/>
        <pt x="184" y="691" on="1"/>
        <pt x="184" y="669" on="0"/>
        <pt x="208" y="640" on="0"/>
      </contour>
    </TTGlyph>
    <TTGlyph name="Aringacute" xMin="11" yMin="0" xMax="510" yMax="910">
      <contour>
        <pt x="11" y="6" on="1"/>
        <pt x="207" y="634" on="1"/>
        <pt x="189" y="648" on="0"/>
        <pt x="171" y="692" on="0"/>
        <pt x="171" y="718" on="1"/>
        <pt x="171" y="756" on="0"/>
        <pt x="208" y="812" on="0"/>
        <pt x="245" y="817" on="1"/>
        <pt x="311" y="910" on="1"/>
        <pt x="349" y="910" on="1"/>
        <pt x="284" y="814" on="1"/>
        <pt x="316" y="806" on="0"/>
        <pt x="348" y="753" on="0"/>
        <pt x="348" y="718" on="1"/>
        <pt x="348" y="692" on="0"/>
        <pt x="330" y="650" on="0"/>
        <pt x="313" y="636" on="1"/>
        <pt x="510" y="6" on="1"/>
        <pt x="510" y="0" on="1"/>
        <pt x="477" y="0" on="1"/>
        <pt x="399" y="249" on="1"/>
        <pt x="122" y="249" on="1"/>
        <pt x="44" y="0" on="1"/>
        <pt x="11" y="0" on="1"/>
      </contour>
      <contour>
        <pt x="259" y="652" on="1"/>
        <pt x="285" y="652" on="0"/>
        <pt x="314" y="690" on="0"/>
        <pt x="314" y="718" on="1"/>
        <pt x="314" y="746" on="0"/>
        <pt x="286" y="784" on="0"/>
        <pt x="259" y="784" on="1"/>
        <pt x="232" y="784" on="0"/>
        <pt x="205" y="746" on="0"/>
        <pt x="205" y="718" on="1"/>
        <pt x="205" y="690" on="0"/>
        <pt x="233" y="652" on="0"/>
      </contour>
      <contour>
        <pt x="388" y="283" on="1"/>
        <pt x="294" y="586" on="1"/>
        <pt x="284" y="621" on="1"/>
        <pt x="237" y="621" on="1"/>
        <pt x="227" y="586" on="1"/>
        <pt x="132" y="283" on="1"/>
      </contour>
    </TTGlyph>
    <TTGlyph name="Aringacute.sc" xMin="15" yMin="0" xMax="450" yMax="718">
      <contour>
        <pt x="15" y="5" on="1"/>
        <pt x="184" y="498" on="1"/>
        <pt x="168" y="509" on="0"/>
        <pt x="153" y="543" on="0"/>
        <pt x="153" y="563" on="1"/>
        <pt x="153" y="594" on="0"/>
        <pt x="186" y="639" on="0"/>
        <pt x="218" y="643" on="1"/>
        <pt x="274" y="718" on="1"/>
        <pt x="311" y="718" on="1"/>
        <pt x="255" y="640" on="1"/>
        <pt x="282" y="633" on="0"/>
        <pt x="311" y="591" on="0"/>
        <pt x="311" y="563" on="1"/>
        <pt x="311" y="543" on="0"/>
        <pt x="296" y="510" on="0"/>
        <pt x="281" y="499" on="1"/>
        <pt x="450" y="5" on="1"/>
        <pt x="450" y="0" on="1"/>
        <pt x="417" y="0" on="1"/>
        <pt x="351" y="190" on="1"/>
        <pt x="114" y="190" on="1"/>
        <pt x="48" y="0" on="1"/>
        <pt x="15" y="0" on="1"/>
      </contour>
      <contour>
        <pt x="231" y="512" on="1"/>
        <pt x="254" y="512" on="0"/>
        <pt x="280" y="541" on="0"/>
        <pt x="280" y="563" on="1"/>
        <pt x="280" y="586" on="0"/>
        <pt x="255" y="615" on="0"/>
        <pt x="231" y="615" on="1"/>
        <pt x="208" y="615" on="0"/>
        <pt x="184" y="586" on="0"/>
        <pt x="184" y="563" on="1"/>
        <pt x="184" y="541" on="0"/>
        <pt x="208" y="512" on="0"/>
      </contour>
      <contour>
        <pt x="341" y="222" on="1"/>
        <pt x="262" y="453" on="1"/>
        <pt x="252" y="485" on="1"/>
        <pt x="213" y="484" on="1"/>
        <pt x="204" y="453" on="1"/>
        <pt x="123" y="222" on="1"/>
      </contour>
    </TTGlyph>
    <TTGlyph name="Atilde" xMin="10" yMin="0" xMax="509" yMax="899">
      <contour>
        <pt x="10" y="6" on="1"/>
        <pt x="239" y="740" on="1"/>
        <pt x="280" y="740" on="1"/>
        <pt x="509" y="6" on="1"/>
        <pt x="509" y="0" on="1"/>
        <pt x="476" y="0" on="1"/>
        <pt x="398" y="249" on="1"/>
        <pt x="121" y="249" on="1"/>
        <pt x="43" y="0" on="1"/>
        <pt x="10" y="0" on="1"/>
      </contour>
      <contour>
        <pt x="387" y="283" on="1"/>
        <pt x="293" y="586" on="1"/>
        <pt x="260" y="698" on="1"/>
        <pt x="258" y="698" on="1"/>
        <pt x="226" y="586" on="1"/>
        <pt x="131" y="283" on="1"/>
      </contour>
      <contour>
        <pt x="118" y="850" on="1"/>
        <pt x="132" y="867" on="0"/>
        <pt x="179" y="899" on="0"/>
        <pt x="202" y="899" on="1"/>
        <pt x="221" y="899" on="0"/>
        <pt x="251" y="886" on="0"/>
        <pt x="278" y="869" on="0"/>
        <pt x="305" y="856" on="0"/>
        <pt x="321" y="856" on="1"/>
        <pt x="337" y="856" on="0"/>
        <pt x="364" y="878" on="0"/>
        <pt x="372" y="896" on="1"/>
        <pt x="400" y="876" on="1"/>
        <pt x="390" y="853" on="0"/>
        <pt x="344" y="822" on="0"/>
        <pt x="321" y="822" on="1"/>
        <pt x="302" y="822" on="0"/>
        <pt x="272" y="835" on="0"/>
        <pt x="245" y="852" on="0"/>
        <pt x="218" y="865" on="0"/>
        <pt x="202" y="865" on="1"/>
        <pt x="185" y="865" on="0"/>
        <pt x="153" y="841" on="0"/>
        <pt x="142" y="826" on="1"/>
      </contour>
    </TTGlyph>
    <TTGlyph name="Atilde.sc" xMin="15" yMin="0" xMax="450" yMax="705">
      <contour>
        <pt x="15" y="5" on="1"/>
        <pt x="211" y="577" on="1"/>
        <pt x="255" y="577" on="1"/>
        <pt x="450" y="5" on="1"/>
        <pt x="450" y="0" on="1"/>
        <pt x="417" y="0" on="1"/>
        <pt x="351" y="190" on="1"/>
        <pt x="114" y="190" on="1"/>
        <pt x="48" y="0" on="1"/>
        <pt x="15" y="0" on="1"/>
      </contour>
      <contour>
        <pt x="341" y="222" on="1"/>
        <pt x="262" y="453" on="1"/>
        <pt x="234" y="540" on="1"/>
        <pt x="230" y="540" on="1"/>
        <pt x="204" y="453" on="1"/>
        <pt x="123" y="222" on="1"/>
      </contour>
      <contour>
        <pt x="109" y="663" on="1"/>
        <pt x="122" y="679" on="0"/>
        <pt x="164" y="705" on="0"/>
        <pt x="184" y="705" on="1"/>
        <pt x="200" y="705" on="0"/>
        <pt x="226" y="695" on="0"/>
        <pt x="250" y="682" on="0"/>
        <pt x="274" y="672" on="0"/>
        <pt x="288" y="672" on="1"/>
        <pt x="302" y="672" on="0"/>
        <pt x="326" y="689" on="0"/>
        <pt x="334" y="703" on="1"/>
        <pt x="358" y="687" on="1"/>
        <pt x="348" y="667" on="0"/>
        <pt x="307" y="641" on="0"/>
        <pt x="286" y="641" on="1"/>
        <pt x="270" y="641" on="0"/>
        <pt x="245" y="652" on="0"/>
        <pt x="221" y="664" on="0"/>
        <pt x="197" y="675" on="0"/>
        <pt x="183" y="675" on="1"/>
        <pt x="168" y="675" on="0"/>
        <pt x="140" y="657" on="0"/>
        <pt x="130" y="644" on="1"/>
      </contour>
    </TTGlyph>
    <TTGlyph name="B" xMin="81" yMin="-10" xMax="494" yMax="750">
      <contour>
        <pt x="270" y="-10" on="1"/>
        <pt x="248" y="-10" on="0"/>
        <pt x="195" y="-8" on="0"/>
        <pt x="142" y="-3" on="0"/>
        <pt x="96" y="2" on="0"/>
        <pt x="81" y="5" on="1"/>
        <pt x="81" y="737" on="1"/>
        <pt x="114" y="741" on="0"/>
        <pt x="162" y="746" on="0"/>
        <pt x="200" y="749" on="0"/>
        <pt x="233" y="750" on="0"/>
        <pt x="251" y="750" on="1"/>
        <pt x="363" y="750" on="0"/>
        <pt x="470" y="654" on="0"/>
        <pt x="470" y="554" on="1"/>
        <pt x="470" y="481" on="0"/>
        <pt x="407" y="391" on="0"/>
        <pt x="349" y="380" on="1"/>
        <pt x="349" y="376" on="1"/>
        <pt x="416" y="367" on="0"/>
        <pt x="494" y="269" on="0"/>
        <pt x="494" y="191" on="1"/>
        <pt x="494" y="-10" on="0"/>
      </contour>
      <contour>
        <pt x="270" y="20" on="1"/>
        <pt x="458" y="21" on="0"/>
        <pt x="458" y="191" on="1"/>
        <pt x="458" y="279" on="0"/>
        <pt x="359" y="358" on="0"/>
        <pt x="246" y="358" on="1"/>
        <pt x="115" y="358" on="1"/>
        <pt x="115" y="31" on="1"/>
        <pt x="123" y="29" on="0"/>
        <pt x="159" y="25" on="0"/>
        <pt x="204" y="22" on="0"/>
        <pt x="251" y="20" on="0"/>
      </contour>
      <contour>
        <pt x="245" y="392" on="1"/>
        <pt x="297" y="392" on="0"/>
        <pt x="369" y="409" on="0"/>
        <pt x="414" y="448" on="0"/>
        <pt x="434" y="509" on="0"/>
        <pt x="434" y="554" on="1"/>
        <pt x="434" y="638" on="0"/>
        <pt x="345" y="718" on="0"/>
        <pt x="251" y="718" on="1"/>
        <pt x="214" y="718" on="0"/>
        <pt x="151" y="714" on="0"/>
        <pt x="115" y="709" on="1"/>
        <pt x="115" y="392" on="1"/>
      </contour>
    </TTGlyph>
    <TTGlyph name="B.sc" xMin="76" yMin="-8" xMax="434" yMax="585">
      <contour>
        <pt x="238" y="-8" on="1"/>
        <pt x="219" y="-8" on="0"/>
        <pt x="174" y="-6" on="0"/>
        <pt x="129" y="-3" on="0"/>
        <pt x="89" y="1" on="0"/>
        <pt x="76" y="4" on="1"/>
        <pt x="76" y="575" on="1"/>
        <pt x="104" y="578" on="0"/>
        <pt x="146" y="581" on="0"/>
        <pt x="179" y="584" on="0"/>
        <pt x="208" y="585" on="0"/>
        <pt x="223" y="585" on="1"/>
        <pt x="321" y="585" on="0"/>
        <pt x="414" y="510" on="0"/>
        <pt x="414" y="431" on="1"/>
        <pt x="414" y="375" on="0"/>
        <pt x="361" y="305" on="0"/>
        <pt x="311" y="296" on="1"/>
        <pt x="311" y="293" on="1"/>
        <pt x="368" y="285" on="0"/>
        <pt x="434" y="210" on="0"/>
        <pt x="434" y="150" on="1"/>
        <pt x="434" y="-8" on="0"/>
      </contour>
      <contour>
        <pt x="239" y="21" on="1"/>
        <pt x="398" y="21" on="0"/>
        <pt x="398" y="150" on="1"/>
        <pt x="398" y="217" on="0"/>
        <pt x="316" y="276" on="0"/>
        <pt x="221" y="276" on="1"/>
        <pt x="110" y="276" on="1"/>
        <pt x="110" y="30" on="1"/>
        <pt x="117" y="28" on="0"/>
        <pt x="147" y="25" on="0"/>
        <pt x="184" y="23" on="0"/>
        <pt x="223" y="21" on="0"/>
      </contour>
      <contour>
        <pt x="221" y="308" on="1"/>
        <pt x="264" y="308" on="0"/>
        <pt x="324" y="321" on="0"/>
        <pt x="361" y="350" on="0"/>
        <pt x="378" y="397" on="0"/>
        <pt x="378" y="431" on="1"/>
        <pt x="378" y="494" on="0"/>
        <pt x="303" y="554" on="0"/>
        <pt x="224" y="554" on="1"/>
        <pt x="193" y="554" on="0"/>
        <pt x="140" y="551" on="0"/>
        <pt x="110" y="547" on="1"/>
        <pt x="110" y="308" on="1"/>
      </contour>
    </TTGlyph>
    <TTGlyph name="C" xMin="49" yMin="-10" xMax="448" yMax="748">
      <contour>
        <pt x="354" y="-10" on="1"/>
        <pt x="273" y="-9" on="0"/>
        <pt x="157" y="35" on="0"/>
        <pt x="84" y="127" on="0"/>
        <pt x="49" y="270" on="0"/>
        <pt x="49" y="369" on="1"/>
        <pt x="49" y="472" on="0"/>
        <pt x="82" y="616" on="0"/>
        <pt x="155" y="707" on="0"/>
        <pt x="270" y="748" on="0"/>
        <pt x="352" y="748" on="1"/>
        <pt x="372" y="748" on="0"/>
        <pt x="421" y="745" on="0"/>
        <pt x="448" y="741" on="1"/>
        <pt x="448" y="707" on="1"/>
        <pt x="434" y="710" on="0"/>
        <pt x="383" y="714" on="0"/>
        <pt x="356" y="714" on="1"/>
        <pt x="282" y="714" on="0"/>
        <pt x="179" y="677" on="0"/>
        <pt x="114" y="594" on="0"/>
        <pt x="85" y="463" on="0"/>
        <pt x="85" y="369" on="1"/>
        <pt x="85" y="189" on="0"/>
        <pt x="212" y="24" on="0"/>
        <pt x="351" y="24" on="1"/>
        <pt x="357" y="24" on="0"/>
        <pt x="380" y="25" on="0"/>
        <pt x="407" y="27" on="0"/>
        <pt x="436" y="29" on="0"/>
        <pt x="448" y="31" on="1"/>
        <pt x="448" y="-2" on="1"/>
        <pt x="425" y="-7" on="0"/>
        <pt x="386" y="-10" on="0"/>
      </contour>
    </TTGlyph>
    <TTGlyph name="C.sc" xMin="48" yMin="-8" xMax="393" yMax="584">
      <contour>
        <pt x="307" y="-8" on="1"/>
        <pt x="239" y="-7" on="0"/>
        <pt x="141" y="27" on="0"/>
        <pt x="78" y="99" on="0"/>
        <pt x="48" y="211" on="0"/>
        <pt x="48" y="288" on="1"/>
        <pt x="48" y="367" on="0"/>
        <pt x="77" y="480" on="0"/>
        <pt x="139" y="551" on="0"/>
        <pt x="237" y="584" on="0"/>
        <pt x="306" y="584" on="1"/>
        <pt x="325" y="584" on="0"/>
        <pt x="369" y="580" on="0"/>
        <pt x="393" y="577" on="1"/>
        <pt x="393" y="545" on="1"/>
        <pt x="379" y="547" on="0"/>
        <pt x="333" y="551" on="0"/>
        <pt x="310" y="551" on="1"/>
        <pt x="249" y="551" on="0"/>
        <pt x="163" y="523" on="0"/>
        <pt x="109" y="460" on="0"/>
        <pt x="84" y="360" on="0"/>
        <pt x="84" y="288" on="1"/>
        <pt x="84" y="150" on="0"/>
        <pt x="190" y="25" on="0"/>
        <pt x="306" y="25" on="1"/>
        <pt x="318" y="25" on="0"/>
        <pt x="371" y="29" on="0"/>
        <pt x="393" y="31" on="1"/>
        <pt x="393" y="0" on="1"/>
        <pt x="373" y="-4" on="0"/>
        <pt x="335" y="-8" on="0"/>
      </contour>
    </TTGlyph>
    <TTGlyph name="Cacute" xMin="49" yMin="-10" xMax="448" yMax="910">
      <contour>
        <pt x="354" y="-10" on="1"/>
        <pt x="273" y="-9" on="0"/>
        <pt x="157" y="35" on="0"/>
        <pt x="84" y="127" on="0"/>
        <pt x="49" y="270" on="0"/>
        <pt x="49" y="369" on="1"/>
        <pt x="49" y="472" on="0"/>
        <pt x="82" y="616" on="0"/>
        <pt x="155" y="707" on="0"/>
        <pt x="270" y="748" on="0"/>
        <pt x="352" y="748" on="1"/>
        <pt x="372" y="748" on="0"/>
        <pt x="421" y="745" on="0"/>
        <pt x="448" y="741" on="1"/>
        <pt x="448" y="707" on="1"/>
        <pt x="434" y="710" on="0"/>
        <pt x="383" y="714" on="0"/>
        <pt x="356" y="714" on="1"/>
        <pt x="282" y="714" on="0"/>
        <pt x="179" y="677" on="0"/>
        <pt x="114" y="594" on="0"/>
        <pt x="85" y="463" on="0"/>
        <pt x="85" y="369" on="1"/>
        <pt x="85" y="189" on="0"/>
        <pt x="212" y="24" on="0"/>
        <pt x="351" y="24" on="1"/>
        <pt x="357" y="24" on="0"/>
        <pt x="380" y="25" on="0"/>
        <pt x="407" y="27" on="0"/>
        <pt x="436" y="29" on="0"/>
        <pt x="448" y="31" on="1"/>
        <pt x="448" y="-2" on="1"/>
        <pt x="425" y="-7" on="0"/>
        <pt x="386" y="-10" on="0"/>
      </contour>
      <contour>
        <pt x="283" y="787" on="1"/>
        <pt x="362" y="910" on="1"/>
        <pt x="400" y="910" on="1"/>
        <pt x="315" y="784" on="1"/>
      </contour>
    </TTGlyph>
    <TTGlyph name="Cacute.sc" xMin="48" yMin="-8" xMax="393" yMax="714">
      <contour>
        <pt x="307" y="-8" on="1"/>
        <pt x="239" y="-7" on="0"/>
        <pt x="141" y="27" on="0"/>
        <pt x="78" y="99" on="0"/>
        <pt x="48" y="211" on="0"/>
        <pt x="48" y="288" on="1"/>
        <pt x="48" y="367" on="0"/>
        <pt x="77" y="480" on="0"/>
        <pt x="139" y="551" on="0"/>
        <pt x="237" y="584" on="0"/>
        <pt x="306" y="584" on="1"/>
        <pt x="325" y="584" on="0"/>
        <pt x="369" y="580" on="0"/>
        <pt x="393" y="577" on="1"/>
        <pt x="393" y="545" on="1"/>
        <pt x="379" y="547" on="0"/>
        <pt x="333" y="551" on="0"/>
        <pt x="310" y="551" on="1"/>
        <pt x="249" y="551" on="0"/>
        <pt x="163" y="523" on="0"/>
        <pt x="109" y="460" on="0"/>
        <pt x="84" y="360" on="0"/>
        <pt x="84" y="288" on="1"/>
        <pt x="84" y="150" on="0"/>
        <pt x="190" y="25" on="0"/>
        <pt x="306" y="25" on="1"/>
        <pt x="318" y="25" on="0"/>
        <pt x="371" y="29" on="0"/>
        <pt x="393" y="31" on="1"/>
        <pt x="393" y="0" on="1"/>
        <pt x="373" y="-4" on="0"/>
        <pt x="335" y="-8" on="0"/>
      </contour>
      <contour>
        <pt x="247" y="615" on="1"/>
        <pt x="314" y="714" on="1"/>
        <pt x="351" y="714" on="1"/>
        <pt x="277" y="613" on="1"/>
      </contour>
    </TTGlyph>
    <TTGlyph name="Ccaron" xMin="49" yMin="-10" xMax="448" yMax="912">
      <contour>
        <pt x="354" y="-10" on="1"/>
        <pt x="273" y="-9" on="0"/>
        <pt x="157" y="35" on="0"/>
        <pt x="84" y="127" on="0"/>
        <pt x="49" y="270" on="0"/>
        <pt x="49" y="369" on="1"/>
        <pt x="49" y="472" on="0"/>
        <pt x="82" y="616" on="0"/>
        <pt x="155" y="707" on="0"/>
        <pt x="270" y="748" on="0"/>
        <pt x="352" y="748" on="1"/>
        <pt x="372" y="748" on="0"/>
        <pt x="421" y="745" on="0"/>
        <pt x="448" y="741" on="1"/>
        <pt x="448" y="707" on="1"/>
        <pt x="434" y="710" on="0"/>
        <pt x="383" y="714" on="0"/>
        <pt x="356" y="714" on="1"/>
        <pt x="282" y="714" on="0"/>
        <pt x="179" y="677" on="0"/>
        <pt x="114" y="594" on="0"/>
        <pt x="85" y="463" on="0"/>
        <pt x="85" y="369" on="1"/>
        <pt x="85" y="189" on="0"/>
        <pt x="212" y="24" on="0"/>
        <pt x="351" y="24" on="1"/>
        <pt x="357" y="24" on="0"/>
        <pt x="380" y="25" on="0"/>
        <pt x="407" y="27" on="0"/>
        <pt x="436" y="29" on="0"/>
        <pt x="448" y="31" on="1"/>
        <pt x="448" y="-2" on="1"/>
        <pt x="425" y="-7" on="0"/>
        <pt x="386" y="-10" on="0"/>
      </contour>
      <contour>
        <pt x="185" y="912" on="1"/>
        <pt x="306" y="840" on="1"/>
        <pt x="427" y="912" on="1"/>
        <pt x="427" y="871" on="1"/>
        <pt x="306" y="799" on="1"/>
        <pt x="185" y="871" on="1"/>
      </contour>
    </TTGlyph>
    <TTGlyph name="Ccaron.sc" xMin="48" yMin="-8" xMax="393" yMax="715">
      <contour>
        <pt x="307" y="-8" on="1"/>
        <pt x="239" y="-7" on="0"/>
        <pt x="141" y="27" on="0"/>
        <pt x="78" y="99" on="0"/>
        <pt x="48" y="211" on="0"/>
        <pt x="48" y="288" on="1"/>
        <pt x="48" y="367" on="0"/>
        <pt x="77" y="480" on="0"/>
        <pt x="139" y="551" on="0"/>
        <pt x="237" y="584" on="0"/>
        <pt x="306" y="584" on="1"/>
        <pt x="325" y="584" on="0"/>
        <pt x="369" y="580" on="0"/>
        <pt x="393" y="577" on="1"/>
        <pt x="393" y="545" on="1"/>
        <pt x="379" y="547" on="0"/>
        <pt x="333" y="551" on="0"/>
        <pt x="310" y="551" on="1"/>
        <pt x="249" y="551" on="0"/>
        <pt x="163" y="523" on="0"/>
        <pt x="109" y="460" on="0"/>
        <pt x="84" y="360" on="0"/>
        <pt x="84" y="288" on="1"/>
        <pt x="84" y="150" on="0"/>
        <pt x="190" y="25" on="0"/>
        <pt x="306" y="25" on="1"/>
        <pt x="318" y="25" on="0"/>
        <pt x="371" y="29" on="0"/>
        <pt x="393" y="31" on="1"/>
        <pt x="393" y="0" on="1"/>
        <pt x="373" y="-4" on="0"/>
        <pt x="335" y="-8" on="0"/>
      </contour>
      <contour>
        <pt x="163" y="715" on="1"/>
        <pt x="268" y="659" on="1"/>
        <pt x="374" y="715" on="1"/>
        <pt x="374" y="680" on="1"/>
        <pt x="268" y="623" on="1"/>
        <pt x="163" y="680" on="1"/>
      </contour>
    </TTGlyph>
    <TTGlyph name="Ccedilla" xMin="49" yMin="-220" xMax="448" yMax="748">
      <contour>
        <pt x="262" y="-220" on="1"/>
        <pt x="247" y="-220" on="0"/>
        <pt x="217" y="-215" on="0"/>
        <pt x="203" y="-210" on="1"/>
        <pt x="203" y="-174" on="1"/>
        <pt x="231" y="-186" on="0"/>
        <pt x="262" y="-186" on="1"/>
        <pt x="332" y="-186" on="0"/>
        <pt x="332" y="-111" on="1"/>
        <pt x="332" y="-87" on="0"/>
        <pt x="316" y="-32" on="0"/>
        <pt x="303" y="-7" on="1"/>
        <pt x="169" y="7" on="0"/>
        <pt x="49" y="187" on="0"/>
        <pt x="49" y="369" on="1"/>
        <pt x="49" y="472" on="0"/>
        <pt x="82" y="616" on="0"/>
        <pt x="155" y="707" on="0"/>
        <pt x="270" y="748" on="0"/>
        <pt x="352" y="748" on="1"/>
        <pt x="372" y="748" on="0"/>
        <pt x="421" y="745" on="0"/>
        <pt x="448" y="741" on="1"/>
        <pt x="448" y="707" on="1"/>
        <pt x="434" y="710" on="0"/>
        <pt x="383" y="714" on="0"/>
        <pt x="356" y="714" on="1"/>
        <pt x="282" y="714" on="0"/>
        <pt x="179" y="677" on="0"/>
        <pt x="114" y="594" on="0"/>
        <pt x="85" y="463" on="0"/>
        <pt x="85" y="369" on="1"/>
        <pt x="85" y="189" on="0"/>
        <pt x="212" y="24" on="0"/>
        <pt x="351" y="24" on="1"/>
        <pt x="357" y="24" on="0"/>
        <pt x="380" y="25" on="0"/>
        <pt x="407" y="27" on="0"/>
        <pt x="436" y="29" on="0"/>
        <pt x="448" y="31" on="1"/>
        <pt x="448" y="-2" on="1"/>
        <pt x="425" y="-7" on="0"/>
        <pt x="386" y="-10" on="0"/>
        <pt x="354" y="-10" on="1"/>
        <pt x="350" y="-10" on="0"/>
        <pt x="344" y="-9" on="0"/>
        <pt x="341" y="-9" on="1"/>
        <pt x="366" y="-65" on="0"/>
        <pt x="366" y="-111" on="1"/>
        <pt x="366" y="-220" on="0"/>
      </contour>
    </TTGlyph>
    <TTGlyph name="Ccedilla.sc" xMin="48" yMin="-172" xMax="393" yMax="584">
      <contour>
        <pt x="231" y="-172" on="1"/>
        <pt x="206" y="-172" on="0"/>
        <pt x="179" y="-164" on="1"/>
        <pt x="179" y="-132" on="1"/>
        <pt x="204" y="-141" on="0"/>
        <pt x="230" y="-141" on="1"/>
        <pt x="289" y="-141" on="0"/>
        <pt x="289" y="-85" on="1"/>
        <pt x="289" y="-67" on="0"/>
        <pt x="276" y="-25" on="0"/>
        <pt x="265" y="-5" on="1"/>
        <pt x="208" y="0" on="0"/>
        <pt x="126" y="40" on="0"/>
        <pt x="73" y="111" on="0"/>
        <pt x="48" y="217" on="0"/>
        <pt x="48" y="288" on="1"/>
        <pt x="48" y="367" on="0"/>
        <pt x="77" y="480" on="0"/>
        <pt x="139" y="551" on="0"/>
        <pt x="237" y="584" on="0"/>
        <pt x="306" y="584" on="1"/>
        <pt x="325" y="584" on="0"/>
        <pt x="369" y="580" on="0"/>
        <pt x="393" y="577" on="1"/>
        <pt x="393" y="545" on="1"/>
        <pt x="379" y="547" on="0"/>
        <pt x="333" y="551" on="0"/>
        <pt x="310" y="551" on="1"/>
        <pt x="249" y="551" on="0"/>
        <pt x="163" y="523" on="0"/>
        <pt x="109" y="460" on="0"/>
        <pt x="84" y="360" on="0"/>
        <pt x="84" y="288" on="1"/>
        <pt x="84" y="150" on="0"/>
        <pt x="190" y="25" on="0"/>
        <pt x="306" y="25" on="1"/>
        <pt x="318" y="25" on="0"/>
        <pt x="371" y="29" on="0"/>
        <pt x="393" y="31" on="1"/>
        <pt x="393" y="0" on="1"/>
        <pt x="370" y="-5" on="0"/>
        <pt x="322" y="-9" on="0"/>
        <pt x="299" y="-7" on="1"/>
        <pt x="321" y="-51" on="0"/>
        <pt x="321" y="-86" on="1"/>
        <pt x="321" y="-172" on="0"/>
      </contour>
    </TTGlyph>
    <TTGlyph name="Ccircumflex" xMin="49" yMin="-10" xMax="448" yMax="932">
      <contour>
        <pt x="354" y="-10" on="1"/>
        <pt x="273" y="-9" on="0"/>
        <pt x="157" y="35" on="0"/>
        <pt x="84" y="127" on="0"/>
        <pt x="49" y="270" on="0"/>
        <pt x="49" y="369" on="1"/>
        <pt x="49" y="472" on="0"/>
        <pt x="82" y="616" on="0"/>
        <pt x="155" y="707" on="0"/>
        <pt x="270" y="748" on="0"/>
        <pt x="352" y="748" on="1"/>
        <pt x="372" y="748" on="0"/>
        <pt x="421" y="745" on="0"/>
        <pt x="448" y="741" on="1"/>
        <pt x="448" y="707" on="1"/>
        <pt x="434" y="710" on="0"/>
        <pt x="383" y="714" on="0"/>
        <pt x="356" y="714" on="1"/>
        <pt x="282" y="714" on="0"/>
        <pt x="179" y="677" on="0"/>
        <pt x="114" y="594" on="0"/>
        <pt x="85" y="463" on="0"/>
        <pt x="85" y="369" on="1"/>
        <pt x="85" y="189" on="0"/>
        <pt x="212" y="24" on="0"/>
        <pt x="351" y="24" on="1"/>
        <pt x="357" y="24" on="0"/>
        <pt x="380" y="25" on="0"/>
        <pt x="407" y="27" on="0"/>
        <pt x="436" y="29" on="0"/>
        <pt x="448" y="31" on="1"/>
        <pt x="448" y="-2" on="1"/>
        <pt x="425" y="-7" on="0"/>
        <pt x="386" y="-10" on="0"/>
      </contour>
      <contour>
        <pt x="181" y="860" on="1"/>
        <pt x="302" y="932" on="1"/>
        <pt x="423" y="860" on="1"/>
        <pt x="423" y="819" on="1"/>
        <pt x="302" y="891" on="1"/>
        <pt x="181" y="819" on="1"/>
      </contour>
    </TTGlyph>
    <TTGlyph name="Ccircumflex.sc" xMin="48" yMin="-8" xMax="393" yMax="729">
      <contour>
        <pt x="307" y="-8" on="1"/>
        <pt x="239" y="-7" on="0"/>
        <pt x="141" y="27" on="0"/>
        <pt x="78" y="99" on="0"/>
        <pt x="48" y="211" on="0"/>
        <pt x="48" y="288" on="1"/>
        <pt x="48" y="367" on="0"/>
        <pt x="77" y="480" on="0"/>
        <pt x="139" y="551" on="0"/>
        <pt x="237" y="584" on="0"/>
        <pt x="306" y="584" on="1"/>
        <pt x="325" y="584" on="0"/>
        <pt x="369" y="580" on="0"/>
        <pt x="393" y="577" on="1"/>
        <pt x="393" y="545" on="1"/>
        <pt x="379" y="547" on="0"/>
        <pt x="333" y="551" on="0"/>
        <pt x="310" y="551" on="1"/>
        <pt x="249" y="551" on="0"/>
        <pt x="163" y="523" on="0"/>
        <pt x="109" y="460" on="0"/>
        <pt x="84" y="360" on="0"/>
        <pt x="84" y="288" on="1"/>
        <pt x="84" y="150" on="0"/>
        <pt x="190" y="25" on="0"/>
        <pt x="306" y="25" on="1"/>
        <pt x="318" y="25" on="0"/>
        <pt x="371" y="29" on="0"/>
        <pt x="393" y="31" on="1"/>
        <pt x="393" y="0" on="1"/>
        <pt x="373" y="-4" on="0"/>
        <pt x="335" y="-8" on="0"/>
      </contour>
      <contour>
        <pt x="159" y="673" on="1"/>
        <pt x="265" y="729" on="1"/>
        <pt x="371" y="673" on="1"/>
        <pt x="371" y="637" on="1"/>
        <pt x="265" y="693" on="1"/>
        <pt x="159" y="637" on="1"/>
      </contour>
    </TTGlyph>
    <TTGlyph name="Cdotaccent" xMin="49" yMin="-10" xMax="448" yMax="858">
      <contour>
        <pt x="354" y="-10" on="1"/>
        <pt x="273" y="-9" on="0"/>
        <pt x="157" y="35" on="0"/>
        <pt x="84" y="127" on="0"/>
        <pt x="49" y="270" on="0"/>
        <pt x="49" y="369" on="1"/>
        <pt x="49" y="472" on="0"/>
        <pt x="82" y="616" on="0"/>
        <pt x="155" y="707" on="0"/>
        <pt x="270" y="748" on="0"/>
        <pt x="352" y="748" on="1"/>
        <pt x="372" y="748" on="0"/>
        <pt x="421" y="745" on="0"/>
        <pt x="448" y="741" on="1"/>
        <pt x="448" y="707" on="1"/>
        <pt x="434" y="710" on="0"/>
        <pt x="383" y="714" on="0"/>
        <pt x="356" y="714" on="1"/>
        <pt x="282" y="714" on="0"/>
        <pt x="179" y="677" on="0"/>
        <pt x="114" y="594" on="0"/>
        <pt x="85" y="463" on="0"/>
        <pt x="85" y="369" on="1"/>
        <pt x="85" y="189" on="0"/>
        <pt x="212" y="24" on="0"/>
        <pt x="351" y="24" on="1"/>
        <pt x="357" y="24" on="0"/>
        <pt x="380" y="25" on="0"/>
        <pt x="407" y="27" on="0"/>
        <pt x="436" y="29" on="0"/>
        <pt x="448" y="31" on="1"/>
        <pt x="448" y="-2" on="1"/>
        <pt x="425" y="-7" on="0"/>
        <pt x="386" y="-10" on="0"/>
      </contour>
      <contour>
        <pt x="302" y="799" on="1"/>
        <pt x="290" y="799" on="0"/>
        <pt x="273" y="813" on="0"/>
        <pt x="273" y="828" on="1"/>
        <pt x="273" y="844" on="0"/>
        <pt x="290" y="858" on="0"/>
        <pt x="302" y="858" on="1"/>
        <pt x="314" y="858" on="0"/>
        <pt x="332" y="843" on="0"/>
        <pt x="332" y="828" on="1"/>
        <pt x="332" y="813" on="0"/>
        <pt x="314" y="799" on="0"/>
      </contour>
    </TTGlyph>
    <TTGlyph name="Cdotaccent.sc" xMin="48" yMin="-8" xMax="393" yMax="677">
      <contour>
        <pt x="307" y="-8" on="1"/>
        <pt x="239" y="-7" on="0"/>
        <pt x="141" y="27" on="0"/>
        <pt x="78" y="99" on="0"/>
        <pt x="48" y="211" on="0"/>
        <pt x="48" y="288" on="1"/>
        <pt x="48" y="367" on="0"/>
        <pt x="77" y="480" on="0"/>
        <pt x="139" y="551" on="0"/>
        <pt x="237" y="584" on="0"/>
        <pt x="306" y="584" on="1"/>
        <pt x="325" y="584" on="0"/>
        <pt x="369" y="580" on="0"/>
        <pt x="393" y="577" on="1"/>
        <pt x="393" y="545" on="1"/>
        <pt x="379" y="547" on="0"/>
        <pt x="333" y="551" on="0"/>
        <pt x="310" y="551" on="1"/>
        <pt x="249" y="551" on="0"/>
        <pt x="163" y="523" on="0"/>
        <pt x="109" y="460" on="0"/>
        <pt x="84" y="360" on="0"/>
        <pt x="84" y="288" on="1"/>
        <pt x="84" y="150" on="0"/>
        <pt x="190" y="25" on="0"/>
        <pt x="306" y="25" on="1"/>
        <pt x="318" y="25" on="0"/>
        <pt x="371" y="29" on="0"/>
        <pt x="393" y="31" on="1"/>
        <pt x="393" y="0" on="1"/>
        <pt x="373" y="-4" on="0"/>
        <pt x="335" y="-8" on="0"/>
      </contour>
      <contour>
        <pt x="265" y="624" on="1"/>
        <pt x="253" y="624" on="0"/>
        <pt x="238" y="637" on="0"/>
        <pt x="238" y="651" on="1"/>
        <pt x="238" y="665" on="0"/>
        <pt x="253" y="677" on="0"/>
        <pt x="265" y="677" on="1"/>
        <pt x="276" y="677" on="0"/>
        <pt x="293" y="665" on="0"/>
        <pt x="293" y="651" on="1"/>
        <pt x="293" y="637" on="0"/>
        <pt x="276" y="624" on="0"/>
      </contour>
    </TTGlyph>
    <TTGlyph name="D" xMin="81" yMin="-18" xMax="513" yMax="750">
      <contour>
        <pt x="182" y="-18" on="1"/>
        <pt x="156" y="-18" on="0"/>
        <pt x="107" y="-15" on="0"/>
        <pt x="81" y="-11" on="1"/>
        <pt x="81" y="732" on="1"/>
        <pt x="125" y="741" on="0"/>
        <pt x="195" y="750" on="0"/>
        <pt x="225" y="750" on="1"/>
        <pt x="371" y="750" on="0"/>
        <pt x="513" y="562" on="0"/>
        <pt x="513" y="369" on="1"/>
        <pt x="513" y="169" on="0"/>
        <pt x="353" y="-18" on="0"/>
      </contour>
      <contour>
        <pt x="185" y="17" on="1"/>
        <pt x="477" y="17" on="0"/>
        <pt x="477" y="369" on="1"/>
        <pt x="477" y="547" on="0"/>
        <pt x="352" y="716" on="0"/>
        <pt x="220" y="716" on="1"/>
        <pt x="194" y="716" on="0"/>
        <pt x="142" y="711" on="0"/>
        <pt x="115" y="706" on="1"/>
        <pt x="115" y="22" on="1"/>
        <pt x="135" y="20" on="0"/>
        <pt x="170" y="17" on="0"/>
      </contour>
    </TTGlyph>
    <TTGlyph name="D.sc" xMin="76" yMin="-13" xMax="454" yMax="585">
      <contour>
        <pt x="169" y="-13" on="1"/>
        <pt x="145" y="-13" on="0"/>
        <pt x="99" y="-11" on="0"/>
        <pt x="76" y="-7" on="1"/>
        <pt x="76" y="572" on="1"/>
        <pt x="114" y="578" on="0"/>
        <pt x="176" y="585" on="0"/>
        <pt x="202" y="585" on="1"/>
        <pt x="331" y="585" on="0"/>
        <pt x="454" y="440" on="0"/>
        <pt x="454" y="288" on="1"/>
        <pt x="454" y="132" on="0"/>
        <pt x="316" y="-13" on="0"/>
      </contour>
      <contour>
        <pt x="173" y="20" on="1"/>
        <pt x="418" y="20" on="0"/>
        <pt x="418" y="288" on="1"/>
        <pt x="418" y="426" on="0"/>
        <pt x="313" y="553" on="0"/>
        <pt x="199" y="553" on="1"/>
        <pt x="178" y="553" on="0"/>
        <pt x="133" y="549" on="0"/>
        <pt x="110" y="545" on="1"/>
        <pt x="110" y="24" on="1"/>
        <pt x="129" y="22" on="0"/>
        <pt x="159" y="20" on="0"/>
      </contour>
    </TTGlyph>
    <TTGlyph name="Dcaron" xMin="81" yMin="-18" xMax="513" yMax="912">
      <contour>
        <pt x="182" y="-18" on="1"/>
        <pt x="156" y="-18" on="0"/>
        <pt x="107" y="-15" on="0"/>
        <pt x="81" y="-11" on="1"/>
        <pt x="81" y="732" on="1"/>
        <pt x="125" y="741" on="0"/>
        <pt x="195" y="750" on="0"/>
        <pt x="225" y="750" on="1"/>
        <pt x="371" y="750" on="0"/>
        <pt x="513" y="562" on="0"/>
        <pt x="513" y="369" on="1"/>
        <pt x="513" y="169" on="0"/>
        <pt x="353" y="-18" on="0"/>
      </contour>
      <contour>
        <pt x="185" y="17" on="1"/>
        <pt x="477" y="17" on="0"/>
        <pt x="477" y="369" on="1"/>
        <pt x="477" y="547" on="0"/>
        <pt x="352" y="716" on="0"/>
        <pt x="220" y="716" on="1"/>
        <pt x="194" y="716" on="0"/>
        <pt x="142" y="711" on="0"/>
        <pt x="115" y="706" on="1"/>
        <pt x="115" y="22" on="1"/>
        <pt x="135" y="20" on="0"/>
        <pt x="170" y="17" on="0"/>
      </contour>
      <contour>
        <pt x="132" y="912" on="1"/>
        <pt x="253" y="840" on="1"/>
        <pt x="374" y="912" on="1"/>
        <pt x="374" y="871" on="1"/>
        <pt x="253" y="799" on="1"/>
        <pt x="132" y="871" on="1"/>
      </contour>
    </TTGlyph>
    <TTGlyph name="Dcaron.sc" xMin="76" yMin="-13" xMax="454" yMax="715">
      <contour>
        <pt x="169" y="-13" on="1"/>
        <pt x="145" y="-13" on="0"/>
        <pt x="99" y="-11" on="0"/>
        <pt x="76" y="-7" on="1"/>
        <pt x="76" y="572" on="1"/>
        <pt x="114" y="578" on="0"/>
        <pt x="176" y="585" on="0"/>
        <pt x="202" y="585" on="1"/>
        <pt x="331" y="585" on="0"/>
        <pt x="454" y="440" on="0"/>
        <pt x="454" y="288" on="1"/>
        <pt x="454" y="132" on="0"/>
        <pt x="316" y="-13" on="0"/>
      </contour>
      <contour>
        <pt x="173" y="20" on="1"/>
        <pt x="418" y="20" on="0"/>
        <pt x="418" y="288" on="1"/>
        <pt x="418" y="426" on="0"/>
        <pt x="313" y="553" on="0"/>
        <pt x="199" y="553" on="1"/>
        <pt x="178" y="553" on="0"/>
        <pt x="133" y="549" on="0"/>
        <pt x="110" y="545" on="1"/>
        <pt x="110" y="24" on="1"/>
        <pt x="129" y="22" on="0"/>
        <pt x="159" y="20" on="0"/>
      </contour>
      <contour>
        <pt x="122" y="680" on="1"/>
        <pt x="122" y="715" on="1"/>
        <pt x="228" y="659" on="1"/>
        <pt x="333" y="715" on="1"/>
        <pt x="333" y="680" on="1"/>
        <pt x="228" y="623" on="1"/>
      </contour>
    </TTGlyph>
    <TTGlyph name="Dcroat" xMin="0" yMin="-18" xMax="522" yMax="750">
      <contour>
        <pt x="0" y="385" on="1"/>
        <pt x="90" y="385" on="1"/>
        <pt x="90" y="732" on="1"/>
        <pt x="134" y="741" on="0"/>
        <pt x="204" y="750" on="0"/>
        <pt x="234" y="750" on="1"/>
        <pt x="380" y="750" on="0"/>
        <pt x="522" y="562" on="0"/>
        <pt x="522" y="369" on="1"/>
        <pt x="522" y="169" on="0"/>
        <pt x="362" y="-18" on="0"/>
        <pt x="191" y="-18" on="1"/>
        <pt x="165" y="-18" on="0"/>
        <pt x="116" y="-15" on="0"/>
        <pt x="90" y="-11" on="1"/>
        <pt x="90" y="351" on="1"/>
        <pt x="0" y="351" on="1"/>
      </contour>
      <contour>
        <pt x="194" y="17" on="1"/>
        <pt x="486" y="17" on="0"/>
        <pt x="486" y="369" on="1"/>
        <pt x="486" y="547" on="0"/>
        <pt x="361" y="716" on="0"/>
        <pt x="229" y="716" on="1"/>
        <pt x="203" y="716" on="0"/>
        <pt x="151" y="711" on="0"/>
        <pt x="124" y="706" on="1"/>
        <pt x="124" y="385" on="1"/>
        <pt x="287" y="385" on="1"/>
        <pt x="287" y="351" on="1"/>
        <pt x="124" y="351" on="1"/>
        <pt x="124" y="22" on="1"/>
        <pt x="144" y="20" on="0"/>
        <pt x="179" y="17" on="0"/>
      </contour>
    </TTGlyph>
    <TTGlyph name="Dcroat.sc" xMin="6" yMin="-13" xMax="460" yMax="585">
      <contour>
        <pt x="6" y="303" on="1"/>
        <pt x="83" y="303" on="1"/>
        <pt x="83" y="572" on="1"/>
        <pt x="120" y="578" on="0"/>
        <pt x="183" y="585" on="0"/>
        <pt x="209" y="585" on="1"/>
        <pt x="338" y="585" on="0"/>
        <pt x="460" y="440" on="0"/>
        <pt x="460" y="288" on="1"/>
        <pt x="460" y="132" on="0"/>
        <pt x="323" y="-13" on="0"/>
        <pt x="175" y="-13" on="1"/>
        <pt x="152" y="-13" on="0"/>
        <pt x="106" y="-11" on="0"/>
        <pt x="83" y="-7" on="1"/>
        <pt x="83" y="271" on="1"/>
        <pt x="6" y="271" on="1"/>
      </contour>
      <contour>
        <pt x="180" y="20" on="1"/>
        <pt x="425" y="20" on="0"/>
        <pt x="425" y="288" on="1"/>
        <pt x="425" y="426" on="0"/>
        <pt x="319" y="553" on="0"/>
        <pt x="206" y="553" on="1"/>
        <pt x="184" y="553" on="0"/>
        <pt x="140" y="549" on="0"/>
        <pt x="117" y="545" on="1"/>
        <pt x="117" y="303" on="1"/>
        <pt x="255" y="303" on="1"/>
        <pt x="255" y="271" on="1"/>
        <pt x="117" y="271" on="1"/>
        <pt x="117" y="24" on="1"/>
        <pt x="135" y="22" on="0"/>
        <pt x="166" y="20" on="0"/>
      </contour>
    </TTGlyph>
    <TTGlyph name="Ddotbelow" xMin="81" yMin="-160" xMax="513" yMax="750">
      <contour>
        <pt x="182" y="-18" on="1"/>
        <pt x="156" y="-18" on="0"/>
        <pt x="107" y="-15" on="0"/>
        <pt x="81" y="-11" on="1"/>
        <pt x="81" y="732" on="1"/>
        <pt x="125" y="741" on="0"/>
        <pt x="195" y="750" on="0"/>
        <pt x="225" y="750" on="1"/>
        <pt x="371" y="750" on="0"/>
        <pt x="513" y="562" on="0"/>
        <pt x="513" y="369" on="1"/>
        <pt x="513" y="169" on="0"/>
        <pt x="353" y="-18" on="0"/>
      </contour>
      <contour>
        <pt x="185" y="17" on="1"/>
        <pt x="477" y="17" on="0"/>
        <pt x="477" y="369" on="1"/>
        <pt x="477" y="547" on="0"/>
        <pt x="352" y="716" on="0"/>
        <pt x="220" y="716" on="1"/>
        <pt x="194" y="716" on="0"/>
        <pt x="142" y="711" on="0"/>
        <pt x="115" y="706" on="1"/>
        <pt x="115" y="22" on="1"/>
        <pt x="135" y="20" on="0"/>
        <pt x="170" y="17" on="0"/>
      </contour>
      <contour>
        <pt x="254" y="-160" on="1"/>
        <pt x="238" y="-160" on="0"/>
        <pt x="219" y="-144" on="0"/>
        <pt x="219" y="-125" on="1"/>
        <pt x="219" y="-105" on="0"/>
        <pt x="238" y="-90" on="0"/>
        <pt x="254" y="-90" on="1"/>
        <pt x="269" y="-90" on="0"/>
        <pt x="289" y="-106" on="0"/>
        <pt x="289" y="-125" on="1"/>
        <pt x="289" y="-144" on="0"/>
        <pt x="269" y="-160" on="0"/>
      </contour>
    </TTGlyph>
    <TTGlyph name="Ddotbelow.sc" xMin="76" yMin="-128" xMax="454" yMax="585">
      <contour>
        <pt x="169" y="-13" on="1"/>
        <pt x="145" y="-13" on="0"/>
        <pt x="99" y="-11" on="0"/>
        <pt x="76" y="-7" on="1"/>
        <pt x="76" y="572" on="1"/>
        <pt x="114" y="578" on="0"/>
        <pt x="176" y="585" on="0"/>
        <pt x="202" y="585" on="1"/>
        <pt x="331" y="585" on="0"/>
        <pt x="454" y="440" on="0"/>
        <pt x="454" y="288" on="1"/>
        <pt x="454" y="132" on="0"/>
        <pt x="316" y="-13" on="0"/>
      </contour>
      <contour>
        <pt x="173" y="20" on="1"/>
        <pt x="418" y="20" on="0"/>
        <pt x="418" y="288" on="1"/>
        <pt x="418" y="426" on="0"/>
        <pt x="313" y="553" on="0"/>
        <pt x="199" y="553" on="1"/>
        <pt x="178" y="553" on="0"/>
        <pt x="133" y="549" on="0"/>
        <pt x="110" y="545" on="1"/>
        <pt x="110" y="24" on="1"/>
        <pt x="129" y="22" on="0"/>
        <pt x="159" y="20" on="0"/>
      </contour>
      <contour>
        <pt x="229" y="-128" on="1"/>
        <pt x="198" y="-128" on="0"/>
        <pt x="198" y="-99" on="1"/>
        <pt x="198" y="-82" on="0"/>
        <pt x="215" y="-69" on="0"/>
        <pt x="229" y="-69" on="1"/>
        <pt x="243" y="-69" on="0"/>
        <pt x="260" y="-83" on="0"/>
        <pt x="260" y="-99" on="1"/>
        <pt x="260" y="-115" on="0"/>
        <pt x="243" y="-128" on="0"/>
      </contour>
    </TTGlyph>
    <TTGlyph name="Delta" xMin="21" yMin="0" xMax="524" yMax="740">
      <contour>
        <pt x="250" y="740" on="1"/>
        <pt x="295" y="740" on="1"/>
        <pt x="524" y="0" on="1"/>
        <pt x="21" y="0" on="1"/>
      </contour>
      <contour>
        <pt x="477" y="34" on="1"/>
        <pt x="272" y="696" on="1"/>
        <pt x="67" y="34" on="1"/>
      </contour>
    </TTGlyph>
    <TTGlyph name="E" xMin="81" yMin="0" xMax="448" yMax="740">
      <contour>
        <pt x="81" y="740" on="1"/>
        <pt x="439" y="740" on="1"/>
        <pt x="439" y="706" on="1"/>
        <pt x="115" y="706" on="1"/>
        <pt x="115" y="393" on="1"/>
        <pt x="406" y="393" on="1"/>
        <pt x="406" y="359" on="1"/>
        <pt x="115" y="359" on="1"/>
        <pt x="115" y="34" on="1"/>
        <pt x="448" y="34" on="1"/>
        <pt x="448" y="0" on="1"/>
        <pt x="81" y="0" on="1"/>
      </contour>
    </TTGlyph>
    <TTGlyph name="E.sc" xMin="77" yMin="0" xMax="396" yMax="577">
      <contour>
        <pt x="77" y="577" on="1"/>
        <pt x="389" y="577" on="1"/>
        <pt x="389" y="545" on="1"/>
        <pt x="111" y="545" on="1"/>
        <pt x="111" y="309" on="1"/>
        <pt x="361" y="309" on="1"/>
        <pt x="361" y="277" on="1"/>
        <pt x="111" y="277" on="1"/>
        <pt x="111" y="33" on="1"/>
        <pt x="396" y="33" on="1"/>
        <pt x="396" y="0" on="1"/>
        <pt x="77" y="0" on="1"/>
      </contour>
    </TTGlyph>
    <TTGlyph name="Eacute" xMin="81" yMin="0" xMax="448" yMax="910">
      <contour>
        <pt x="81" y="740" on="1"/>
        <pt x="439" y="740" on="1"/>
        <pt x="439" y="706" on="1"/>
        <pt x="115" y="706" on="1"/>
        <pt x="115" y="393" on="1"/>
        <pt x="406" y="393" on="1"/>
        <pt x="406" y="359" on="1"/>
        <pt x="115" y="359" on="1"/>
        <pt x="115" y="34" on="1"/>
        <pt x="448" y="34" on="1"/>
        <pt x="448" y="0" on="1"/>
        <pt x="81" y="0" on="1"/>
      </contour>
      <contour>
        <pt x="238" y="787" on="1"/>
        <pt x="317" y="910" on="1"/>
        <pt x="355" y="910" on="1"/>
        <pt x="270" y="784" on="1"/>
      </contour>
    </TTGlyph>
    <TTGlyph name="Eacute.sc" xMin="77" yMin="0" xMax="396" yMax="714">
      <contour>
        <pt x="77" y="577" on="1"/>
        <pt x="389" y="577" on="1"/>
        <pt x="389" y="545" on="1"/>
        <pt x="111" y="545" on="1"/>
        <pt x="111" y="309" on="1"/>
        <pt x="361" y="309" on="1"/>
        <pt x="361" y="277" on="1"/>
        <pt x="111" y="277" on="1"/>
        <pt x="111" y="33" on="1"/>
        <pt x="396" y="33" on="1"/>
        <pt x="396" y="0" on="1"/>
        <pt x="77" y="0" on="1"/>
      </contour>
      <contour>
        <pt x="213" y="615" on="1"/>
        <pt x="279" y="714" on="1"/>
        <pt x="317" y="714" on="1"/>
        <pt x="243" y="613" on="1"/>
      </contour>
    </TTGlyph>
    <TTGlyph name="Ebreve" xMin="81" yMin="0" xMax="448" yMax="948">
      <contour>
        <pt x="81" y="740" on="1"/>
        <pt x="439" y="740" on="1"/>
        <pt x="439" y="706" on="1"/>
        <pt x="115" y="706" on="1"/>
        <pt x="115" y="393" on="1"/>
        <pt x="406" y="393" on="1"/>
        <pt x="406" y="359" on="1"/>
        <pt x="115" y="359" on="1"/>
        <pt x="115" y="34" on="1"/>
        <pt x="448" y="34" on="1"/>
        <pt x="448" y="0" on="1"/>
        <pt x="81" y="0" on="1"/>
      </contour>
      <contour>
        <pt x="259" y="816" on="1"/>
        <pt x="196" y="816" on="0"/>
        <pt x="124" y="886" on="0"/>
        <pt x="124" y="948" on="1"/>
        <pt x="158" y="948" on="1"/>
        <pt x="158" y="902" on="0"/>
        <pt x="211" y="850" on="0"/>
        <pt x="259" y="850" on="1"/>
        <pt x="307" y="850" on="0"/>
        <pt x="360" y="902" on="0"/>
        <pt x="360" y="948" on="1"/>
        <pt x="394" y="948" on="1"/>
        <pt x="394" y="886" on="0"/>
        <pt x="322" y="816" on="0"/>
      </contour>
    </TTGlyph>
    <TTGlyph name="Ebreve.sc" xMin="77" yMin="0" xMax="396" yMax="741">
      <contour>
        <pt x="232" y="635" on="1"/>
        <pt x="177" y="635" on="0"/>
        <pt x="115" y="691" on="0"/>
        <pt x="115" y="741" on="1"/>
        <pt x="147" y="741" on="1"/>
        <pt x="147" y="704" on="0"/>
        <pt x="192" y="664" on="0"/>
        <pt x="232" y="664" on="1"/>
        <pt x="273" y="664" on="0"/>
        <pt x="318" y="704" on="0"/>
        <pt x="318" y="741" on="1"/>
        <pt x="350" y="741" on="1"/>
        <pt x="350" y="691" on="0"/>
        <pt x="288" y="635" on="0"/>
      </contour>
      <contour>
        <pt x="77" y="577" on="1"/>
        <pt x="389" y="577" on="1"/>
        <pt x="389" y="545" on="1"/>
        <pt x="111" y="545" on="1"/>
        <pt x="111" y="309" on="1"/>
        <pt x="361" y="309" on="1"/>
        <pt x="361" y="277" on="1"/>
        <pt x="111" y="277" on="1"/>
        <pt x="111" y="33" on="1"/>
        <pt x="396" y="33" on="1"/>
        <pt x="396" y="0" on="1"/>
        <pt x="77" y="0" on="1"/>
      </contour>
    </TTGlyph>
    <TTGlyph name="Ecaron" xMin="81" yMin="0" xMax="448" yMax="912">
      <contour>
        <pt x="81" y="740" on="1"/>
        <pt x="439" y="740" on="1"/>
        <pt x="439" y="706" on="1"/>
        <pt x="115" y="706" on="1"/>
        <pt x="115" y="393" on="1"/>
        <pt x="406" y="393" on="1"/>
        <pt x="406" y="359" on="1"/>
        <pt x="115" y="359" on="1"/>
        <pt x="115" y="34" on="1"/>
        <pt x="448" y="34" on="1"/>
        <pt x="448" y="0" on="1"/>
        <pt x="81" y="0" on="1"/>
      </contour>
      <contour>
        <pt x="140" y="912" on="1"/>
        <pt x="261" y="840" on="1"/>
        <pt x="382" y="912" on="1"/>
        <pt x="382" y="871" on="1"/>
        <pt x="261" y="799" on="1"/>
        <pt x="140" y="871" on="1"/>
      </contour>
    </TTGlyph>
    <TTGlyph name="Ecaron.sc" xMin="77" yMin="0" xMax="396" yMax="715">
      <contour>
        <pt x="77" y="577" on="1"/>
        <pt x="389" y="577" on="1"/>
        <pt x="389" y="545" on="1"/>
        <pt x="111" y="545" on="1"/>
        <pt x="111" y="309" on="1"/>
        <pt x="361" y="309" on="1"/>
        <pt x="361" y="277" on="1"/>
        <pt x="111" y="277" on="1"/>
        <pt x="111" y="33" on="1"/>
        <pt x="396" y="33" on="1"/>
        <pt x="396" y="0" on="1"/>
        <pt x="77" y="0" on="1"/>
      </contour>
      <contour>
        <pt x="129" y="680" on="1"/>
        <pt x="129" y="715" on="1"/>
        <pt x="234" y="659" on="1"/>
        <pt x="340" y="715" on="1"/>
        <pt x="340" y="680" on="1"/>
        <pt x="234" y="623" on="1"/>
      </contour>
    </TTGlyph>
    <TTGlyph name="Ecircumflex" xMin="81" yMin="0" xMax="448" yMax="932">
      <contour>
        <pt x="81" y="740" on="1"/>
        <pt x="439" y="740" on="1"/>
        <pt x="439" y="706" on="1"/>
        <pt x="115" y="706" on="1"/>
        <pt x="115" y="393" on="1"/>
        <pt x="406" y="393" on="1"/>
        <pt x="406" y="359" on="1"/>
        <pt x="115" y="359" on="1"/>
        <pt x="115" y="34" on="1"/>
        <pt x="448" y="34" on="1"/>
        <pt x="448" y="0" on="1"/>
        <pt x="81" y="0" on="1"/>
      </contour>
      <contour>
        <pt x="136" y="860" on="1"/>
        <pt x="257" y="932" on="1"/>
        <pt x="378" y="860" on="1"/>
        <pt x="378" y="819" on="1"/>
        <pt x="257" y="891" on="1"/>
        <pt x="136" y="819" on="1"/>
      </contour>
    </TTGlyph>
    <TTGlyph name="Ecircumflex.sc" xMin="77" yMin="0" xMax="396" yMax="729">
      <contour>
        <pt x="77" y="577" on="1"/>
        <pt x="389" y="577" on="1"/>
        <pt x="389" y="545" on="1"/>
        <pt x="111" y="545" on="1"/>
        <pt x="111" y="309" on="1"/>
        <pt x="361" y="309" on="1"/>
        <pt x="361" y="277" on="1"/>
        <pt x="111" y="277" on="1"/>
        <pt x="111" y="33" on="1"/>
        <pt x="396" y="33" on="1"/>
        <pt x="396" y="0" on="1"/>
        <pt x="77" y="0" on="1"/>
      </contour>
      <contour>
        <pt x="125" y="673" on="1"/>
        <pt x="231" y="729" on="1"/>
        <pt x="337" y="673" on="1"/>
        <pt x="337" y="637" on="1"/>
        <pt x="231" y="693" on="1"/>
        <pt x="125" y="637" on="1"/>
      </contour>
    </TTGlyph>
    <TTGlyph name="Edblgrave" xMin="81" yMin="0" xMax="448" yMax="910">
      <contour>
        <pt x="81" y="740" on="1"/>
        <pt x="439" y="740" on="1"/>
        <pt x="439" y="706" on="1"/>
        <pt x="115" y="706" on="1"/>
        <pt x="115" y="393" on="1"/>
        <pt x="406" y="393" on="1"/>
        <pt x="406" y="359" on="1"/>
        <pt x="115" y="359" on="1"/>
        <pt x="115" y="34" on="1"/>
        <pt x="448" y="34" on="1"/>
        <pt x="448" y="0" on="1"/>
        <pt x="81" y="0" on="1"/>
      </contour>
      <contour>
        <pt x="179" y="784" on="1"/>
        <pt x="94" y="910" on="1"/>
        <pt x="132" y="910" on="1"/>
        <pt x="211" y="798" on="1"/>
      </contour>
      <contour>
        <pt x="306" y="784" on="1"/>
        <pt x="221" y="910" on="1"/>
        <pt x="259" y="910" on="1"/>
        <pt x="338" y="798" on="1"/>
      </contour>
    </TTGlyph>
    <TTGlyph name="Edblgrave.sc" xMin="77" yMin="0" xMax="396" yMax="714">
      <contour>
        <pt x="77" y="577" on="1"/>
        <pt x="389" y="577" on="1"/>
        <pt x="389" y="545" on="1"/>
        <pt x="111" y="545" on="1"/>
        <pt x="111" y="309" on="1"/>
        <pt x="361" y="309" on="1"/>
        <pt x="361" y="277" on="1"/>
        <pt x="111" y="277" on="1"/>
        <pt x="111" y="33" on="1"/>
        <pt x="396" y="33" on="1"/>
        <pt x="396" y="0" on="1"/>
        <pt x="77" y="0" on="1"/>
      </contour>
      <contour>
        <pt x="89" y="714" on="1"/>
        <pt x="125" y="714" on="1"/>
        <pt x="192" y="623" on="1"/>
        <pt x="163" y="612" on="1"/>
      </contour>
      <contour>
        <pt x="199" y="714" on="1"/>
        <pt x="236" y="714" on="1"/>
        <pt x="302" y="623" on="1"/>
        <pt x="273" y="612" on="1"/>
      </contour>
    </TTGlyph>
    <TTGlyph name="Edieresis" xMin="81" yMin="0" xMax="448" yMax="873">
      <contour>
        <pt x="81" y="740" on="1"/>
        <pt x="439" y="740" on="1"/>
        <pt x="439" y="706" on="1"/>
        <pt x="115" y="706" on="1"/>
        <pt x="115" y="393" on="1"/>
        <pt x="406" y="393" on="1"/>
        <pt x="406" y="359" on="1"/>
        <pt x="115" y="359" on="1"/>
        <pt x="115" y="34" on="1"/>
        <pt x="448" y="34" on="1"/>
        <pt x="448" y="0" on="1"/>
        <pt x="81" y="0" on="1"/>
      </contour>
      <contour>
        <pt x="174" y="814" on="1"/>
        <pt x="162" y="814" on="0"/>
        <pt x="145" y="828" on="0"/>
        <pt x="145" y="843" on="1"/>
        <pt x="145" y="859" on="0"/>
        <pt x="162" y="873" on="0"/>
        <pt x="174" y="873" on="1"/>
        <pt x="186" y="873" on="0"/>
        <pt x="204" y="858" on="0"/>
        <pt x="204" y="843" on="1"/>
        <pt x="204" y="828" on="0"/>
        <pt x="186" y="814" on="0"/>
      </contour>
      <contour>
        <pt x="341" y="814" on="1"/>
        <pt x="329" y="814" on="0"/>
        <pt x="311" y="828" on="0"/>
        <pt x="311" y="843" on="1"/>
        <pt x="311" y="859" on="0"/>
        <pt x="329" y="873" on="0"/>
        <pt x="341" y="873" on="1"/>
        <pt x="352" y="873" on="0"/>
        <pt x="371" y="858" on="0"/>
        <pt x="371" y="843" on="1"/>
        <pt x="371" y="828" on="0"/>
        <pt x="352" y="814" on="0"/>
      </contour>
    </TTGlyph>
    <TTGlyph name="Edieresis.sc" xMin="77" yMin="0" xMax="396" yMax="688">
      <contour>
        <pt x="157" y="635" on="1"/>
        <pt x="145" y="635" on="0"/>
        <pt x="129" y="647" on="0"/>
        <pt x="129" y="661" on="1"/>
        <pt x="129" y="675" on="0"/>
        <pt x="145" y="688" on="0"/>
        <pt x="157" y="688" on="1"/>
        <pt x="168" y="688" on="0"/>
        <pt x="185" y="675" on="0"/>
        <pt x="185" y="661" on="1"/>
        <pt x="185" y="647" on="0"/>
        <pt x="168" y="635" on="0"/>
      </contour>
      <contour>
        <pt x="306" y="635" on="1"/>
        <pt x="294" y="635" on="0"/>
        <pt x="278" y="647" on="0"/>
        <pt x="278" y="661" on="1"/>
        <pt x="278" y="675" on="0"/>
        <pt x="294" y="688" on="0"/>
        <pt x="306" y="688" on="1"/>
        <pt x="317" y="688" on="0"/>
        <pt x="334" y="675" on="0"/>
        <pt x="334" y="661" on="1"/>
        <pt x="334" y="647" on="0"/>
        <pt x="317" y="635" on="0"/>
      </contour>
      <contour>
        <pt x="77" y="577" on="1"/>
        <pt x="389" y="577" on="1"/>
        <pt x="389" y="545" on="1"/>
        <pt x="111" y="545" on="1"/>
        <pt x="111" y="309" on="1"/>
        <pt x="361" y="309" on="1"/>
        <pt x="361" y="277" on="1"/>
        <pt x="111" y="277" on="1"/>
        <pt x="111" y="33" on="1"/>
        <pt x="396" y="33" on="1"/>
        <pt x="396" y="0" on="1"/>
        <pt x="77" y="0" on="1"/>
      </contour>
    </TTGlyph>
    <TTGlyph name="Edotaccent" xMin="81" yMin="0" xMax="448" yMax="858">
      <contour>
        <pt x="81" y="740" on="1"/>
        <pt x="439" y="740" on="1"/>
        <pt x="439" y="706" on="1"/>
        <pt x="115" y="706" on="1"/>
        <pt x="115" y="393" on="1"/>
        <pt x="406" y="393" on="1"/>
        <pt x="406" y="359" on="1"/>
        <pt x="115" y="359" on="1"/>
        <pt x="115" y="34" on="1"/>
        <pt x="448" y="34" on="1"/>
        <pt x="448" y="0" on="1"/>
        <pt x="81" y="0" on="1"/>
      </contour>
      <contour>
        <pt x="257" y="799" on="1"/>
        <pt x="245" y="799" on="0"/>
        <pt x="228" y="813" on="0"/>
        <pt x="228" y="828" on="1"/>
        <pt x="228" y="844" on="0"/>
        <pt x="245" y="858" on="0"/>
        <pt x="257" y="858" on="1"/>
        <pt x="269" y="858" on="0"/>
        <pt x="287" y="843" on="0"/>
        <pt x="287" y="828" on="1"/>
        <pt x="287" y="813" on="0"/>
        <pt x="269" y="799" on="0"/>
      </contour>
    </TTGlyph>
    <TTGlyph name="Edotaccent.sc" xMin="77" yMin="0" xMax="396" yMax="677">
      <contour>
        <pt x="231" y="624" on="1"/>
        <pt x="219" y="624" on="0"/>
        <pt x="204" y="637" on="0"/>
        <pt x="204" y="651" on="1"/>
        <pt x="204" y="665" on="0"/>
        <pt x="219" y="677" on="0"/>
        <pt x="231" y="677" on="1"/>
        <pt x="242" y="677" on="0"/>
        <pt x="259" y="665" on="0"/>
        <pt x="259" y="651" on="1"/>
        <pt x="259" y="637" on="0"/>
        <pt x="242" y="624" on="0"/>
      </contour>
      <contour>
        <pt x="77" y="577" on="1"/>
        <pt x="389" y="577" on="1"/>
        <pt x="389" y="545" on="1"/>
        <pt x="111" y="545" on="1"/>
        <pt x="111" y="309" on="1"/>
        <pt x="361" y="309" on="1"/>
        <pt x="361" y="277" on="1"/>
        <pt x="111" y="277" on="1"/>
        <pt x="111" y="33" on="1"/>
        <pt x="396" y="33" on="1"/>
        <pt x="396" y="0" on="1"/>
        <pt x="77" y="0" on="1"/>
      </contour>
    </TTGlyph>
    <TTGlyph name="Edotbelow" xMin="81" yMin="-160" xMax="448" yMax="740">
      <contour>
        <pt x="81" y="740" on="1"/>
        <pt x="439" y="740" on="1"/>
        <pt x="439" y="706" on="1"/>
        <pt x="115" y="706" on="1"/>
        <pt x="115" y="393" on="1"/>
        <pt x="406" y="393" on="1"/>
        <pt x="406" y="359" on="1"/>
        <pt x="115" y="359" on="1"/>
        <pt x="115" y="34" on="1"/>
        <pt x="448" y="34" on="1"/>
        <pt x="448" y="0" on="1"/>
        <pt x="81" y="0" on="1"/>
      </contour>
      <contour>
        <pt x="277" y="-160" on="1"/>
        <pt x="261" y="-160" on="0"/>
        <pt x="242" y="-144" on="0"/>
        <pt x="242" y="-125" on="1"/>
        <pt x="242" y="-105" on="0"/>
        <pt x="261" y="-90" on="0"/>
        <pt x="277" y="-90" on="1"/>
        <pt x="292" y="-90" on="0"/>
        <pt x="312" y="-106" on="0"/>
        <pt x="312" y="-125" on="1"/>
        <pt x="312" y="-144" on="0"/>
        <pt x="292" y="-160" on="0"/>
      </contour>
    </TTGlyph>
    <TTGlyph name="Edotbelow.sc" xMin="77" yMin="-128" xMax="396" yMax="577">
      <contour>
        <pt x="247" y="-128" on="1"/>
        <pt x="216" y="-128" on="0"/>
        <pt x="216" y="-99" on="1"/>
        <pt x="216" y="-82" on="0"/>
        <pt x="233" y="-69" on="0"/>
        <pt x="247" y="-69" on="1"/>
        <pt x="261" y="-69" on="0"/>
        <pt x="279" y="-83" on="0"/>
        <pt x="279" y="-99" on="1"/>
        <pt x="279" y="-115" on="0"/>
        <pt x="261" y="-128" on="0"/>
      </contour>
      <contour>
        <pt x="77" y="577" on="1"/>
        <pt x="389" y="577" on="1"/>
        <pt x="389" y="545" on="1"/>
        <pt x="111" y="545" on="1"/>
        <pt x="111" y="309" on="1"/>
        <pt x="361" y="309" on="1"/>
        <pt x="361" y="277" on="1"/>
        <pt x="111" y="277" on="1"/>
        <pt x="111" y="33" on="1"/>
        <pt x="396" y="33" on="1"/>
        <pt x="396" y="0" on="1"/>
        <pt x="77" y="0" on="1"/>
      </contour>
    </TTGlyph>
    <TTGlyph name="Egrave" xMin="81" yMin="0" xMax="448" yMax="910">
      <contour>
        <pt x="81" y="740" on="1"/>
        <pt x="439" y="740" on="1"/>
        <pt x="439" y="706" on="1"/>
        <pt x="115" y="706" on="1"/>
        <pt x="115" y="393" on="1"/>
        <pt x="406" y="393" on="1"/>
        <pt x="406" y="359" on="1"/>
        <pt x="115" y="359" on="1"/>
        <pt x="115" y="34" on="1"/>
        <pt x="448" y="34" on="1"/>
        <pt x="448" y="0" on="1"/>
        <pt x="81" y="0" on="1"/>
      </contour>
      <contour>
        <pt x="237" y="784" on="1"/>
        <pt x="152" y="910" on="1"/>
        <pt x="190" y="910" on="1"/>
        <pt x="269" y="798" on="1"/>
      </contour>
    </TTGlyph>
    <TTGlyph name="Egrave.sc" xMin="77" yMin="0" xMax="396" yMax="714">
      <contour>
        <pt x="77" y="577" on="1"/>
        <pt x="389" y="577" on="1"/>
        <pt x="389" y="545" on="1"/>
        <pt x="111" y="545" on="1"/>
        <pt x="111" y="309" on="1"/>
        <pt x="361" y="309" on="1"/>
        <pt x="361" y="277" on="1"/>
        <pt x="111" y="277" on="1"/>
        <pt x="111" y="33" on="1"/>
        <pt x="396" y="33" on="1"/>
        <pt x="396" y="0" on="1"/>
        <pt x="77" y="0" on="1"/>
      </contour>
      <contour>
        <pt x="139" y="714" on="1"/>
        <pt x="176" y="714" on="1"/>
        <pt x="243" y="623" on="1"/>
        <pt x="212" y="613" on="1"/>
      </contour>
    </TTGlyph>
    <TTGlyph name="Einvertedbreve" xMin="81" yMin="0" xMax="448" yMax="958">
      <contour>
        <pt x="81" y="740" on="1"/>
        <pt x="439" y="740" on="1"/>
        <pt x="439" y="706" on="1"/>
        <pt x="115" y="706" on="1"/>
        <pt x="115" y="393" on="1"/>
        <pt x="406" y="393" on="1"/>
        <pt x="406" y="359" on="1"/>
        <pt x="115" y="359" on="1"/>
        <pt x="115" y="34" on="1"/>
        <pt x="448" y="34" on="1"/>
        <pt x="448" y="0" on="1"/>
        <pt x="81" y="0" on="1"/>
      </contour>
      <contour>
        <pt x="358" y="826" on="1"/>
        <pt x="358" y="872" on="0"/>
        <pt x="305" y="924" on="0"/>
        <pt x="257" y="924" on="1"/>
        <pt x="209" y="924" on="0"/>
        <pt x="156" y="872" on="0"/>
        <pt x="156" y="826" on="1"/>
        <pt x="122" y="826" on="1"/>
        <pt x="122" y="888" on="0"/>
        <pt x="194" y="958" on="0"/>
        <pt x="257" y="958" on="1"/>
        <pt x="320" y="958" on="0"/>
        <pt x="392" y="888" on="0"/>
        <pt x="392" y="826" on="1"/>
      </contour>
    </TTGlyph>
    <TTGlyph name="Einvertedbreve.sc" xMin="77" yMin="0" xMax="396" yMax="748">
      <contour>
        <pt x="113" y="643" on="1"/>
        <pt x="113" y="692" on="0"/>
        <pt x="175" y="748" on="0"/>
        <pt x="231" y="748" on="1"/>
        <pt x="286" y="748" on="0"/>
        <pt x="349" y="692" on="0"/>
        <pt x="349" y="643" on="1"/>
        <pt x="317" y="643" on="1"/>
        <pt x="317" y="679" on="0"/>
        <pt x="272" y="719" on="0"/>
        <pt x="231" y="719" on="1"/>
        <pt x="190" y="719" on="0"/>
        <pt x="145" y="679" on="0"/>
        <pt x="145" y="643" on="1"/>
      </contour>
      <contour>
        <pt x="77" y="577" on="1"/>
        <pt x="389" y="577" on="1"/>
        <pt x="389" y="545" on="1"/>
        <pt x="111" y="545" on="1"/>
        <pt x="111" y="309" on="1"/>
        <pt x="361" y="309" on="1"/>
        <pt x="361" y="277" on="1"/>
        <pt x="111" y="277" on="1"/>
        <pt x="111" y="33" on="1"/>
        <pt x="396" y="33" on="1"/>
        <pt x="396" y="0" on="1"/>
        <pt x="77" y="0" on="1"/>
      </contour>
    </TTGlyph>
    <TTGlyph name="Emacron" xMin="81" yMin="0" xMax="448" yMax="876">
      <contour>
        <pt x="81" y="740" on="1"/>
        <pt x="439" y="740" on="1"/>
        <pt x="439" y="706" on="1"/>
        <pt x="115" y="706" on="1"/>
        <pt x="115" y="393" on="1"/>
        <pt x="406" y="393" on="1"/>
        <pt x="406" y="359" on="1"/>
        <pt x="115" y="359" on="1"/>
        <pt x="115" y="34" on="1"/>
        <pt x="448" y="34" on="1"/>
        <pt x="448" y="0" on="1"/>
        <pt x="81" y="0" on="1"/>
      </contour>
      <contour>
        <pt x="143" y="876" on="1"/>
        <pt x="352" y="876" on="1"/>
        <pt x="352" y="842" on="1"/>
        <pt x="143" y="842" on="1"/>
      </contour>
    </TTGlyph>
    <TTGlyph name="Emacron.sc" xMin="77" yMin="0" xMax="396" yMax="687">
      <contour>
        <pt x="77" y="577" on="1"/>
        <pt x="389" y="577" on="1"/>
        <pt x="389" y="545" on="1"/>
        <pt x="111" y="545" on="1"/>
        <pt x="111" y="309" on="1"/>
        <pt x="361" y="309" on="1"/>
        <pt x="361" y="277" on="1"/>
        <pt x="111" y="277" on="1"/>
        <pt x="111" y="33" on="1"/>
        <pt x="396" y="33" on="1"/>
        <pt x="396" y="0" on="1"/>
        <pt x="77" y="0" on="1"/>
      </contour>
      <contour>
        <pt x="131" y="687" on="1"/>
        <pt x="316" y="687" on="1"/>
        <pt x="316" y="656" on="1"/>
        <pt x="131" y="656" on="1"/>
      </contour>
    </TTGlyph>
    <TTGlyph name="Eng" xMin="81" yMin="-176" xMax="559" yMax="740">
      <contour>
        <pt x="448" y="-168" on="1"/>
        <pt x="471" y="-124" on="0"/>
        <pt x="507" y="-37" on="0"/>
        <pt x="518" y="0" on="1"/>
        <pt x="169" y="590" on="1"/>
        <pt x="119" y="680" on="1"/>
        <pt x="115" y="679" on="1"/>
        <pt x="115" y="0" on="1"/>
        <pt x="81" y="0" on="1"/>
        <pt x="81" y="740" on="1"/>
        <pt x="121" y="740" on="1"/>
        <pt x="474" y="144" on="1"/>
        <pt x="521" y="59" on="1"/>
        <pt x="525" y="60" on="1"/>
        <pt x="525" y="740" on="1"/>
        <pt x="559" y="740" on="1"/>
        <pt x="559" y="46" on="1"/>
        <pt x="559" y="26" on="0"/>
        <pt x="546" y="-28" on="0"/>
        <pt x="524" y="-89" on="0"/>
        <pt x="494" y="-150" on="0"/>
        <pt x="477" y="-176" on="1"/>
      </contour>
    </TTGlyph>
    <TTGlyph name="Eng.sc" xMin="77" yMin="-139" xMax="491" yMax="577">
      <contour>
        <pt x="392" y="-131" on="1"/>
        <pt x="412" y="-96" on="0"/>
        <pt x="443" y="-26" on="0"/>
        <pt x="451" y="4" on="1"/>
        <pt x="156" y="448" on="1"/>
        <pt x="114" y="517" on="1"/>
        <pt x="110" y="517" on="1"/>
        <pt x="110" y="0" on="1"/>
        <pt x="77" y="0" on="1"/>
        <pt x="77" y="577" on="1"/>
        <pt x="115" y="577" on="1"/>
        <pt x="414" y="126" on="1"/>
        <pt x="454" y="59" on="1"/>
        <pt x="458" y="60" on="1"/>
        <pt x="458" y="577" on="1"/>
        <pt x="491" y="577" on="1"/>
        <pt x="491" y="41" on="1"/>
        <pt x="491" y="25" on="0"/>
        <pt x="480" y="-20" on="0"/>
        <pt x="460" y="-69" on="0"/>
        <pt x="435" y="-118" on="0"/>
        <pt x="420" y="-139" on="1"/>
      </contour>
    </TTGlyph>
    <TTGlyph name="Eogonek" xMin="81" yMin="-220" xMax="448" yMax="740">
      <contour>
        <pt x="81" y="740" on="1"/>
        <pt x="439" y="740" on="1"/>
        <pt x="439" y="706" on="1"/>
        <pt x="115" y="706" on="1"/>
        <pt x="115" y="393" on="1"/>
        <pt x="406" y="393" on="1"/>
        <pt x="406" y="359" on="1"/>
        <pt x="115" y="359" on="1"/>
        <pt x="115" y="34" on="1"/>
        <pt x="448" y="34" on="1"/>
        <pt x="448" y="-19" on="1"/>
        <pt x="400" y="-45" on="0"/>
        <pt x="359" y="-99" on="0"/>
        <pt x="359" y="-135" on="1"/>
        <pt x="359" y="-162" on="0"/>
        <pt x="382" y="-186" on="0"/>
        <pt x="407" y="-186" on="1"/>
        <pt x="429" y="-186" on="0"/>
        <pt x="448" y="-176" on="1"/>
        <pt x="448" y="-208" on="1"/>
        <pt x="427" y="-220" on="0"/>
        <pt x="402" y="-220" on="1"/>
        <pt x="367" y="-220" on="0"/>
        <pt x="325" y="-176" on="0"/>
        <pt x="325" y="-138" on="1"/>
        <pt x="325" y="-58" on="0"/>
        <pt x="419" y="0" on="1"/>
        <pt x="81" y="0" on="1"/>
      </contour>
    </TTGlyph>
    <TTGlyph name="Eogonek.sc" xMin="77" yMin="-172" xMax="396" yMax="577">
      <contour>
        <pt x="357" y="-172" on="1"/>
        <pt x="324" y="-172" on="0"/>
        <pt x="287" y="-138" on="0"/>
        <pt x="287" y="-107" on="1"/>
        <pt x="287" y="-45" on="0"/>
        <pt x="367" y="0" on="1"/>
        <pt x="77" y="0" on="1"/>
        <pt x="77" y="577" on="1"/>
        <pt x="389" y="577" on="1"/>
        <pt x="389" y="545" on="1"/>
        <pt x="111" y="545" on="1"/>
        <pt x="111" y="309" on="1"/>
        <pt x="361" y="309" on="1"/>
        <pt x="361" y="277" on="1"/>
        <pt x="111" y="277" on="1"/>
        <pt x="111" y="33" on="1"/>
        <pt x="396" y="33" on="1"/>
        <pt x="396" y="-14" on="1"/>
        <pt x="361" y="-27" on="0"/>
        <pt x="319" y="-77" on="0"/>
        <pt x="319" y="-106" on="1"/>
        <pt x="319" y="-142" on="0"/>
        <pt x="359" y="-142" on="1"/>
        <pt x="378" y="-142" on="0"/>
        <pt x="396" y="-134" on="1"/>
        <pt x="396" y="-162" on="1"/>
        <pt x="376" y="-172" on="0"/>
      </contour>
    </TTGlyph>
    <TTGlyph name="Eth" xMin="0" yMin="-18" xMax="522" yMax="750">
      <contour>
        <pt x="0" y="385" on="1"/>
        <pt x="90" y="385" on="1"/>
        <pt x="90" y="732" on="1"/>
        <pt x="134" y="741" on="0"/>
        <pt x="204" y="750" on="0"/>
        <pt x="234" y="750" on="1"/>
        <pt x="380" y="750" on="0"/>
        <pt x="522" y="562" on="0"/>
        <pt x="522" y="369" on="1"/>
        <pt x="522" y="169" on="0"/>
        <pt x="362" y="-18" on="0"/>
        <pt x="191" y="-18" on="1"/>
        <pt x="165" y="-18" on="0"/>
        <pt x="116" y="-15" on="0"/>
        <pt x="90" y="-11" on="1"/>
        <pt x="90" y="351" on="1"/>
        <pt x="0" y="351" on="1"/>
      </contour>
      <contour>
        <pt x="194" y="17" on="1"/>
        <pt x="486" y="17" on="0"/>
        <pt x="486" y="369" on="1"/>
        <pt x="486" y="547" on="0"/>
        <pt x="361" y="716" on="0"/>
        <pt x="229" y="716" on="1"/>
        <pt x="203" y="716" on="0"/>
        <pt x="151" y="711" on="0"/>
        <pt x="124" y="706" on="1"/>
        <pt x="124" y="385" on="1"/>
        <pt x="287" y="385" on="1"/>
        <pt x="287" y="351" on="1"/>
        <pt x="124" y="351" on="1"/>
        <pt x="124" y="22" on="1"/>
        <pt x="144" y="20" on="0"/>
        <pt x="179" y="17" on="0"/>
      </contour>
    </TTGlyph>
    <TTGlyph name="Eth.sc" xMin="6" yMin="-13" xMax="460" yMax="585">
      <contour>
        <pt x="6" y="303" on="1"/>
        <pt x="83" y="303" on="1"/>
        <pt x="83" y="572" on="1"/>
        <pt x="120" y="578" on="0"/>
        <pt x="183" y="585" on="0"/>
        <pt x="209" y="585" on="1"/>
        <pt x="338" y="585" on="0"/>
        <pt x="460" y="440" on="0"/>
        <pt x="460" y="288" on="1"/>
        <pt x="460" y="132" on="0"/>
        <pt x="323" y="-13" on="0"/>
        <pt x="175" y="-13" on="1"/>
        <pt x="152" y="-13" on="0"/>
        <pt x="106" y="-11" on="0"/>
        <pt x="83" y="-7" on="1"/>
        <pt x="83" y="271" on="1"/>
        <pt x="6" y="271" on="1"/>
      </contour>
      <contour>
        <pt x="180" y="20" on="1"/>
        <pt x="425" y="20" on="0"/>
        <pt x="425" y="288" on="1"/>
        <pt x="425" y="426" on="0"/>
        <pt x="319" y="553" on="0"/>
        <pt x="206" y="553" on="1"/>
        <pt x="184" y="553" on="0"/>
        <pt x="140" y="549" on="0"/>
        <pt x="117" y="545" on="1"/>
        <pt x="117" y="303" on="1"/>
        <pt x="255" y="303" on="1"/>
        <pt x="255" y="271" on="1"/>
        <pt x="117" y="271" on="1"/>
        <pt x="117" y="24" on="1"/>
        <pt x="135" y="22" on="0"/>
        <pt x="166" y="20" on="0"/>
      </contour>
    </TTGlyph>
    <TTGlyph name="Etilde" xMin="81" yMin="0" xMax="448" yMax="899">
      <contour>
        <pt x="81" y="740" on="1"/>
        <pt x="439" y="740" on="1"/>
        <pt x="439" y="706" on="1"/>
        <pt x="115" y="706" on="1"/>
        <pt x="115" y="393" on="1"/>
        <pt x="406" y="393" on="1"/>
        <pt x="406" y="359" on="1"/>
        <pt x="115" y="359" on="1"/>
        <pt x="115" y="34" on="1"/>
        <pt x="448" y="34" on="1"/>
        <pt x="448" y="0" on="1"/>
        <pt x="81" y="0" on="1"/>
      </contour>
      <contour>
        <pt x="116" y="850" on="1"/>
        <pt x="130" y="867" on="0"/>
        <pt x="177" y="899" on="0"/>
        <pt x="200" y="899" on="1"/>
        <pt x="219" y="899" on="0"/>
        <pt x="249" y="886" on="0"/>
        <pt x="276" y="869" on="0"/>
        <pt x="303" y="856" on="0"/>
        <pt x="319" y="856" on="1"/>
        <pt x="335" y="856" on="0"/>
        <pt x="362" y="878" on="0"/>
        <pt x="370" y="896" on="1"/>
        <pt x="398" y="876" on="1"/>
        <pt x="388" y="853" on="0"/>
        <pt x="342" y="822" on="0"/>
        <pt x="319" y="822" on="1"/>
        <pt x="300" y="822" on="0"/>
        <pt x="270" y="835" on="0"/>
        <pt x="243" y="852" on="0"/>
        <pt x="216" y="865" on="0"/>
        <pt x="200" y="865" on="1"/>
        <pt x="183" y="865" on="0"/>
        <pt x="151" y="841" on="0"/>
        <pt x="140" y="826" on="1"/>
      </contour>
    </TTGlyph>
    <TTGlyph name="Etilde.sc" xMin="77" yMin="0" xMax="396" yMax="705">
      <contour>
        <pt x="108" y="663" on="1"/>
        <pt x="121" y="679" on="0"/>
        <pt x="162" y="705" on="0"/>
        <pt x="182" y="705" on="1"/>
        <pt x="198" y="705" on="0"/>
        <pt x="225" y="695" on="0"/>
        <pt x="249" y="682" on="0"/>
        <pt x="272" y="672" on="0"/>
        <pt x="286" y="672" on="1"/>
        <pt x="300" y="672" on="0"/>
        <pt x="325" y="689" on="0"/>
        <pt x="333" y="703" on="1"/>
        <pt x="356" y="687" on="1"/>
        <pt x="346" y="667" on="0"/>
        <pt x="305" y="641" on="0"/>
        <pt x="285" y="641" on="1"/>
        <pt x="269" y="641" on="0"/>
        <pt x="243" y="652" on="0"/>
        <pt x="219" y="664" on="0"/>
        <pt x="195" y="675" on="0"/>
        <pt x="181" y="675" on="1"/>
        <pt x="167" y="675" on="0"/>
        <pt x="138" y="657" on="0"/>
        <pt x="128" y="644" on="1"/>
      </contour>
      <contour>
        <pt x="77" y="577" on="1"/>
        <pt x="389" y="577" on="1"/>
        <pt x="389" y="545" on="1"/>
        <pt x="111" y="545" on="1"/>
        <pt x="111" y="309" on="1"/>
        <pt x="361" y="309" on="1"/>
        <pt x="361" y="277" on="1"/>
        <pt x="111" y="277" on="1"/>
        <pt x="111" y="33" on="1"/>
        <pt x="396" y="33" on="1"/>
        <pt x="396" y="0" on="1"/>
        <pt x="77" y="0" on="1"/>
      </contour>
    </TTGlyph>
    <TTGlyph name="Euro" xMin="41" yMin="-10" xMax="443" yMax="748">
      <contour>
        <pt x="41" y="470" on="1"/>
        <pt x="116" y="470" on="1"/>
        <pt x="123" y="545" on="0"/>
        <pt x="162" y="650" on="0"/>
        <pt x="229" y="717" on="0"/>
        <pt x="325" y="748" on="0"/>
        <pt x="390" y="748" on="1"/>
        <pt x="408" y="748" on="0"/>
        <pt x="429" y="747" on="0"/>
        <pt x="443" y="746" on="1"/>
        <pt x="428" y="712" on="1"/>
        <pt x="422" y="713" on="0"/>
        <pt x="407" y="714" on="0"/>
        <pt x="394" y="714" on="1"/>
        <pt x="337" y="714" on="0"/>
        <pt x="253" y="687" on="0"/>
        <pt x="194" y="628" on="0"/>
        <pt x="160" y="536" on="0"/>
        <pt x="153" y="470" on="1"/>
        <pt x="371" y="470" on="1"/>
        <pt x="351" y="436" on="1"/>
        <pt x="150" y="436" on="1"/>
        <pt x="148" y="420" on="0"/>
        <pt x="148" y="387" on="0"/>
        <pt x="148" y="369" on="1"/>
        <pt x="148" y="351" on="0"/>
        <pt x="148" y="319" on="0"/>
        <pt x="150" y="303" on="1"/>
        <pt x="339" y="303" on="1"/>
        <pt x="319" y="269" on="1"/>
        <pt x="153" y="269" on="1"/>
        <pt x="167" y="141" on="0"/>
        <pt x="281" y="24" on="0"/>
        <pt x="389" y="24" on="1"/>
        <pt x="394" y="24" on="0"/>
        <pt x="415" y="25" on="0"/>
        <pt x="428" y="26" on="1"/>
        <pt x="428" y="-9" on="1"/>
        <pt x="421" y="-10" on="0"/>
        <pt x="406" y="-10" on="0"/>
        <pt x="392" y="-10" on="1"/>
        <pt x="265" y="-8" on="0"/>
        <pt x="132" y="124" on="0"/>
        <pt x="117" y="269" on="1"/>
        <pt x="41" y="269" on="1"/>
        <pt x="41" y="303" on="1"/>
        <pt x="114" y="303" on="1"/>
        <pt x="112" y="319" on="0"/>
        <pt x="112" y="352" on="0"/>
        <pt x="112" y="369" on="1"/>
        <pt x="112" y="386" on="0"/>
        <pt x="113" y="420" on="0"/>
        <pt x="114" y="436" on="1"/>
        <pt x="41" y="436" on="1"/>
      </contour>
    </TTGlyph>
    <TTGlyph name="Euro.tab" xMin="38" yMin="-10" xMax="446" yMax="748">
      <contour>
        <pt x="38" y="470" on="1"/>
        <pt x="114" y="470" on="1"/>
        <pt x="121" y="545" on="0"/>
        <pt x="161" y="650" on="0"/>
        <pt x="228" y="717" on="0"/>
        <pt x="326" y="748" on="0"/>
        <pt x="392" y="748" on="1"/>
        <pt x="411" y="748" on="0"/>
        <pt x="432" y="747" on="0"/>
        <pt x="446" y="746" on="1"/>
        <pt x="431" y="712" on="1"/>
        <pt x="425" y="713" on="0"/>
        <pt x="410" y="714" on="0"/>
        <pt x="396" y="714" on="1"/>
        <pt x="339" y="714" on="0"/>
        <pt x="253" y="687" on="0"/>
        <pt x="193" y="628" on="0"/>
        <pt x="158" y="536" on="0"/>
        <pt x="151" y="470" on="1"/>
        <pt x="373" y="470" on="1"/>
        <pt x="353" y="436" on="1"/>
        <pt x="148" y="436" on="1"/>
        <pt x="146" y="420" on="0"/>
        <pt x="146" y="387" on="0"/>
        <pt x="146" y="369" on="1"/>
        <pt x="146" y="351" on="0"/>
        <pt x="146" y="319" on="0"/>
        <pt x="148" y="303" on="1"/>
        <pt x="340" y="303" on="1"/>
        <pt x="320" y="269" on="1"/>
        <pt x="151" y="269" on="1"/>
        <pt x="165" y="141" on="0"/>
        <pt x="282" y="24" on="0"/>
        <pt x="391" y="24" on="1"/>
        <pt x="396" y="24" on="0"/>
        <pt x="418" y="25" on="0"/>
        <pt x="431" y="26" on="1"/>
        <pt x="431" y="-9" on="1"/>
        <pt x="424" y="-10" on="0"/>
        <pt x="408" y="-10" on="0"/>
        <pt x="394" y="-10" on="1"/>
        <pt x="265" y="-8" on="0"/>
        <pt x="130" y="124" on="0"/>
        <pt x="115" y="269" on="1"/>
        <pt x="38" y="269" on="1"/>
        <pt x="38" y="303" on="1"/>
        <pt x="112" y="303" on="1"/>
        <pt x="110" y="319" on="0"/>
        <pt x="110" y="352" on="0"/>
        <pt x="110" y="369" on="1"/>
        <pt x="110" y="386" on="0"/>
        <pt x="111" y="420" on="0"/>
        <pt x="112" y="436" on="1"/>
        <pt x="38" y="436" on="1"/>
      </contour>
    </TTGlyph>
    <TTGlyph name="F" xMin="81" yMin="0" xMax="419" yMax="740">
      <contour>
        <pt x="81" y="740" on="1"/>
        <pt x="419" y="740" on="1"/>
        <pt x="419" y="706" on="1"/>
        <pt x="115" y="706" on="1"/>
        <pt x="115" y="393" on="1"/>
        <pt x="403" y="393" on="1"/>
        <pt x="403" y="359" on="1"/>
        <pt x="115" y="359" on="1"/>
        <pt x="115" y="0" on="1"/>
        <pt x="81" y="0" on="1"/>
      </contour>
    </TTGlyph>
    <TTGlyph name="F.sc" xMin="77" yMin="0" xMax="373" yMax="577">
      <contour>
        <pt x="77" y="577" on="1"/>
        <pt x="373" y="577" on="1"/>
        <pt x="373" y="545" on="1"/>
        <pt x="111" y="545" on="1"/>
        <pt x="111" y="308" on="1"/>
        <pt x="358" y="308" on="1"/>
        <pt x="358" y="276" on="1"/>
        <pt x="111" y="276" on="1"/>
        <pt x="111" y="0" on="1"/>
        <pt x="77" y="0" on="1"/>
      </contour>
    </TTGlyph>
    <TTGlyph name="F_B.sc" xMin="77" yMin="-8" xMax="828" yMax="585">
      <contour>
        <pt x="77" y="577" on="1"/>
        <pt x="373" y="577" on="1"/>
        <pt x="373" y="545" on="1"/>
        <pt x="111" y="545" on="1"/>
        <pt x="111" y="308" on="1"/>
        <pt x="358" y="308" on="1"/>
        <pt x="358" y="276" on="1"/>
        <pt x="111" y="276" on="1"/>
        <pt x="111" y="0" on="1"/>
        <pt x="77" y="0" on="1"/>
      </contour>
      <contour>
        <pt x="632" y="-8" on="1"/>
        <pt x="613" y="-8" on="0"/>
        <pt x="568" y="-6" on="0"/>
        <pt x="523" y="-3" on="0"/>
        <pt x="483" y="1" on="0"/>
        <pt x="470" y="4" on="1"/>
        <pt x="470" y="575" on="1"/>
        <pt x="498" y="578" on="0"/>
        <pt x="540" y="581" on="0"/>
        <pt x="573" y="584" on="0"/>
        <pt x="602" y="585" on="0"/>
        <pt x="617" y="585" on="1"/>
        <pt x="715" y="585" on="0"/>
        <pt x="808" y="510" on="0"/>
        <pt x="808" y="431" on="1"/>
        <pt x="808" y="375" on="0"/>
        <pt x="755" y="305" on="0"/>
        <pt x="705" y="296" on="1"/>
        <pt x="705" y="293" on="1"/>
        <pt x="762" y="285" on="0"/>
        <pt x="828" y="210" on="0"/>
        <pt x="828" y="150" on="1"/>
        <pt x="828" y="-8" on="0"/>
      </contour>
      <contour>
        <pt x="633" y="21" on="1"/>
        <pt x="792" y="21" on="0"/>
        <pt x="792" y="150" on="1"/>
        <pt x="792" y="217" on="0"/>
        <pt x="710" y="276" on="0"/>
        <pt x="615" y="276" on="1"/>
        <pt x="504" y="276" on="1"/>
        <pt x="504" y="30" on="1"/>
        <pt x="511" y="28" on="0"/>
        <pt x="541" y="25" on="0"/>
        <pt x="578" y="23" on="0"/>
        <pt x="617" y="21" on="0"/>
      </contour>
      <contour>
        <pt x="615" y="308" on="1"/>
        <pt x="658" y="308" on="0"/>
        <pt x="718" y="321" on="0"/>
        <pt x="755" y="350" on="0"/>
        <pt x="772" y="397" on="0"/>
        <pt x="772" y="431" on="1"/>
        <pt x="772" y="494" on="0"/>
        <pt x="697" y="554" on="0"/>
        <pt x="618" y="554" on="1"/>
        <pt x="587" y="554" on="0"/>
        <pt x="534" y="551" on="0"/>
        <pt x="504" y="547" on="1"/>
        <pt x="504" y="308" on="1"/>
      </contour>
    </TTGlyph>
    <TTGlyph name="F_F.sc" xMin="77" yMin="0" xMax="766" yMax="577">
      <contour>
        <pt x="77" y="577" on="1"/>
        <pt x="373" y="577" on="1"/>
        <pt x="373" y="545" on="1"/>
        <pt x="111" y="545" on="1"/>
        <pt x="111" y="308" on="1"/>
        <pt x="358" y="308" on="1"/>
        <pt x="358" y="276" on="1"/>
        <pt x="111" y="276" on="1"/>
        <pt x="111" y="0" on="1"/>
        <pt x="77" y="0" on="1"/>
      </contour>
      <contour>
        <pt x="470" y="577" on="1"/>
        <pt x="766" y="577" on="1"/>
        <pt x="766" y="545" on="1"/>
        <pt x="504" y="545" on="1"/>
        <pt x="504" y="308" on="1"/>
        <pt x="751" y="308" on="1"/>
        <pt x="751" y="276" on="1"/>
        <pt x="504" y="276" on="1"/>
        <pt x="504" y="0" on="1"/>
        <pt x="470" y="0" on="1"/>
      </contour>
    </TTGlyph>
    <TTGlyph name="F_F_B.sc" xMin="77" yMin="-8" xMax="1221" yMax="585">
      <contour>
        <pt x="77" y="577" on="1"/>
        <pt x="373" y="577" on="1"/>
        <pt x="373" y="545" on="1"/>
        <pt x="111" y="545" on="1"/>
        <pt x="111" y="308" on="1"/>
        <pt x="358" y="308" on="1"/>
        <pt x="358" y="276" on="1"/>
        <pt x="111" y="276" on="1"/>
        <pt x="111" y="0" on="1"/>
        <pt x="77" y="0" on="1"/>
      </contour>
      <contour>
        <pt x="470" y="577" on="1"/>
        <pt x="766" y="577" on="1"/>
        <pt x="766" y="545" on="1"/>
        <pt x="504" y="545" on="1"/>
        <pt x="504" y="308" on="1"/>
        <pt x="751" y="308" on="1"/>
        <pt x="751" y="276" on="1"/>
        <pt x="504" y="276" on="1"/>
        <pt x="504" y="0" on="1"/>
        <pt x="470" y="0" on="1"/>
      </contour>
      <contour>
        <pt x="1025" y="-8" on="1"/>
        <pt x="1006" y="-8" on="0"/>
        <pt x="961" y="-6" on="0"/>
        <pt x="916" y="-3" on="0"/>
        <pt x="876" y="1" on="0"/>
        <pt x="863" y="4" on="1"/>
        <pt x="863" y="575" on="1"/>
        <pt x="891" y="578" on="0"/>
        <pt x="933" y="581" on="0"/>
        <pt x="966" y="584" on="0"/>
        <pt x="995" y="585" on="0"/>
        <pt x="1010" y="585" on="1"/>
        <pt x="1108" y="585" on="0"/>
        <pt x="1201" y="510" on="0"/>
        <pt x="1201" y="431" on="1"/>
        <pt x="1201" y="375" on="0"/>
        <pt x="1148" y="305" on="0"/>
        <pt x="1098" y="296" on="1"/>
        <pt x="1098" y="293" on="1"/>
        <pt x="1155" y="285" on="0"/>
        <pt x="1221" y="210" on="0"/>
        <pt x="1221" y="150" on="1"/>
        <pt x="1221" y="-8" on="0"/>
      </contour>
      <contour>
        <pt x="1026" y="21" on="1"/>
        <pt x="1185" y="21" on="0"/>
        <pt x="1185" y="150" on="1"/>
        <pt x="1185" y="217" on="0"/>
        <pt x="1103" y="276" on="0"/>
        <pt x="1008" y="276" on="1"/>
        <pt x="897" y="276" on="1"/>
        <pt x="897" y="30" on="1"/>
        <pt x="904" y="28" on="0"/>
        <pt x="934" y="25" on="0"/>
        <pt x="971" y="23" on="0"/>
        <pt x="1010" y="21" on="0"/>
      </contour>
      <contour>
        <pt x="1008" y="308" on="1"/>
        <pt x="1051" y="308" on="0"/>
        <pt x="1111" y="321" on="0"/>
        <pt x="1148" y="350" on="0"/>
        <pt x="1165" y="397" on="0"/>
        <pt x="1165" y="431" on="1"/>
        <pt x="1165" y="494" on="0"/>
        <pt x="1090" y="554" on="0"/>
        <pt x="1011" y="554" on="1"/>
        <pt x="980" y="554" on="0"/>
        <pt x="927" y="551" on="0"/>
        <pt x="897" y="547" on="1"/>
        <pt x="897" y="308" on="1"/>
      </contour>
    </TTGlyph>
    <TTGlyph name="F_F_H.sc" xMin="77" yMin="0" xMax="1246" yMax="577">
      <contour>
        <pt x="77" y="577" on="1"/>
        <pt x="373" y="577" on="1"/>
        <pt x="373" y="545" on="1"/>
        <pt x="111" y="545" on="1"/>
        <pt x="111" y="308" on="1"/>
        <pt x="358" y="308" on="1"/>
        <pt x="358" y="276" on="1"/>
        <pt x="111" y="276" on="1"/>
        <pt x="111" y="0" on="1"/>
        <pt x="77" y="0" on="1"/>
      </contour>
      <contour>
        <pt x="470" y="577" on="1"/>
        <pt x="766" y="577" on="1"/>
        <pt x="766" y="545" on="1"/>
        <pt x="504" y="545" on="1"/>
        <pt x="504" y="308" on="1"/>
        <pt x="751" y="308" on="1"/>
        <pt x="751" y="276" on="1"/>
        <pt x="504" y="276" on="1"/>
        <pt x="504" y="0" on="1"/>
        <pt x="470" y="0" on="1"/>
      </contour>
      <contour>
        <pt x="863" y="577" on="1"/>
        <pt x="897" y="577" on="1"/>
        <pt x="897" y="311" on="1"/>
        <pt x="1212" y="311" on="1"/>
        <pt x="1212" y="577" on="1"/>
        <pt x="1246" y="577" on="1"/>
        <pt x="1246" y="0" on="1"/>
        <pt x="1212" y="0" on="1"/>
        <pt x="1212" y="278" on="1"/>
        <pt x="897" y="278" on="1"/>
        <pt x="897" y="0" on="1"/>
        <pt x="863" y="0" on="1"/>
      </contour>
    </TTGlyph>
    <TTGlyph name="F_F_I.sc" xMin="77" yMin="0" xMax="897" yMax="577">
      <contour>
        <pt x="77" y="577" on="1"/>
        <pt x="373" y="577" on="1"/>
        <pt x="373" y="545" on="1"/>
        <pt x="111" y="545" on="1"/>
        <pt x="111" y="308" on="1"/>
        <pt x="358" y="308" on="1"/>
        <pt x="358" y="276" on="1"/>
        <pt x="111" y="276" on="1"/>
        <pt x="111" y="0" on="1"/>
        <pt x="77" y="0" on="1"/>
      </contour>
      <contour>
        <pt x="470" y="577" on="1"/>
        <pt x="766" y="577" on="1"/>
        <pt x="766" y="545" on="1"/>
        <pt x="504" y="545" on="1"/>
        <pt x="504" y="308" on="1"/>
        <pt x="751" y="308" on="1"/>
        <pt x="751" y="276" on="1"/>
        <pt x="504" y="276" on="1"/>
        <pt x="504" y="0" on="1"/>
        <pt x="470" y="0" on="1"/>
      </contour>
      <contour>
        <pt x="863" y="577" on="1"/>
        <pt x="897" y="577" on="1"/>
        <pt x="897" y="0" on="1"/>
        <pt x="863" y="0" on="1"/>
      </contour>
    </TTGlyph>
    <TTGlyph name="F_F_J.sc" xMin="77" yMin="-138" xMax="910" yMax="577">
      <contour>
        <pt x="77" y="577" on="1"/>
        <pt x="373" y="577" on="1"/>
        <pt x="373" y="545" on="1"/>
        <pt x="111" y="545" on="1"/>
        <pt x="111" y="308" on="1"/>
        <pt x="358" y="308" on="1"/>
        <pt x="358" y="276" on="1"/>
        <pt x="111" y="276" on="1"/>
        <pt x="111" y="0" on="1"/>
        <pt x="77" y="0" on="1"/>
      </contour>
      <contour>
        <pt x="470" y="577" on="1"/>
        <pt x="766" y="577" on="1"/>
        <pt x="766" y="545" on="1"/>
        <pt x="504" y="545" on="1"/>
        <pt x="504" y="308" on="1"/>
        <pt x="751" y="308" on="1"/>
        <pt x="751" y="276" on="1"/>
        <pt x="504" y="276" on="1"/>
        <pt x="504" y="0" on="1"/>
        <pt x="470" y="0" on="1"/>
      </contour>
      <contour>
        <pt x="804" y="-124" on="1"/>
        <pt x="826" y="-82" on="0"/>
        <pt x="854" y="-17" on="0"/>
        <pt x="870" y="42" on="0"/>
        <pt x="876" y="103" on="0"/>
        <pt x="876" y="141" on="1"/>
        <pt x="876" y="577" on="1"/>
        <pt x="910" y="577" on="1"/>
        <pt x="910" y="140" on="1"/>
        <pt x="910" y="67" on="0"/>
        <pt x="871" y="-65" on="0"/>
        <pt x="828" y="-138" on="1"/>
      </contour>
    </TTGlyph>
    <TTGlyph name="F_F_K.sc" xMin="77" yMin="0" xMax="1252" yMax="577">
      <contour>
        <pt x="77" y="577" on="1"/>
        <pt x="373" y="577" on="1"/>
        <pt x="373" y="545" on="1"/>
        <pt x="111" y="545" on="1"/>
        <pt x="111" y="308" on="1"/>
        <pt x="358" y="308" on="1"/>
        <pt x="358" y="276" on="1"/>
        <pt x="111" y="276" on="1"/>
        <pt x="111" y="0" on="1"/>
        <pt x="77" y="0" on="1"/>
      </contour>
      <contour>
        <pt x="470" y="577" on="1"/>
        <pt x="766" y="577" on="1"/>
        <pt x="766" y="545" on="1"/>
        <pt x="504" y="545" on="1"/>
        <pt x="504" y="308" on="1"/>
        <pt x="751" y="308" on="1"/>
        <pt x="751" y="276" on="1"/>
        <pt x="504" y="276" on="1"/>
        <pt x="504" y="0" on="1"/>
        <pt x="470" y="0" on="1"/>
      </contour>
      <contour>
        <pt x="863" y="577" on="1"/>
        <pt x="897" y="577" on="1"/>
        <pt x="897" y="310" on="1"/>
        <pt x="976" y="310" on="1"/>
        <pt x="1193" y="577" on="1"/>
        <pt x="1236" y="577" on="1"/>
        <pt x="1025" y="316" on="1"/>
        <pt x="1003" y="296" on="1"/>
        <pt x="1003" y="293" on="1"/>
        <pt x="1026" y="275" on="1"/>
        <pt x="1252" y="0" on="1"/>
        <pt x="1212" y="0" on="1"/>
        <pt x="982" y="277" on="1"/>
        <pt x="897" y="277" on="1"/>
        <pt x="897" y="0" on="1"/>
        <pt x="863" y="0" on="1"/>
      </contour>
    </TTGlyph>
    <TTGlyph name="F_F_L.sc" xMin="77" yMin="0" xMax="1121" yMax="577">
      <contour>
        <pt x="77" y="577" on="1"/>
        <pt x="373" y="577" on="1"/>
        <pt x="373" y="545" on="1"/>
        <pt x="111" y="545" on="1"/>
        <pt x="111" y="308" on="1"/>
        <pt x="358" y="308" on="1"/>
        <pt x="358" y="276" on="1"/>
        <pt x="111" y="276" on="1"/>
        <pt x="111" y="0" on="1"/>
        <pt x="77" y="0" on="1"/>
      </contour>
      <contour>
        <pt x="470" y="577" on="1"/>
        <pt x="766" y="577" on="1"/>
        <pt x="766" y="545" on="1"/>
        <pt x="504" y="545" on="1"/>
        <pt x="504" y="308" on="1"/>
        <pt x="751" y="308" on="1"/>
        <pt x="751" y="276" on="1"/>
        <pt x="504" y="276" on="1"/>
        <pt x="504" y="0" on="1"/>
        <pt x="470" y="0" on="1"/>
      </contour>
      <contour>
        <pt x="863" y="577" on="1"/>
        <pt x="897" y="577" on="1"/>
        <pt x="897" y="33" on="1"/>
        <pt x="1121" y="33" on="1"/>
        <pt x="1121" y="0" on="1"/>
        <pt x="863" y="0" on="1"/>
      </contour>
    </TTGlyph>
    <TTGlyph name="F_F_T.sc" xMin="77" yMin="0" xMax="1153" yMax="577">
      <contour>
        <pt x="77" y="577" on="1"/>
        <pt x="373" y="577" on="1"/>
        <pt x="373" y="545" on="1"/>
        <pt x="111" y="545" on="1"/>
        <pt x="111" y="308" on="1"/>
        <pt x="358" y="308" on="1"/>
        <pt x="358" y="276" on="1"/>
        <pt x="111" y="276" on="1"/>
        <pt x="111" y="0" on="1"/>
        <pt x="77" y="0" on="1"/>
      </contour>
      <contour>
        <pt x="470" y="577" on="1"/>
        <pt x="766" y="577" on="1"/>
        <pt x="766" y="545" on="1"/>
        <pt x="504" y="545" on="1"/>
        <pt x="504" y="308" on="1"/>
        <pt x="751" y="308" on="1"/>
        <pt x="751" y="276" on="1"/>
        <pt x="504" y="276" on="1"/>
        <pt x="504" y="0" on="1"/>
        <pt x="470" y="0" on="1"/>
      </contour>
      <contour>
        <pt x="952" y="544" on="1"/>
        <pt x="785" y="544" on="1"/>
        <pt x="785" y="577" on="1"/>
        <pt x="1153" y="577" on="1"/>
        <pt x="1153" y="544" on="1"/>
        <pt x="986" y="544" on="1"/>
        <pt x="986" y="0" on="1"/>
        <pt x="952" y="0" on="1"/>
      </contour>
    </TTGlyph>
    <TTGlyph name="F_H.sc" xMin="77" yMin="0" xMax="853" yMax="577">
      <contour>
        <pt x="77" y="577" on="1"/>
        <pt x="373" y="577" on="1"/>
        <pt x="373" y="545" on="1"/>
        <pt x="111" y="545" on="1"/>
        <pt x="111" y="308" on="1"/>
        <pt x="358" y="308" on="1"/>
        <pt x="358" y="276" on="1"/>
        <pt x="111" y="276" on="1"/>
        <pt x="111" y="0" on="1"/>
        <pt x="77" y="0" on="1"/>
      </contour>
      <contour>
        <pt x="470" y="577" on="1"/>
        <pt x="504" y="577" on="1"/>
        <pt x="504" y="311" on="1"/>
        <pt x="819" y="311" on="1"/>
        <pt x="819" y="577" on="1"/>
        <pt x="853" y="577" on="1"/>
        <pt x="853" y="0" on="1"/>
        <pt x="819" y="0" on="1"/>
        <pt x="819" y="278" on="1"/>
        <pt x="504" y="278" on="1"/>
        <pt x="504" y="0" on="1"/>
        <pt x="470" y="0" on="1"/>
      </contour>
    </TTGlyph>
    <TTGlyph name="F_I.sc" xMin="77" yMin="0" xMax="504" yMax="577">
      <contour>
        <pt x="77" y="577" on="1"/>
        <pt x="373" y="577" on="1"/>
        <pt x="373" y="545" on="1"/>
        <pt x="111" y="545" on="1"/>
        <pt x="111" y="308" on="1"/>
        <pt x="358" y="308" on="1"/>
        <pt x="358" y="276" on="1"/>
        <pt x="111" y="276" on="1"/>
        <pt x="111" y="0" on="1"/>
        <pt x="77" y="0" on="1"/>
      </contour>
      <contour>
        <pt x="470" y="577" on="1"/>
        <pt x="504" y="577" on="1"/>
        <pt x="504" y="0" on="1"/>
        <pt x="470" y="0" on="1"/>
      </contour>
    </TTGlyph>
    <TTGlyph name="F_J.sc" xMin="77" yMin="-138" xMax="517" yMax="577">
      <contour>
        <pt x="77" y="577" on="1"/>
        <pt x="373" y="577" on="1"/>
        <pt x="373" y="545" on="1"/>
        <pt x="111" y="545" on="1"/>
        <pt x="111" y="308" on="1"/>
        <pt x="358" y="308" on="1"/>
        <pt x="358" y="276" on="1"/>
        <pt x="111" y="276" on="1"/>
        <pt x="111" y="0" on="1"/>
        <pt x="77" y="0" on="1"/>
      </contour>
      <contour>
        <pt x="411" y="-124" on="1"/>
        <pt x="433" y="-82" on="0"/>
        <pt x="461" y="-17" on="0"/>
        <pt x="477" y="42" on="0"/>
        <pt x="483" y="103" on="0"/>
        <pt x="483" y="141" on="1"/>
        <pt x="483" y="577" on="1"/>
        <pt x="517" y="577" on="1"/>
        <pt x="517" y="140" on="1"/>
        <pt x="517" y="67" on="0"/>
        <pt x="478" y="-65" on="0"/>
        <pt x="435" y="-138" on="1"/>
      </contour>
    </TTGlyph>
    <TTGlyph name="F_K.sc" xMin="77" yMin="0" xMax="859" yMax="577">
      <contour>
        <pt x="77" y="577" on="1"/>
        <pt x="373" y="577" on="1"/>
        <pt x="373" y="545" on="1"/>
        <pt x="111" y="545" on="1"/>
        <pt x="111" y="308" on="1"/>
        <pt x="358" y="308" on="1"/>
        <pt x="358" y="276" on="1"/>
        <pt x="111" y="276" on="1"/>
        <pt x="111" y="0" on="1"/>
        <pt x="77" y="0" on="1"/>
      </contour>
      <contour>
        <pt x="470" y="577" on="1"/>
        <pt x="504" y="577" on="1"/>
        <pt x="504" y="310" on="1"/>
        <pt x="583" y="310" on="1"/>
        <pt x="800" y="577" on="1"/>
        <pt x="843" y="577" on="1"/>
        <pt x="632" y="316" on="1"/>
        <pt x="610" y="296" on="1"/>
        <pt x="610" y="293" on="1"/>
        <pt x="633" y="275" on="1"/>
        <pt x="859" y="0" on="1"/>
        <pt x="819" y="0" on="1"/>
        <pt x="589" y="277" on="1"/>
        <pt x="504" y="277" on="1"/>
        <pt x="504" y="0" on="1"/>
        <pt x="470" y="0" on="1"/>
      </contour>
    </TTGlyph>
    <TTGlyph name="F_L.sc" xMin="77" yMin="0" xMax="728" yMax="577">
      <contour>
        <pt x="77" y="577" on="1"/>
        <pt x="373" y="577" on="1"/>
        <pt x="373" y="545" on="1"/>
        <pt x="111" y="545" on="1"/>
        <pt x="111" y="308" on="1"/>
        <pt x="358" y="308" on="1"/>
        <pt x="358" y="276" on="1"/>
        <pt x="111" y="276" on="1"/>
        <pt x="111" y="0" on="1"/>
        <pt x="77" y="0" on="1"/>
      </contour>
      <contour>
        <pt x="470" y="577" on="1"/>
        <pt x="504" y="577" on="1"/>
        <pt x="504" y="33" on="1"/>
        <pt x="728" y="33" on="1"/>
        <pt x="728" y="0" on="1"/>
        <pt x="470" y="0" on="1"/>
      </contour>
    </TTGlyph>
    <TTGlyph name="F_T.sc" xMin="77" yMin="0" xMax="760" yMax="577">
      <contour>
        <pt x="77" y="577" on="1"/>
        <pt x="373" y="577" on="1"/>
        <pt x="373" y="545" on="1"/>
        <pt x="111" y="545" on="1"/>
        <pt x="111" y="308" on="1"/>
        <pt x="358" y="308" on="1"/>
        <pt x="358" y="276" on="1"/>
        <pt x="111" y="276" on="1"/>
        <pt x="111" y="0" on="1"/>
        <pt x="77" y="0" on="1"/>
      </contour>
      <contour>
        <pt x="559" y="544" on="1"/>
        <pt x="392" y="544" on="1"/>
        <pt x="392" y="577" on="1"/>
        <pt x="760" y="577" on="1"/>
        <pt x="760" y="544" on="1"/>
        <pt x="593" y="544" on="1"/>
        <pt x="593" y="0" on="1"/>
        <pt x="559" y="0" on="1"/>
      </contour>
    </TTGlyph>
    <TTGlyph name="G" xMin="49" yMin="-10" xMax="484" yMax="748">
      <contour>
        <pt x="354" y="-10" on="1"/>
        <pt x="273" y="-9" on="0"/>
        <pt x="157" y="35" on="0"/>
        <pt x="84" y="127" on="0"/>
        <pt x="49" y="270" on="0"/>
        <pt x="49" y="369" on="1"/>
        <pt x="49" y="472" on="0"/>
        <pt x="82" y="616" on="0"/>
        <pt x="155" y="707" on="0"/>
        <pt x="270" y="748" on="0"/>
        <pt x="352" y="748" on="1"/>
        <pt x="363" y="748" on="0"/>
        <pt x="394" y="746" on="0"/>
        <pt x="430" y="742" on="0"/>
        <pt x="467" y="737" on="0"/>
        <pt x="484" y="734" on="1"/>
        <pt x="484" y="700" on="1"/>
        <pt x="451" y="707" on="0"/>
        <pt x="384" y="714" on="0"/>
        <pt x="356" y="714" on="1"/>
        <pt x="282" y="714" on="0"/>
        <pt x="179" y="677" on="0"/>
        <pt x="114" y="594" on="0"/>
        <pt x="85" y="463" on="0"/>
        <pt x="85" y="369" on="1"/>
        <pt x="85" y="189" on="0"/>
        <pt x="212" y="24" on="0"/>
        <pt x="351" y="24" on="1"/>
        <pt x="365" y="24" on="0"/>
        <pt x="418" y="28" on="0"/>
        <pt x="447" y="31" on="1"/>
        <pt x="447" y="376" on="1"/>
        <pt x="481" y="376" on="1"/>
        <pt x="481" y="2" on="1"/>
        <pt x="442" y="-5" on="0"/>
        <pt x="386" y="-10" on="0"/>
      </contour>
    </TTGlyph>
    <TTGlyph name="G.sc" xMin="48" yMin="-8" xMax="424" yMax="584">
      <contour>
        <pt x="308" y="-8" on="1"/>
        <pt x="239" y="-7" on="0"/>
        <pt x="141" y="28" on="0"/>
        <pt x="78" y="100" on="0"/>
        <pt x="48" y="211" on="0"/>
        <pt x="48" y="288" on="1"/>
        <pt x="48" y="367" on="0"/>
        <pt x="77" y="479" on="0"/>
        <pt x="140" y="551" on="0"/>
        <pt x="239" y="584" on="0"/>
        <pt x="309" y="584" on="1"/>
        <pt x="328" y="584" on="0"/>
        <pt x="395" y="577" on="0"/>
        <pt x="424" y="572" on="1"/>
        <pt x="424" y="539" on="1"/>
        <pt x="364" y="551" on="0"/>
        <pt x="312" y="551" on="1"/>
        <pt x="250" y="551" on="0"/>
        <pt x="163" y="522" on="0"/>
        <pt x="109" y="459" on="0"/>
        <pt x="84" y="359" on="0"/>
        <pt x="84" y="288" on="1"/>
        <pt x="84" y="150" on="0"/>
        <pt x="190" y="25" on="0"/>
        <pt x="307" y="25" on="1"/>
        <pt x="320" y="25" on="0"/>
        <pt x="364" y="28" on="0"/>
        <pt x="389" y="31" on="1"/>
        <pt x="389" y="293" on="1"/>
        <pt x="422" y="293" on="1"/>
        <pt x="422" y="3" on="1"/>
        <pt x="387" y="-3" on="0"/>
        <pt x="336" y="-8" on="0"/>
      </contour>
    </TTGlyph>
    <TTGlyph name="Gacute" xMin="49" yMin="-10" xMax="484" yMax="910">
      <contour>
        <pt x="354" y="-10" on="1"/>
        <pt x="273" y="-9" on="0"/>
        <pt x="157" y="35" on="0"/>
        <pt x="84" y="127" on="0"/>
        <pt x="49" y="270" on="0"/>
        <pt x="49" y="369" on="1"/>
        <pt x="49" y="472" on="0"/>
        <pt x="82" y="616" on="0"/>
        <pt x="155" y="707" on="0"/>
        <pt x="270" y="748" on="0"/>
        <pt x="352" y="748" on="1"/>
        <pt x="363" y="748" on="0"/>
        <pt x="394" y="746" on="0"/>
        <pt x="430" y="742" on="0"/>
        <pt x="467" y="737" on="0"/>
        <pt x="484" y="734" on="1"/>
        <pt x="484" y="700" on="1"/>
        <pt x="451" y="707" on="0"/>
        <pt x="384" y="714" on="0"/>
        <pt x="356" y="714" on="1"/>
        <pt x="282" y="714" on="0"/>
        <pt x="179" y="677" on="0"/>
        <pt x="114" y="594" on="0"/>
        <pt x="85" y="463" on="0"/>
        <pt x="85" y="369" on="1"/>
        <pt x="85" y="189" on="0"/>
        <pt x="212" y="24" on="0"/>
        <pt x="351" y="24" on="1"/>
        <pt x="365" y="24" on="0"/>
        <pt x="418" y="28" on="0"/>
        <pt x="447" y="31" on="1"/>
        <pt x="447" y="376" on="1"/>
        <pt x="481" y="376" on="1"/>
        <pt x="481" y="2" on="1"/>
        <pt x="442" y="-5" on="0"/>
        <pt x="386" y="-10" on="0"/>
      </contour>
      <contour>
        <pt x="310" y="787" on="1"/>
        <pt x="389" y="910" on="1"/>
        <pt x="427" y="910" on="1"/>
        <pt x="342" y="784" on="1"/>
      </contour>
    </TTGlyph>
    <TTGlyph name="Gacute.sc" xMin="48" yMin="-8" xMax="424" yMax="714">
      <contour>
        <pt x="308" y="-8" on="1"/>
        <pt x="239" y="-7" on="0"/>
        <pt x="141" y="28" on="0"/>
        <pt x="78" y="100" on="0"/>
        <pt x="48" y="211" on="0"/>
        <pt x="48" y="288" on="1"/>
        <pt x="48" y="367" on="0"/>
        <pt x="77" y="479" on="0"/>
        <pt x="140" y="551" on="0"/>
        <pt x="239" y="584" on="0"/>
        <pt x="309" y="584" on="1"/>
        <pt x="328" y="584" on="0"/>
        <pt x="395" y="577" on="0"/>
        <pt x="424" y="572" on="1"/>
        <pt x="424" y="539" on="1"/>
        <pt x="364" y="551" on="0"/>
        <pt x="312" y="551" on="1"/>
        <pt x="250" y="551" on="0"/>
        <pt x="163" y="522" on="0"/>
        <pt x="109" y="459" on="0"/>
        <pt x="84" y="359" on="0"/>
        <pt x="84" y="288" on="1"/>
        <pt x="84" y="150" on="0"/>
        <pt x="190" y="25" on="0"/>
        <pt x="307" y="25" on="1"/>
        <pt x="320" y="25" on="0"/>
        <pt x="364" y="28" on="0"/>
        <pt x="389" y="31" on="1"/>
        <pt x="389" y="293" on="1"/>
        <pt x="422" y="293" on="1"/>
        <pt x="422" y="3" on="1"/>
        <pt x="387" y="-3" on="0"/>
        <pt x="336" y="-8" on="0"/>
      </contour>
      <contour>
        <pt x="269" y="615" on="1"/>
        <pt x="336" y="714" on="1"/>
        <pt x="373" y="714" on="1"/>
        <pt x="300" y="613" on="1"/>
      </contour>
    </TTGlyph>
    <TTGlyph name="Gbreve" xMin="49" yMin="-10" xMax="484" yMax="948">
      <contour>
        <pt x="354" y="-10" on="1"/>
        <pt x="273" y="-9" on="0"/>
        <pt x="157" y="35" on="0"/>
        <pt x="84" y="127" on="0"/>
        <pt x="49" y="270" on="0"/>
        <pt x="49" y="369" on="1"/>
        <pt x="49" y="472" on="0"/>
        <pt x="82" y="616" on="0"/>
        <pt x="155" y="707" on="0"/>
        <pt x="270" y="748" on="0"/>
        <pt x="352" y="748" on="1"/>
        <pt x="363" y="748" on="0"/>
        <pt x="394" y="746" on="0"/>
        <pt x="430" y="742" on="0"/>
        <pt x="467" y="737" on="0"/>
        <pt x="484" y="734" on="1"/>
        <pt x="484" y="700" on="1"/>
        <pt x="451" y="707" on="0"/>
        <pt x="384" y="714" on="0"/>
        <pt x="356" y="714" on="1"/>
        <pt x="282" y="714" on="0"/>
        <pt x="179" y="677" on="0"/>
        <pt x="114" y="594" on="0"/>
        <pt x="85" y="463" on="0"/>
        <pt x="85" y="369" on="1"/>
        <pt x="85" y="189" on="0"/>
        <pt x="212" y="24" on="0"/>
        <pt x="351" y="24" on="1"/>
        <pt x="365" y="24" on="0"/>
        <pt x="418" y="28" on="0"/>
        <pt x="447" y="31" on="1"/>
        <pt x="447" y="376" on="1"/>
        <pt x="481" y="376" on="1"/>
        <pt x="481" y="2" on="1"/>
        <pt x="442" y="-5" on="0"/>
        <pt x="386" y="-10" on="0"/>
      </contour>
      <contour>
        <pt x="331" y="816" on="1"/>
        <pt x="268" y="816" on="0"/>
        <pt x="196" y="886" on="0"/>
        <pt x="196" y="948" on="1"/>
        <pt x="230" y="948" on="1"/>
        <pt x="230" y="902" on="0"/>
        <pt x="283" y="850" on="0"/>
        <pt x="331" y="850" on="1"/>
        <pt x="379" y="850" on="0"/>
        <pt x="432" y="902" on="0"/>
        <pt x="432" y="948" on="1"/>
        <pt x="466" y="948" on="1"/>
        <pt x="466" y="886" on="0"/>
        <pt x="394" y="816" on="0"/>
      </contour>
    </TTGlyph>
    <TTGlyph name="Gbreve.sc" xMin="48" yMin="-8" xMax="424" yMax="741">
      <contour>
        <pt x="308" y="-8" on="1"/>
        <pt x="239" y="-7" on="0"/>
        <pt x="141" y="28" on="0"/>
        <pt x="78" y="100" on="0"/>
        <pt x="48" y="211" on="0"/>
        <pt x="48" y="288" on="1"/>
        <pt x="48" y="367" on="0"/>
        <pt x="77" y="479" on="0"/>
        <pt x="140" y="551" on="0"/>
        <pt x="239" y="584" on="0"/>
        <pt x="309" y="584" on="1"/>
        <pt x="328" y="584" on="0"/>
        <pt x="395" y="577" on="0"/>
        <pt x="424" y="572" on="1"/>
        <pt x="424" y="539" on="1"/>
        <pt x="364" y="551" on="0"/>
        <pt x="312" y="551" on="1"/>
        <pt x="250" y="551" on="0"/>
        <pt x="163" y="522" on="0"/>
        <pt x="109" y="459" on="0"/>
        <pt x="84" y="359" on="0"/>
        <pt x="84" y="288" on="1"/>
        <pt x="84" y="150" on="0"/>
        <pt x="190" y="25" on="0"/>
        <pt x="307" y="25" on="1"/>
        <pt x="320" y="25" on="0"/>
        <pt x="364" y="28" on="0"/>
        <pt x="389" y="31" on="1"/>
        <pt x="389" y="293" on="1"/>
        <pt x="422" y="293" on="1"/>
        <pt x="422" y="3" on="1"/>
        <pt x="387" y="-3" on="0"/>
        <pt x="336" y="-8" on="0"/>
      </contour>
      <contour>
        <pt x="289" y="635" on="1"/>
        <pt x="234" y="635" on="0"/>
        <pt x="171" y="691" on="0"/>
        <pt x="171" y="741" on="1"/>
        <pt x="203" y="741" on="1"/>
        <pt x="203" y="704" on="0"/>
        <pt x="248" y="664" on="0"/>
        <pt x="289" y="664" on="1"/>
        <pt x="330" y="664" on="0"/>
        <pt x="375" y="704" on="0"/>
        <pt x="375" y="741" on="1"/>
        <pt x="407" y="741" on="1"/>
        <pt x="407" y="691" on="0"/>
        <pt x="344" y="635" on="0"/>
      </contour>
    </TTGlyph>
    <TTGlyph name="Gcircumflex" xMin="49" yMin="-10" xMax="484" yMax="932">
      <contour>
        <pt x="354" y="-10" on="1"/>
        <pt x="273" y="-9" on="0"/>
        <pt x="157" y="35" on="0"/>
        <pt x="84" y="127" on="0"/>
        <pt x="49" y="270" on="0"/>
        <pt x="49" y="369" on="1"/>
        <pt x="49" y="472" on="0"/>
        <pt x="82" y="616" on="0"/>
        <pt x="155" y="707" on="0"/>
        <pt x="270" y="748" on="0"/>
        <pt x="352" y="748" on="1"/>
        <pt x="363" y="748" on="0"/>
        <pt x="394" y="746" on="0"/>
        <pt x="430" y="742" on="0"/>
        <pt x="467" y="737" on="0"/>
        <pt x="484" y="734" on="1"/>
        <pt x="484" y="700" on="1"/>
        <pt x="451" y="707" on="0"/>
        <pt x="384" y="714" on="0"/>
        <pt x="356" y="714" on="1"/>
        <pt x="282" y="714" on="0"/>
        <pt x="179" y="677" on="0"/>
        <pt x="114" y="594" on="0"/>
        <pt x="85" y="463" on="0"/>
        <pt x="85" y="369" on="1"/>
        <pt x="85" y="189" on="0"/>
        <pt x="212" y="24" on="0"/>
        <pt x="351" y="24" on="1"/>
        <pt x="365" y="24" on="0"/>
        <pt x="418" y="28" on="0"/>
        <pt x="447" y="31" on="1"/>
        <pt x="447" y="376" on="1"/>
        <pt x="481" y="376" on="1"/>
        <pt x="481" y="2" on="1"/>
        <pt x="442" y="-5" on="0"/>
        <pt x="386" y="-10" on="0"/>
      </contour>
      <contour>
        <pt x="208" y="860" on="1"/>
        <pt x="329" y="932" on="1"/>
        <pt x="450" y="860" on="1"/>
        <pt x="450" y="819" on="1"/>
        <pt x="329" y="891" on="1"/>
        <pt x="208" y="819" on="1"/>
      </contour>
    </TTGlyph>
    <TTGlyph name="Gcircumflex.sc" xMin="48" yMin="-8" xMax="424" yMax="729">
      <contour>
        <pt x="308" y="-8" on="1"/>
        <pt x="239" y="-7" on="0"/>
        <pt x="141" y="28" on="0"/>
        <pt x="78" y="100" on="0"/>
        <pt x="48" y="211" on="0"/>
        <pt x="48" y="288" on="1"/>
        <pt x="48" y="367" on="0"/>
        <pt x="77" y="479" on="0"/>
        <pt x="140" y="551" on="0"/>
        <pt x="239" y="584" on="0"/>
        <pt x="309" y="584" on="1"/>
        <pt x="328" y="584" on="0"/>
        <pt x="395" y="577" on="0"/>
        <pt x="424" y="572" on="1"/>
        <pt x="424" y="539" on="1"/>
        <pt x="364" y="551" on="0"/>
        <pt x="312" y="551" on="1"/>
        <pt x="250" y="551" on="0"/>
        <pt x="163" y="522" on="0"/>
        <pt x="109" y="459" on="0"/>
        <pt x="84" y="359" on="0"/>
        <pt x="84" y="288" on="1"/>
        <pt x="84" y="150" on="0"/>
        <pt x="190" y="25" on="0"/>
        <pt x="307" y="25" on="1"/>
        <pt x="320" y="25" on="0"/>
        <pt x="364" y="28" on="0"/>
        <pt x="389" y="31" on="1"/>
        <pt x="389" y="293" on="1"/>
        <pt x="422" y="293" on="1"/>
        <pt x="422" y="3" on="1"/>
        <pt x="387" y="-3" on="0"/>
        <pt x="336" y="-8" on="0"/>
      </contour>
      <contour>
        <pt x="182" y="673" on="1"/>
        <pt x="288" y="729" on="1"/>
        <pt x="393" y="673" on="1"/>
        <pt x="393" y="637" on="1"/>
        <pt x="288" y="693" on="1"/>
        <pt x="182" y="637" on="1"/>
      </contour>
    </TTGlyph>
    <TTGlyph name="Gcommaaccent" xMin="49" yMin="-220" xMax="484" yMax="748">
      <contour>
        <pt x="354" y="-10" on="1"/>
        <pt x="273" y="-9" on="0"/>
        <pt x="157" y="35" on="0"/>
        <pt x="84" y="127" on="0"/>
        <pt x="49" y="270" on="0"/>
        <pt x="49" y="369" on="1"/>
        <pt x="49" y="472" on="0"/>
        <pt x="82" y="616" on="0"/>
        <pt x="155" y="707" on="0"/>
        <pt x="270" y="748" on="0"/>
        <pt x="352" y="748" on="1"/>
        <pt x="363" y="748" on="0"/>
        <pt x="394" y="746" on="0"/>
        <pt x="430" y="742" on="0"/>
        <pt x="467" y="737" on="0"/>
        <pt x="484" y="734" on="1"/>
        <pt x="484" y="700" on="1"/>
        <pt x="451" y="707" on="0"/>
        <pt x="384" y="714" on="0"/>
        <pt x="356" y="714" on="1"/>
        <pt x="282" y="714" on="0"/>
        <pt x="179" y="677" on="0"/>
        <pt x="114" y="594" on="0"/>
        <pt x="85" y="463" on="0"/>
        <pt x="85" y="369" on="1"/>
        <pt x="85" y="189" on="0"/>
        <pt x="212" y="24" on="0"/>
        <pt x="351" y="24" on="1"/>
        <pt x="365" y="24" on="0"/>
        <pt x="418" y="28" on="0"/>
        <pt x="447" y="31" on="1"/>
        <pt x="447" y="376" on="1"/>
        <pt x="481" y="376" on="1"/>
        <pt x="481" y="2" on="1"/>
        <pt x="442" y="-5" on="0"/>
        <pt x="386" y="-10" on="0"/>
      </contour>
      <contour>
        <pt x="325" y="-66" on="1"/>
        <pt x="360" y="-66" on="1"/>
        <pt x="308" y="-220" on="1"/>
        <pt x="273" y="-220" on="1"/>
      </contour>
    </TTGlyph>
    <TTGlyph name="Gcommaaccent.sc" xMin="48" yMin="-172" xMax="424" yMax="584">
      <contour>
        <pt x="308" y="-8" on="1"/>
        <pt x="239" y="-7" on="0"/>
        <pt x="141" y="28" on="0"/>
        <pt x="78" y="100" on="0"/>
        <pt x="48" y="211" on="0"/>
        <pt x="48" y="288" on="1"/>
        <pt x="48" y="367" on="0"/>
        <pt x="77" y="479" on="0"/>
        <pt x="140" y="551" on="0"/>
        <pt x="239" y="584" on="0"/>
        <pt x="309" y="584" on="1"/>
        <pt x="328" y="584" on="0"/>
        <pt x="395" y="577" on="0"/>
        <pt x="424" y="572" on="1"/>
        <pt x="424" y="539" on="1"/>
        <pt x="364" y="551" on="0"/>
        <pt x="312" y="551" on="1"/>
        <pt x="250" y="551" on="0"/>
        <pt x="163" y="522" on="0"/>
        <pt x="109" y="459" on="0"/>
        <pt x="84" y="359" on="0"/>
        <pt x="84" y="288" on="1"/>
        <pt x="84" y="150" on="0"/>
        <pt x="190" y="25" on="0"/>
        <pt x="307" y="25" on="1"/>
        <pt x="320" y="25" on="0"/>
        <pt x="364" y="28" on="0"/>
        <pt x="389" y="31" on="1"/>
        <pt x="389" y="293" on="1"/>
        <pt x="422" y="293" on="1"/>
        <pt x="422" y="3" on="1"/>
        <pt x="387" y="-3" on="0"/>
        <pt x="336" y="-8" on="0"/>
      </contour>
      <contour>
        <pt x="281" y="-52" on="1"/>
        <pt x="316" y="-52" on="1"/>
        <pt x="271" y="-172" on="1"/>
        <pt x="238" y="-172" on="1"/>
      </contour>
    </TTGlyph>
    <TTGlyph name="Gdotaccent" xMin="49" yMin="-10" xMax="484" yMax="858">
      <contour>
        <pt x="354" y="-10" on="1"/>
        <pt x="273" y="-9" on="0"/>
        <pt x="157" y="35" on="0"/>
        <pt x="84" y="127" on="0"/>
        <pt x="49" y="270" on="0"/>
        <pt x="49" y="369" on="1"/>
        <pt x="49" y="472" on="0"/>
        <pt x="82" y="616" on="0"/>
        <pt x="155" y="707" on="0"/>
        <pt x="270" y="748" on="0"/>
        <pt x="352" y="748" on="1"/>
        <pt x="363" y="748" on="0"/>
        <pt x="394" y="746" on="0"/>
        <pt x="430" y="742" on="0"/>
        <pt x="467" y="737" on="0"/>
        <pt x="484" y="734" on="1"/>
        <pt x="484" y="700" on="1"/>
        <pt x="451" y="707" on="0"/>
        <pt x="384" y="714" on="0"/>
        <pt x="356" y="714" on="1"/>
        <pt x="282" y="714" on="0"/>
        <pt x="179" y="677" on="0"/>
        <pt x="114" y="594" on="0"/>
        <pt x="85" y="463" on="0"/>
        <pt x="85" y="369" on="1"/>
        <pt x="85" y="189" on="0"/>
        <pt x="212" y="24" on="0"/>
        <pt x="351" y="24" on="1"/>
        <pt x="365" y="24" on="0"/>
        <pt x="418" y="28" on="0"/>
        <pt x="447" y="31" on="1"/>
        <pt x="447" y="376" on="1"/>
        <pt x="481" y="376" on="1"/>
        <pt x="481" y="2" on="1"/>
        <pt x="442" y="-5" on="0"/>
        <pt x="386" y="-10" on="0"/>
      </contour>
      <contour>
        <pt x="329" y="799" on="1"/>
        <pt x="317" y="799" on="0"/>
        <pt x="300" y="813" on="0"/>
        <pt x="300" y="828" on="1"/>
        <pt x="300" y="844" on="0"/>
        <pt x="317" y="858" on="0"/>
        <pt x="329" y="858" on="1"/>
        <pt x="341" y="858" on="0"/>
        <pt x="359" y="843" on="0"/>
        <pt x="359" y="828" on="1"/>
        <pt x="359" y="813" on="0"/>
        <pt x="341" y="799" on="0"/>
      </contour>
    </TTGlyph>
    <TTGlyph name="Gdotaccent.sc" xMin="48" yMin="-8" xMax="424" yMax="677">
      <contour>
        <pt x="308" y="-8" on="1"/>
        <pt x="239" y="-7" on="0"/>
        <pt x="141" y="28" on="0"/>
        <pt x="78" y="100" on="0"/>
        <pt x="48" y="211" on="0"/>
        <pt x="48" y="288" on="1"/>
        <pt x="48" y="367" on="0"/>
        <pt x="77" y="479" on="0"/>
        <pt x="140" y="551" on="0"/>
        <pt x="239" y="584" on="0"/>
        <pt x="309" y="584" on="1"/>
        <pt x="328" y="584" on="0"/>
        <pt x="395" y="577" on="0"/>
        <pt x="424" y="572" on="1"/>
        <pt x="424" y="539" on="1"/>
        <pt x="364" y="551" on="0"/>
        <pt x="312" y="551" on="1"/>
        <pt x="250" y="551" on="0"/>
        <pt x="163" y="522" on="0"/>
        <pt x="109" y="459" on="0"/>
        <pt x="84" y="359" on="0"/>
        <pt x="84" y="288" on="1"/>
        <pt x="84" y="150" on="0"/>
        <pt x="190" y="25" on="0"/>
        <pt x="307" y="25" on="1"/>
        <pt x="320" y="25" on="0"/>
        <pt x="364" y="28" on="0"/>
        <pt x="389" y="31" on="1"/>
        <pt x="389" y="293" on="1"/>
        <pt x="422" y="293" on="1"/>
        <pt x="422" y="3" on="1"/>
        <pt x="387" y="-3" on="0"/>
        <pt x="336" y="-8" on="0"/>
      </contour>
      <contour>
        <pt x="288" y="624" on="1"/>
        <pt x="276" y="624" on="0"/>
        <pt x="260" y="637" on="0"/>
        <pt x="260" y="651" on="1"/>
        <pt x="260" y="665" on="0"/>
        <pt x="276" y="677" on="0"/>
        <pt x="288" y="677" on="1"/>
        <pt x="299" y="677" on="0"/>
        <pt x="316" y="665" on="0"/>
        <pt x="316" y="651" on="1"/>
        <pt x="316" y="637" on="0"/>
        <pt x="299" y="624" on="0"/>
      </contour>
    </TTGlyph>
    <TTGlyph name="H" xMin="81" yMin="0" xMax="520" yMax="740">
      <contour>
        <pt x="81" y="740" on="1"/>
        <pt x="115" y="740" on="1"/>
        <pt x="115" y="394" on="1"/>
        <pt x="486" y="394" on="1"/>
        <pt x="486" y="740" on="1"/>
        <pt x="520" y="740" on="1"/>
        <pt x="520" y="0" on="1"/>
        <pt x="486" y="0" on="1"/>
        <pt x="486" y="360" on="1"/>
        <pt x="115" y="360" on="1"/>
        <pt x="115" y="0" on="1"/>
        <pt x="81" y="0" on="1"/>
      </contour>
    </TTGlyph>
    <TTGlyph name="H.sc" xMin="77" yMin="0" xMax="460" yMax="577">
      <contour>
        <pt x="77" y="577" on="1"/>
        <pt x="111" y="577" on="1"/>
        <pt x="111" y="311" on="1"/>
        <pt x="426" y="311" on="1"/>
        <pt x="426" y="577" on="1"/>
        <pt x="460" y="577" on="1"/>
        <pt x="460" y="0" on="1"/>
        <pt x="426" y="0" on="1"/>
        <pt x="426" y="278" on="1"/>
        <pt x="111" y="278" on="1"/>
        <pt x="111" y="0" on="1"/>
        <pt x="77" y="0" on="1"/>
      </contour>
    </TTGlyph>
    <TTGlyph name="Hbar" xMin="1" yMin="0" xMax="637" yMax="740">
      <contour>
        <pt x="1" y="575" on="1"/>
        <pt x="100" y="575" on="1"/>
        <pt x="100" y="740" on="1"/>
        <pt x="134" y="740" on="1"/>
        <pt x="134" y="575" on="1"/>
        <pt x="505" y="575" on="1"/>
        <pt x="505" y="740" on="1"/>
        <pt x="539" y="740" on="1"/>
        <pt x="539" y="575" on="1"/>
        <pt x="637" y="575" on="1"/>
        <pt x="637" y="550" on="1"/>
        <pt x="539" y="550" on="1"/>
        <pt x="539" y="0" on="1"/>
        <pt x="505" y="0" on="1"/>
        <pt x="505" y="360" on="1"/>
        <pt x="134" y="360" on="1"/>
        <pt x="134" y="0" on="1"/>
        <pt x="100" y="0" on="1"/>
        <pt x="100" y="550" on="1"/>
        <pt x="1" y="550" on="1"/>
      </contour>
      <contour>
        <pt x="505" y="394" on="1"/>
        <pt x="505" y="550" on="1"/>
        <pt x="134" y="550" on="1"/>
        <pt x="134" y="394" on="1"/>
      </contour>
    </TTGlyph>
    <TTGlyph name="Hbar.sc" xMin="6" yMin="0" xMax="555" yMax="577">
      <contour>
        <pt x="6" y="451" on="1"/>
        <pt x="89" y="451" on="1"/>
        <pt x="89" y="577" on="1"/>
        <pt x="123" y="577" on="1"/>
        <pt x="123" y="451" on="1"/>
        <pt x="438" y="451" on="1"/>
        <pt x="438" y="577" on="1"/>
        <pt x="472" y="577" on="1"/>
        <pt x="472" y="451" on="1"/>
        <pt x="555" y="451" on="1"/>
        <pt x="555" y="428" on="1"/>
        <pt x="472" y="428" on="1"/>
        <pt x="472" y="0" on="1"/>
        <pt x="438" y="0" on="1"/>
        <pt x="438" y="278" on="1"/>
        <pt x="123" y="278" on="1"/>
        <pt x="123" y="0" on="1"/>
        <pt x="89" y="0" on="1"/>
        <pt x="89" y="428" on="1"/>
        <pt x="6" y="428" on="1"/>
      </contour>
      <contour>
        <pt x="438" y="311" on="1"/>
        <pt x="438" y="428" on="1"/>
        <pt x="123" y="428" on="1"/>
        <pt x="123" y="311" on="1"/>
      </contour>
    </TTGlyph>
    <TTGlyph name="Hcircumflex" xMin="81" yMin="0" xMax="520" yMax="932">
      <contour>
        <pt x="81" y="740" on="1"/>
        <pt x="115" y="740" on="1"/>
        <pt x="115" y="394" on="1"/>
        <pt x="486" y="394" on="1"/>
        <pt x="486" y="740" on="1"/>
        <pt x="520" y="740" on="1"/>
        <pt x="520" y="0" on="1"/>
        <pt x="486" y="0" on="1"/>
        <pt x="486" y="360" on="1"/>
        <pt x="115" y="360" on="1"/>
        <pt x="115" y="0" on="1"/>
        <pt x="81" y="0" on="1"/>
      </contour>
      <contour>
        <pt x="167" y="860" on="1"/>
        <pt x="288" y="932" on="1"/>
        <pt x="409" y="860" on="1"/>
        <pt x="409" y="819" on="1"/>
        <pt x="288" y="891" on="1"/>
        <pt x="167" y="819" on="1"/>
      </contour>
    </TTGlyph>
    <TTGlyph name="Hcircumflex.sc" xMin="77" yMin="0" xMax="460" yMax="729">
      <contour>
        <pt x="77" y="577" on="1"/>
        <pt x="111" y="577" on="1"/>
        <pt x="111" y="311" on="1"/>
        <pt x="426" y="311" on="1"/>
        <pt x="426" y="577" on="1"/>
        <pt x="460" y="577" on="1"/>
        <pt x="460" y="0" on="1"/>
        <pt x="426" y="0" on="1"/>
        <pt x="426" y="278" on="1"/>
        <pt x="111" y="278" on="1"/>
        <pt x="111" y="0" on="1"/>
        <pt x="77" y="0" on="1"/>
      </contour>
      <contour>
        <pt x="153" y="673" on="1"/>
        <pt x="259" y="729" on="1"/>
        <pt x="364" y="673" on="1"/>
        <pt x="364" y="637" on="1"/>
        <pt x="259" y="693" on="1"/>
        <pt x="153" y="637" on="1"/>
      </contour>
    </TTGlyph>
    <TTGlyph name="Hdotbelow" xMin="81" yMin="-160" xMax="520" yMax="740">
      <contour>
        <pt x="81" y="740" on="1"/>
        <pt x="115" y="740" on="1"/>
        <pt x="115" y="394" on="1"/>
        <pt x="486" y="394" on="1"/>
        <pt x="486" y="740" on="1"/>
        <pt x="520" y="740" on="1"/>
        <pt x="520" y="0" on="1"/>
        <pt x="486" y="0" on="1"/>
        <pt x="486" y="360" on="1"/>
        <pt x="115" y="360" on="1"/>
        <pt x="115" y="0" on="1"/>
        <pt x="81" y="0" on="1"/>
      </contour>
      <contour>
        <pt x="308" y="-160" on="1"/>
        <pt x="292" y="-160" on="0"/>
        <pt x="273" y="-144" on="0"/>
        <pt x="273" y="-125" on="1"/>
        <pt x="273" y="-105" on="0"/>
        <pt x="292" y="-90" on="0"/>
        <pt x="308" y="-90" on="1"/>
        <pt x="323" y="-90" on="0"/>
        <pt x="343" y="-106" on="0"/>
        <pt x="343" y="-125" on="1"/>
        <pt x="343" y="-144" on="0"/>
        <pt x="323" y="-160" on="0"/>
      </contour>
    </TTGlyph>
    <TTGlyph name="Hdotbelow.sc" xMin="77" yMin="-128" xMax="460" yMax="577">
      <contour>
        <pt x="77" y="577" on="1"/>
        <pt x="111" y="577" on="1"/>
        <pt x="111" y="311" on="1"/>
        <pt x="426" y="311" on="1"/>
        <pt x="426" y="577" on="1"/>
        <pt x="460" y="577" on="1"/>
        <pt x="460" y="0" on="1"/>
        <pt x="426" y="0" on="1"/>
        <pt x="426" y="278" on="1"/>
        <pt x="111" y="278" on="1"/>
        <pt x="111" y="0" on="1"/>
        <pt x="77" y="0" on="1"/>
      </contour>
      <contour>
        <pt x="275" y="-128" on="1"/>
        <pt x="244" y="-128" on="0"/>
        <pt x="244" y="-99" on="1"/>
        <pt x="244" y="-82" on="0"/>
        <pt x="261" y="-69" on="0"/>
        <pt x="275" y="-69" on="1"/>
        <pt x="289" y="-69" on="0"/>
        <pt x="306" y="-83" on="0"/>
        <pt x="306" y="-99" on="1"/>
        <pt x="306" y="-115" on="0"/>
        <pt x="289" y="-128" on="0"/>
      </contour>
    </TTGlyph>
    <TTGlyph name="I" xMin="81" yMin="0" xMax="115" yMax="740">
      <contour>
        <pt x="81" y="740" on="1"/>
        <pt x="115" y="740" on="1"/>
        <pt x="115" y="0" on="1"/>
        <pt x="81" y="0" on="1"/>
      </contour>
    </TTGlyph>
    <TTGlyph name="I.sc" xMin="77" yMin="0" xMax="111" yMax="577">
      <contour>
        <pt x="77" y="577" on="1"/>
        <pt x="111" y="577" on="1"/>
        <pt x="111" y="0" on="1"/>
        <pt x="77" y="0" on="1"/>
      </contour>
    </TTGlyph>
    <TTGlyph name="IJ" xMin="81" yMin="-175" xMax="313" yMax="740">
      <contour>
        <pt x="81" y="740" on="1"/>
        <pt x="115" y="740" on="1"/>
        <pt x="115" y="0" on="1"/>
        <pt x="81" y="0" on="1"/>
      </contour>
      <contour>
        <pt x="194" y="-159" on="1"/>
        <pt x="220" y="-104" on="0"/>
        <pt x="253" y="-21" on="0"/>
        <pt x="272" y="54" on="0"/>
        <pt x="279" y="131" on="0"/>
        <pt x="279" y="180" on="1"/>
        <pt x="279" y="740" on="1"/>
        <pt x="313" y="740" on="1"/>
        <pt x="313" y="180" on="1"/>
        <pt x="313" y="87" on="0"/>
        <pt x="267" y="-84" on="0"/>
        <pt x="218" y="-175" on="1"/>
      </contour>
    </TTGlyph>
    <TTGlyph name="Iacute" xMin="81" yMin="0" xMax="199" yMax="910">
      <contour>
        <pt x="81" y="740" on="1"/>
        <pt x="115" y="740" on="1"/>
        <pt x="115" y="0" on="1"/>
        <pt x="81" y="0" on="1"/>
      </contour>
      <contour>
        <pt x="82" y="787" on="1"/>
        <pt x="161" y="910" on="1"/>
        <pt x="199" y="910" on="1"/>
        <pt x="114" y="784" on="1"/>
      </contour>
    </TTGlyph>
    <TTGlyph name="Iacute.sc" xMin="77" yMin="0" xMax="182" yMax="714">
      <contour>
        <pt x="77" y="577" on="1"/>
        <pt x="111" y="577" on="1"/>
        <pt x="111" y="0" on="1"/>
        <pt x="77" y="0" on="1"/>
      </contour>
      <contour>
        <pt x="78" y="615" on="1"/>
        <pt x="145" y="714" on="1"/>
        <pt x="182" y="714" on="1"/>
        <pt x="109" y="613" on="1"/>
      </contour>
    </TTGlyph>
    <TTGlyph name="Ibreve" xMin="-32" yMin="0" xMax="238" yMax="948">
      <contour>
        <pt x="81" y="740" on="1"/>
        <pt x="115" y="740" on="1"/>
        <pt x="115" y="0" on="1"/>
        <pt x="81" y="0" on="1"/>
      </contour>
      <contour>
        <pt x="103" y="816" on="1"/>
        <pt x="40" y="816" on="0"/>
        <pt x="-32" y="886" on="0"/>
        <pt x="-32" y="948" on="1"/>
        <pt x="2" y="948" on="1"/>
        <pt x="2" y="902" on="0"/>
        <pt x="55" y="850" on="0"/>
        <pt x="103" y="850" on="1"/>
        <pt x="151" y="850" on="0"/>
        <pt x="204" y="902" on="0"/>
        <pt x="204" y="948" on="1"/>
        <pt x="238" y="948" on="1"/>
        <pt x="238" y="886" on="0"/>
        <pt x="166" y="816" on="0"/>
      </contour>
    </TTGlyph>
    <TTGlyph name="Ibreve.sc" xMin="-20" yMin="0" xMax="215" yMax="741">
      <contour>
        <pt x="77" y="577" on="1"/>
        <pt x="111" y="577" on="1"/>
        <pt x="111" y="0" on="1"/>
        <pt x="77" y="0" on="1"/>
      </contour>
      <contour>
        <pt x="98" y="635" on="1"/>
        <pt x="42" y="635" on="0"/>
        <pt x="-20" y="691" on="0"/>
        <pt x="-20" y="741" on="1"/>
        <pt x="12" y="741" on="1"/>
        <pt x="12" y="704" on="0"/>
        <pt x="57" y="664" on="0"/>
        <pt x="98" y="664" on="1"/>
        <pt x="138" y="664" on="0"/>
        <pt x="183" y="704" on="0"/>
        <pt x="183" y="741" on="1"/>
        <pt x="215" y="741" on="1"/>
        <pt x="215" y="691" on="0"/>
        <pt x="153" y="635" on="0"/>
      </contour>
    </TTGlyph>
    <TTGlyph name="Icircumflex" xMin="-20" yMin="0" xMax="222" yMax="932">
      <contour>
        <pt x="81" y="740" on="1"/>
        <pt x="115" y="740" on="1"/>
        <pt x="115" y="0" on="1"/>
        <pt x="81" y="0" on="1"/>
      </contour>
      <contour>
        <pt x="-20" y="860" on="1"/>
        <pt x="101" y="932" on="1"/>
        <pt x="222" y="860" on="1"/>
        <pt x="222" y="819" on="1"/>
        <pt x="101" y="891" on="1"/>
        <pt x="-20" y="819" on="1"/>
      </contour>
    </TTGlyph>
    <TTGlyph name="Icircumflex.sc" xMin="-9" yMin="0" xMax="202" yMax="729">
      <contour>
        <pt x="77" y="577" on="1"/>
        <pt x="111" y="577" on="1"/>
        <pt x="111" y="0" on="1"/>
        <pt x="77" y="0" on="1"/>
      </contour>
      <contour>
        <pt x="-9" y="673" on="1"/>
        <pt x="97" y="729" on="1"/>
        <pt x="202" y="673" on="1"/>
        <pt x="202" y="637" on="1"/>
        <pt x="97" y="693" on="1"/>
        <pt x="-9" y="637" on="1"/>
      </contour>
    </TTGlyph>
    <TTGlyph name="Idblgrave" xMin="-62" yMin="0" xMax="182" yMax="910">
      <contour>
        <pt x="81" y="740" on="1"/>
        <pt x="115" y="740" on="1"/>
        <pt x="115" y="0" on="1"/>
        <pt x="81" y="0" on="1"/>
      </contour>
      <contour>
        <pt x="23" y="784" on="1"/>
        <pt x="-62" y="910" on="1"/>
        <pt x="-24" y="910" on="1"/>
        <pt x="55" y="798" on="1"/>
      </contour>
      <contour>
        <pt x="150" y="784" on="1"/>
        <pt x="65" y="910" on="1"/>
        <pt x="103" y="910" on="1"/>
        <pt x="182" y="798" on="1"/>
      </contour>
    </TTGlyph>
    <TTGlyph name="Idblgrave.sc" xMin="-45" yMin="0" xMax="168" yMax="714">
      <contour>
        <pt x="77" y="577" on="1"/>
        <pt x="111" y="577" on="1"/>
        <pt x="111" y="0" on="1"/>
        <pt x="77" y="0" on="1"/>
      </contour>
      <contour>
        <pt x="29" y="612" on="1"/>
        <pt x="-45" y="714" on="1"/>
        <pt x="-9" y="714" on="1"/>
        <pt x="58" y="623" on="1"/>
      </contour>
      <contour>
        <pt x="139" y="612" on="1"/>
        <pt x="65" y="714" on="1"/>
        <pt x="101" y="714" on="1"/>
        <pt x="168" y="623" on="1"/>
      </contour>
    </TTGlyph>
    <TTGlyph name="Idieresis" xMin="-11" yMin="0" xMax="215" yMax="873">
      <contour>
        <pt x="81" y="740" on="1"/>
        <pt x="115" y="740" on="1"/>
        <pt x="115" y="0" on="1"/>
        <pt x="81" y="0" on="1"/>
      </contour>
      <contour>
        <pt x="18" y="814" on="1"/>
        <pt x="6" y="814" on="0"/>
        <pt x="-11" y="828" on="0"/>
        <pt x="-11" y="843" on="1"/>
        <pt x="-11" y="859" on="0"/>
        <pt x="6" y="873" on="0"/>
        <pt x="18" y="873" on="1"/>
        <pt x="30" y="873" on="0"/>
        <pt x="48" y="858" on="0"/>
        <pt x="48" y="843" on="1"/>
        <pt x="48" y="828" on="0"/>
        <pt x="30" y="814" on="0"/>
      </contour>
      <contour>
        <pt x="185" y="814" on="1"/>
        <pt x="173" y="814" on="0"/>
        <pt x="155" y="828" on="0"/>
        <pt x="155" y="843" on="1"/>
        <pt x="155" y="859" on="0"/>
        <pt x="173" y="873" on="0"/>
        <pt x="185" y="873" on="1"/>
        <pt x="196" y="873" on="0"/>
        <pt x="215" y="858" on="0"/>
        <pt x="215" y="843" on="1"/>
        <pt x="215" y="828" on="0"/>
        <pt x="196" y="814" on="0"/>
      </contour>
    </TTGlyph>
    <TTGlyph name="Idieresis.sc" xMin="-5" yMin="0" xMax="199" yMax="688">
      <contour>
        <pt x="77" y="577" on="1"/>
        <pt x="111" y="577" on="1"/>
        <pt x="111" y="0" on="1"/>
        <pt x="77" y="0" on="1"/>
      </contour>
      <contour>
        <pt x="22" y="635" on="1"/>
        <pt x="11" y="635" on="0"/>
        <pt x="-5" y="647" on="0"/>
        <pt x="-5" y="661" on="1"/>
        <pt x="-5" y="675" on="0"/>
        <pt x="11" y="688" on="0"/>
        <pt x="22" y="688" on="1"/>
        <pt x="34" y="688" on="0"/>
        <pt x="50" y="675" on="0"/>
        <pt x="50" y="661" on="1"/>
        <pt x="50" y="647" on="0"/>
        <pt x="34" y="635" on="0"/>
      </contour>
      <contour>
        <pt x="171" y="635" on="1"/>
        <pt x="160" y="635" on="0"/>
        <pt x="143" y="647" on="0"/>
        <pt x="143" y="661" on="1"/>
        <pt x="143" y="675" on="0"/>
        <pt x="160" y="688" on="0"/>
        <pt x="171" y="688" on="1"/>
        <pt x="182" y="688" on="0"/>
        <pt x="199" y="675" on="0"/>
        <pt x="199" y="661" on="1"/>
        <pt x="199" y="647" on="0"/>
        <pt x="182" y="635" on="0"/>
      </contour>
    </TTGlyph>
    <TTGlyph name="Idotaccent" xMin="72" yMin="0" xMax="131" yMax="858">
      <contour>
        <pt x="81" y="740" on="1"/>
        <pt x="115" y="740" on="1"/>
        <pt x="115" y="0" on="1"/>
        <pt x="81" y="0" on="1"/>
      </contour>
      <contour>
        <pt x="101" y="799" on="1"/>
        <pt x="89" y="799" on="0"/>
        <pt x="72" y="813" on="0"/>
        <pt x="72" y="828" on="1"/>
        <pt x="72" y="844" on="0"/>
        <pt x="89" y="858" on="0"/>
        <pt x="101" y="858" on="1"/>
        <pt x="113" y="858" on="0"/>
        <pt x="131" y="843" on="0"/>
        <pt x="131" y="828" on="1"/>
        <pt x="131" y="813" on="0"/>
        <pt x="113" y="799" on="0"/>
      </contour>
    </TTGlyph>
    <TTGlyph name="Idotaccent.sc" xMin="69" yMin="0" xMax="124" yMax="677">
      <contour>
        <pt x="77" y="577" on="1"/>
        <pt x="111" y="577" on="1"/>
        <pt x="111" y="0" on="1"/>
        <pt x="77" y="0" on="1"/>
      </contour>
      <contour>
        <pt x="96" y="624" on="1"/>
        <pt x="85" y="624" on="0"/>
        <pt x="69" y="637" on="0"/>
        <pt x="69" y="651" on="1"/>
        <pt x="69" y="665" on="0"/>
        <pt x="85" y="677" on="0"/>
        <pt x="96" y="677" on="1"/>
        <pt x="108" y="677" on="0"/>
        <pt x="124" y="665" on="0"/>
        <pt x="124" y="651" on="1"/>
        <pt x="124" y="637" on="0"/>
        <pt x="108" y="624" on="0"/>
      </contour>
    </TTGlyph>
    <TTGlyph name="Idotbelow" xMin="66" yMin="-160" xMax="136" yMax="740">
      <contour>
        <pt x="81" y="740" on="1"/>
        <pt x="115" y="740" on="1"/>
        <pt x="115" y="0" on="1"/>
        <pt x="81" y="0" on="1"/>
      </contour>
      <contour>
        <pt x="101" y="-160" on="1"/>
        <pt x="85" y="-160" on="0"/>
        <pt x="66" y="-144" on="0"/>
        <pt x="66" y="-125" on="1"/>
        <pt x="66" y="-105" on="0"/>
        <pt x="85" y="-90" on="0"/>
        <pt x="101" y="-90" on="1"/>
        <pt x="116" y="-90" on="0"/>
        <pt x="136" y="-106" on="0"/>
        <pt x="136" y="-125" on="1"/>
        <pt x="136" y="-144" on="0"/>
        <pt x="116" y="-160" on="0"/>
      </contour>
    </TTGlyph>
    <TTGlyph name="Idotbelow.sc" xMin="65" yMin="-128" xMax="128" yMax="577">
      <contour>
        <pt x="77" y="577" on="1"/>
        <pt x="111" y="577" on="1"/>
        <pt x="111" y="0" on="1"/>
        <pt x="77" y="0" on="1"/>
      </contour>
      <contour>
        <pt x="96" y="-128" on="1"/>
        <pt x="65" y="-128" on="0"/>
        <pt x="65" y="-99" on="1"/>
        <pt x="65" y="-82" on="0"/>
        <pt x="82" y="-69" on="0"/>
        <pt x="96" y="-69" on="1"/>
        <pt x="110" y="-69" on="0"/>
        <pt x="128" y="-83" on="0"/>
        <pt x="128" y="-99" on="1"/>
        <pt x="128" y="-115" on="0"/>
        <pt x="110" y="-128" on="0"/>
      </contour>
    </TTGlyph>
    <TTGlyph name="Igrave" xMin="-4" yMin="0" xMax="115" yMax="910">
      <contour>
        <pt x="81" y="740" on="1"/>
        <pt x="115" y="740" on="1"/>
        <pt x="115" y="0" on="1"/>
        <pt x="81" y="0" on="1"/>
      </contour>
      <contour>
        <pt x="81" y="784" on="1"/>
        <pt x="-4" y="910" on="1"/>
        <pt x="34" y="910" on="1"/>
        <pt x="113" y="798" on="1"/>
      </contour>
    </TTGlyph>
    <TTGlyph name="Igrave.sc" xMin="5" yMin="0" xMax="112" yMax="714">
      <contour>
        <pt x="77" y="577" on="1"/>
        <pt x="112" y="577" on="1"/>
        <pt x="112" y="0" on="1"/>
        <pt x="77" y="0" on="1"/>
      </contour>
      <contour>
        <pt x="78" y="613" on="1"/>
        <pt x="5" y="714" on="1"/>
        <pt x="42" y="714" on="1"/>
        <pt x="109" y="623" on="1"/>
      </contour>
    </TTGlyph>
    <TTGlyph name="Iinvertedbreve" xMin="-34" yMin="0" xMax="236" yMax="958">
      <contour>
        <pt x="81" y="740" on="1"/>
        <pt x="115" y="740" on="1"/>
        <pt x="115" y="0" on="1"/>
        <pt x="81" y="0" on="1"/>
      </contour>
      <contour>
        <pt x="202" y="826" on="1"/>
        <pt x="202" y="872" on="0"/>
        <pt x="149" y="924" on="0"/>
        <pt x="101" y="924" on="1"/>
        <pt x="53" y="924" on="0"/>
        <pt x="0" y="872" on="0"/>
        <pt x="0" y="826" on="1"/>
        <pt x="-34" y="826" on="1"/>
        <pt x="-34" y="888" on="0"/>
        <pt x="38" y="958" on="0"/>
        <pt x="101" y="958" on="1"/>
        <pt x="164" y="958" on="0"/>
        <pt x="236" y="888" on="0"/>
        <pt x="236" y="826" on="1"/>
      </contour>
    </TTGlyph>
    <TTGlyph name="Iinvertedbreve.sc" xMin="-21" yMin="0" xMax="214" yMax="748">
      <contour>
        <pt x="77" y="577" on="1"/>
        <pt x="111" y="577" on="1"/>
        <pt x="111" y="0" on="1"/>
        <pt x="77" y="0" on="1"/>
      </contour>
      <contour>
        <pt x="182" y="643" on="1"/>
        <pt x="182" y="679" on="0"/>
        <pt x="137" y="719" on="0"/>
        <pt x="97" y="719" on="1"/>
        <pt x="56" y="719" on="0"/>
        <pt x="11" y="679" on="0"/>
        <pt x="11" y="643" on="1"/>
        <pt x="-21" y="643" on="1"/>
        <pt x="-21" y="692" on="0"/>
        <pt x="41" y="748" on="0"/>
        <pt x="97" y="748" on="1"/>
        <pt x="152" y="748" on="0"/>
        <pt x="214" y="692" on="0"/>
        <pt x="214" y="643" on="1"/>
      </contour>
    </TTGlyph>
    <TTGlyph name="Imacron" xMin="-13" yMin="0" xMax="196" yMax="876">
      <contour>
        <pt x="81" y="740" on="1"/>
        <pt x="115" y="740" on="1"/>
        <pt x="115" y="0" on="1"/>
        <pt x="81" y="0" on="1"/>
      </contour>
      <contour>
        <pt x="-13" y="876" on="1"/>
        <pt x="196" y="876" on="1"/>
        <pt x="196" y="842" on="1"/>
        <pt x="-13" y="842" on="1"/>
      </contour>
    </TTGlyph>
    <TTGlyph name="Imacron.sc" xMin="-4" yMin="0" xMax="182" yMax="687">
      <contour>
        <pt x="77" y="577" on="1"/>
        <pt x="111" y="577" on="1"/>
        <pt x="111" y="0" on="1"/>
        <pt x="77" y="0" on="1"/>
      </contour>
      <contour>
        <pt x="-4" y="687" on="1"/>
        <pt x="182" y="687" on="1"/>
        <pt x="182" y="656" on="1"/>
        <pt x="-4" y="656" on="1"/>
      </contour>
    </TTGlyph>
    <TTGlyph name="Iogonek" xMin="-8" yMin="-220" xMax="115" yMax="740">
      <contour>
        <pt x="81" y="740" on="1"/>
        <pt x="115" y="740" on="1"/>
        <pt x="115" y="-19" on="1"/>
        <pt x="67" y="-45" on="0"/>
        <pt x="26" y="-99" on="0"/>
        <pt x="26" y="-135" on="1"/>
        <pt x="26" y="-162" on="0"/>
        <pt x="49" y="-186" on="0"/>
        <pt x="74" y="-186" on="1"/>
        <pt x="96" y="-186" on="0"/>
        <pt x="115" y="-176" on="1"/>
        <pt x="115" y="-208" on="1"/>
        <pt x="94" y="-220" on="0"/>
        <pt x="69" y="-220" on="1"/>
        <pt x="34" y="-220" on="0"/>
        <pt x="-8" y="-176" on="0"/>
        <pt x="-8" y="-138" on="1"/>
        <pt x="-8" y="-58" on="0"/>
        <pt x="86" y="0" on="1"/>
        <pt x="81" y="0" on="1"/>
      </contour>
    </TTGlyph>
    <TTGlyph name="Iogonek.sc" xMin="2" yMin="-172" xMax="111" yMax="577">
      <contour>
        <pt x="77" y="577" on="1"/>
        <pt x="111" y="577" on="1"/>
        <pt x="111" y="-14" on="1"/>
        <pt x="76" y="-27" on="0"/>
        <pt x="34" y="-77" on="0"/>
        <pt x="34" y="-106" on="1"/>
        <pt x="34" y="-142" on="0"/>
        <pt x="74" y="-142" on="1"/>
        <pt x="93" y="-142" on="0"/>
        <pt x="111" y="-134" on="1"/>
        <pt x="111" y="-162" on="1"/>
        <pt x="91" y="-172" on="0"/>
        <pt x="72" y="-172" on="1"/>
        <pt x="39" y="-172" on="0"/>
        <pt x="2" y="-138" on="0"/>
        <pt x="2" y="-107" on="1"/>
        <pt x="2" y="-45" on="0"/>
        <pt x="82" y="0" on="1"/>
        <pt x="77" y="0" on="1"/>
      </contour>
    </TTGlyph>
    <TTGlyph name="Itilde" xMin="-40" yMin="0" xMax="242" yMax="899">
      <contour>
        <pt x="81" y="740" on="1"/>
        <pt x="115" y="740" on="1"/>
        <pt x="115" y="0" on="1"/>
        <pt x="81" y="0" on="1"/>
      </contour>
      <contour>
        <pt x="-40" y="850" on="1"/>
        <pt x="-26" y="867" on="0"/>
        <pt x="21" y="899" on="0"/>
        <pt x="44" y="899" on="1"/>
        <pt x="63" y="899" on="0"/>
        <pt x="93" y="886" on="0"/>
        <pt x="120" y="869" on="0"/>
        <pt x="147" y="856" on="0"/>
        <pt x="163" y="856" on="1"/>
        <pt x="179" y="856" on="0"/>
        <pt x="206" y="878" on="0"/>
        <pt x="214" y="896" on="1"/>
        <pt x="242" y="876" on="1"/>
        <pt x="232" y="853" on="0"/>
        <pt x="186" y="822" on="0"/>
        <pt x="163" y="822" on="1"/>
        <pt x="144" y="822" on="0"/>
        <pt x="114" y="835" on="0"/>
        <pt x="87" y="852" on="0"/>
        <pt x="60" y="865" on="0"/>
        <pt x="44" y="865" on="1"/>
        <pt x="27" y="865" on="0"/>
        <pt x="-5" y="841" on="0"/>
        <pt x="-16" y="826" on="1"/>
      </contour>
    </TTGlyph>
    <TTGlyph name="Itilde.sc" xMin="-27" yMin="0" xMax="221" yMax="705">
      <contour>
        <pt x="77" y="577" on="1"/>
        <pt x="111" y="577" on="1"/>
        <pt x="111" y="0" on="1"/>
        <pt x="77" y="0" on="1"/>
      </contour>
      <contour>
        <pt x="-27" y="663" on="1"/>
        <pt x="-14" y="679" on="0"/>
        <pt x="27" y="705" on="0"/>
        <pt x="48" y="705" on="1"/>
        <pt x="64" y="705" on="0"/>
        <pt x="90" y="695" on="0"/>
        <pt x="114" y="682" on="0"/>
        <pt x="138" y="672" on="0"/>
        <pt x="152" y="672" on="1"/>
        <pt x="166" y="672" on="0"/>
        <pt x="190" y="689" on="0"/>
        <pt x="198" y="703" on="1"/>
        <pt x="221" y="687" on="1"/>
        <pt x="211" y="667" on="0"/>
        <pt x="171" y="641" on="0"/>
        <pt x="150" y="641" on="1"/>
        <pt x="134" y="641" on="0"/>
        <pt x="108" y="652" on="0"/>
        <pt x="84" y="664" on="0"/>
        <pt x="60" y="675" on="0"/>
        <pt x="46" y="675" on="1"/>
        <pt x="32" y="675" on="0"/>
        <pt x="3" y="657" on="0"/>
        <pt x="-7" y="644" on="1"/>
      </contour>
    </TTGlyph>
    <TTGlyph name="J" xMin="-2" yMin="-175" xMax="117" yMax="740">
      <contour>
        <pt x="-2" y="-159" on="1"/>
        <pt x="24" y="-104" on="0"/>
        <pt x="57" y="-21" on="0"/>
        <pt x="76" y="54" on="0"/>
        <pt x="83" y="131" on="0"/>
        <pt x="83" y="180" on="1"/>
        <pt x="83" y="740" on="1"/>
        <pt x="117" y="740" on="1"/>
        <pt x="117" y="180" on="1"/>
        <pt x="117" y="87" on="0"/>
        <pt x="71" y="-84" on="0"/>
        <pt x="22" y="-175" on="1"/>
      </contour>
    </TTGlyph>
    <TTGlyph name="J.sc" xMin="7" yMin="-138" xMax="113" yMax="577">
      <contour>
        <pt x="7" y="-124" on="1"/>
        <pt x="29" y="-82" on="0"/>
        <pt x="57" y="-17" on="0"/>
        <pt x="73" y="42" on="0"/>
        <pt x="79" y="103" on="0"/>
        <pt x="79" y="141" on="1"/>
        <pt x="79" y="577" on="1"/>
        <pt x="113" y="577" on="1"/>
        <pt x="113" y="140" on="1"/>
        <pt x="113" y="67" on="0"/>
        <pt x="74" y="-65" on="0"/>
        <pt x="31" y="-138" on="1"/>
      </contour>
    </TTGlyph>
    <TTGlyph name="Jcircumflex" xMin="-26" yMin="-175" xMax="216" yMax="932">
      <contour>
        <pt x="-2" y="-159" on="1"/>
        <pt x="24" y="-104" on="0"/>
        <pt x="57" y="-21" on="0"/>
        <pt x="76" y="54" on="0"/>
        <pt x="83" y="131" on="0"/>
        <pt x="83" y="180" on="1"/>
        <pt x="83" y="740" on="1"/>
        <pt x="117" y="740" on="1"/>
        <pt x="117" y="180" on="1"/>
        <pt x="117" y="87" on="0"/>
        <pt x="71" y="-84" on="0"/>
        <pt x="22" y="-175" on="1"/>
      </contour>
      <contour>
        <pt x="-26" y="860" on="1"/>
        <pt x="95" y="932" on="1"/>
        <pt x="216" y="860" on="1"/>
        <pt x="216" y="819" on="1"/>
        <pt x="95" y="891" on="1"/>
        <pt x="-26" y="819" on="1"/>
      </contour>
    </TTGlyph>
    <TTGlyph name="Jcircumflex.sc" xMin="-13" yMin="-138" xMax="198" yMax="729">
      <contour>
        <pt x="8" y="-124" on="1"/>
        <pt x="29" y="-82" on="0"/>
        <pt x="57" y="-17" on="0"/>
        <pt x="73" y="42" on="0"/>
        <pt x="79" y="103" on="0"/>
        <pt x="79" y="141" on="1"/>
        <pt x="79" y="577" on="1"/>
        <pt x="113" y="577" on="1"/>
        <pt x="113" y="140" on="1"/>
        <pt x="113" y="67" on="0"/>
        <pt x="74" y="-65" on="0"/>
        <pt x="31" y="-138" on="1"/>
      </contour>
      <contour>
        <pt x="-13" y="673" on="1"/>
        <pt x="93" y="729" on="1"/>
        <pt x="198" y="673" on="1"/>
        <pt x="198" y="637" on="1"/>
        <pt x="93" y="693" on="1"/>
        <pt x="-13" y="637" on="1"/>
      </contour>
    </TTGlyph>
    <TTGlyph name="K" xMin="81" yMin="0" xMax="529" yMax="740">
      <contour>
        <pt x="81" y="740" on="1"/>
        <pt x="115" y="740" on="1"/>
        <pt x="115" y="393" on="1"/>
        <pt x="204" y="393" on="1"/>
        <pt x="466" y="740" on="1"/>
        <pt x="509" y="740" on="1"/>
        <pt x="256" y="405" on="1"/>
        <pt x="232" y="380" on="1"/>
        <pt x="232" y="376" on="1"/>
        <pt x="258" y="353" on="1"/>
        <pt x="529" y="0" on="1"/>
        <pt x="488" y="0" on="1"/>
        <pt x="212" y="359" on="1"/>
        <pt x="115" y="359" on="1"/>
        <pt x="115" y="0" on="1"/>
        <pt x="81" y="0" on="1"/>
      </contour>
    </TTGlyph>
    <TTGlyph name="K.sc" xMin="77" yMin="0" xMax="466" yMax="577">
      <contour>
        <pt x="77" y="577" on="1"/>
        <pt x="111" y="577" on="1"/>
        <pt x="111" y="310" on="1"/>
        <pt x="190" y="310" on="1"/>
        <pt x="407" y="577" on="1"/>
        <pt x="450" y="577" on="1"/>
        <pt x="239" y="316" on="1"/>
        <pt x="217" y="296" on="1"/>
        <pt x="217" y="293" on="1"/>
        <pt x="240" y="275" on="1"/>
        <pt x="466" y="0" on="1"/>
        <pt x="426" y="0" on="1"/>
        <pt x="196" y="277" on="1"/>
        <pt x="111" y="277" on="1"/>
        <pt x="111" y="0" on="1"/>
        <pt x="77" y="0" on="1"/>
      </contour>
    </TTGlyph>
    <TTGlyph name="Kcommaaccent" xMin="81" yMin="-220" xMax="529" yMax="740">
      <contour>
        <pt x="81" y="740" on="1"/>
        <pt x="115" y="740" on="1"/>
        <pt x="115" y="393" on="1"/>
        <pt x="204" y="393" on="1"/>
        <pt x="466" y="740" on="1"/>
        <pt x="509" y="740" on="1"/>
        <pt x="256" y="405" on="1"/>
        <pt x="232" y="380" on="1"/>
        <pt x="232" y="376" on="1"/>
        <pt x="258" y="353" on="1"/>
        <pt x="529" y="0" on="1"/>
        <pt x="488" y="0" on="1"/>
        <pt x="212" y="359" on="1"/>
        <pt x="115" y="359" on="1"/>
        <pt x="115" y="0" on="1"/>
        <pt x="81" y="0" on="1"/>
      </contour>
      <contour>
        <pt x="262" y="-66" on="1"/>
        <pt x="297" y="-66" on="1"/>
        <pt x="245" y="-220" on="1"/>
        <pt x="210" y="-220" on="1"/>
      </contour>
    </TTGlyph>
    <TTGlyph name="Kcommaaccent.sc" xMin="77" yMin="-172" xMax="466" yMax="577">
      <contour>
        <pt x="77" y="577" on="1"/>
        <pt x="111" y="577" on="1"/>
        <pt x="111" y="310" on="1"/>
        <pt x="190" y="310" on="1"/>
        <pt x="407" y="577" on="1"/>
        <pt x="450" y="577" on="1"/>
        <pt x="239" y="316" on="1"/>
        <pt x="217" y="296" on="1"/>
        <pt x="217" y="293" on="1"/>
        <pt x="240" y="275" on="1"/>
        <pt x="466" y="0" on="1"/>
        <pt x="426" y="0" on="1"/>
        <pt x="196" y="277" on="1"/>
        <pt x="111" y="277" on="1"/>
        <pt x="111" y="0" on="1"/>
        <pt x="77" y="0" on="1"/>
      </contour>
      <contour>
        <pt x="233" y="-52" on="1"/>
        <pt x="268" y="-52" on="1"/>
        <pt x="223" y="-172" on="1"/>
        <pt x="189" y="-172" on="1"/>
      </contour>
    </TTGlyph>
    <TTGlyph name="L" xMin="81" yMin="0" xMax="374" yMax="740">
      <contour>
        <pt x="81" y="740" on="1"/>
        <pt x="115" y="740" on="1"/>
        <pt x="115" y="34" on="1"/>
        <pt x="374" y="34" on="1"/>
        <pt x="374" y="0" on="1"/>
        <pt x="81" y="0" on="1"/>
      </contour>
    </TTGlyph>
    <TTGlyph name="L.sc" xMin="77" yMin="0" xMax="335" yMax="577">
      <contour>
        <pt x="77" y="577" on="1"/>
        <pt x="111" y="577" on="1"/>
        <pt x="111" y="33" on="1"/>
        <pt x="335" y="33" on="1"/>
        <pt x="335" y="0" on="1"/>
        <pt x="77" y="0" on="1"/>
      </contour>
    </TTGlyph>
    <TTGlyph name="Lacute" xMin="81" yMin="0" xMax="374" yMax="910">
      <contour>
        <pt x="81" y="740" on="1"/>
        <pt x="115" y="740" on="1"/>
        <pt x="115" y="34" on="1"/>
        <pt x="374" y="34" on="1"/>
        <pt x="374" y="0" on="1"/>
        <pt x="81" y="0" on="1"/>
      </contour>
      <contour>
        <pt x="95" y="787" on="1"/>
        <pt x="174" y="910" on="1"/>
        <pt x="212" y="910" on="1"/>
        <pt x="127" y="784" on="1"/>
      </contour>
    </TTGlyph>
    <TTGlyph name="Lacute.sc" xMin="77" yMin="0" xMax="335" yMax="714">
      <contour>
        <pt x="77" y="577" on="1"/>
        <pt x="111" y="577" on="1"/>
        <pt x="111" y="33" on="1"/>
        <pt x="335" y="33" on="1"/>
        <pt x="335" y="0" on="1"/>
        <pt x="77" y="0" on="1"/>
      </contour>
      <contour>
        <pt x="89" y="615" on="1"/>
        <pt x="155" y="714" on="1"/>
        <pt x="193" y="714" on="1"/>
        <pt x="119" y="613" on="1"/>
      </contour>
    </TTGlyph>
    <TTGlyph name="Lcaron" xMin="81" yMin="0" xMax="374" yMax="740">
      <contour>
        <pt x="81" y="740" on="1"/>
        <pt x="115" y="740" on="1"/>
        <pt x="115" y="34" on="1"/>
        <pt x="374" y="34" on="1"/>
        <pt x="374" y="0" on="1"/>
        <pt x="81" y="0" on="1"/>
      </contour>
      <contour>
        <pt x="298" y="740" on="1"/>
        <pt x="332" y="740" on="1"/>
        <pt x="312" y="512" on="1"/>
        <pt x="298" y="512" on="1"/>
      </contour>
    </TTGlyph>
    <TTGlyph name="Lcaron.sc" xMin="77" yMin="0" xMax="335" yMax="580">
      <contour>
        <pt x="77" y="577" on="1"/>
        <pt x="111" y="577" on="1"/>
        <pt x="111" y="33" on="1"/>
        <pt x="335" y="33" on="1"/>
        <pt x="335" y="0" on="1"/>
        <pt x="77" y="0" on="1"/>
      </contour>
      <contour>
        <pt x="269" y="580" on="1"/>
        <pt x="302" y="580" on="1"/>
        <pt x="284" y="403" on="1"/>
        <pt x="269" y="403" on="1"/>
      </contour>
    </TTGlyph>
    <TTGlyph name="Lcommaaccent" xMin="81" yMin="-220" xMax="374" yMax="740">
      <contour>
        <pt x="81" y="740" on="1"/>
        <pt x="115" y="740" on="1"/>
        <pt x="115" y="34" on="1"/>
        <pt x="374" y="34" on="1"/>
        <pt x="374" y="0" on="1"/>
        <pt x="81" y="0" on="1"/>
      </contour>
      <contour>
        <pt x="224" y="-66" on="1"/>
        <pt x="259" y="-66" on="1"/>
        <pt x="207" y="-220" on="1"/>
        <pt x="172" y="-220" on="1"/>
      </contour>
    </TTGlyph>
    <TTGlyph name="Lcommaaccent.sc" xMin="77" yMin="-172" xMax="335" yMax="577">
      <contour>
        <pt x="77" y="577" on="1"/>
        <pt x="111" y="577" on="1"/>
        <pt x="111" y="33" on="1"/>
        <pt x="335" y="33" on="1"/>
        <pt x="335" y="0" on="1"/>
        <pt x="77" y="0" on="1"/>
      </contour>
      <contour>
        <pt x="200" y="-52" on="1"/>
        <pt x="235" y="-52" on="1"/>
        <pt x="190" y="-172" on="1"/>
        <pt x="156" y="-172" on="1"/>
      </contour>
    </TTGlyph>
    <TTGlyph name="Ldot" xMin="81" yMin="0" xMax="374" yMax="740">
      <contour>
        <pt x="81" y="740" on="1"/>
        <pt x="115" y="740" on="1"/>
        <pt x="115" y="34" on="1"/>
        <pt x="374" y="34" on="1"/>
        <pt x="374" y="0" on="1"/>
        <pt x="81" y="0" on="1"/>
      </contour>
      <contour>
        <pt x="284" y="340" on="1"/>
        <pt x="272" y="340" on="0"/>
        <pt x="255" y="354" on="0"/>
        <pt x="255" y="370" on="1"/>
        <pt x="255" y="386" on="0"/>
        <pt x="272" y="400" on="0"/>
        <pt x="284" y="400" on="1"/>
        <pt x="296" y="400" on="0"/>
        <pt x="314" y="385" on="0"/>
        <pt x="314" y="370" on="1"/>
        <pt x="314" y="355" on="0"/>
        <pt x="296" y="340" on="0"/>
      </contour>
    </TTGlyph>
    <TTGlyph name="Ldot.sc" xMin="77" yMin="0" xMax="335" yMax="577">
      <contour>
        <pt x="77" y="577" on="1"/>
        <pt x="111" y="577" on="1"/>
        <pt x="111" y="33" on="1"/>
        <pt x="335" y="33" on="1"/>
        <pt x="335" y="0" on="1"/>
        <pt x="77" y="0" on="1"/>
      </contour>
      <contour>
        <pt x="260" y="262" on="1"/>
        <pt x="248" y="262" on="0"/>
        <pt x="233" y="275" on="0"/>
        <pt x="233" y="289" on="1"/>
        <pt x="233" y="303" on="0"/>
        <pt x="248" y="315" on="0"/>
        <pt x="260" y="315" on="1"/>
        <pt x="271" y="315" on="0"/>
        <pt x="288" y="303" on="0"/>
        <pt x="288" y="289" on="1"/>
        <pt x="288" y="275" on="0"/>
        <pt x="271" y="262" on="0"/>
      </contour>
    </TTGlyph>
    <TTGlyph name="Lslash" xMin="13" yMin="0" xMax="399" yMax="740">
      <contour>
        <pt x="13" y="267" on="1"/>
        <pt x="106" y="358" on="1"/>
        <pt x="106" y="740" on="1"/>
        <pt x="140" y="740" on="1"/>
        <pt x="140" y="392" on="1"/>
        <pt x="237" y="487" on="1"/>
        <pt x="237" y="440" on="1"/>
        <pt x="140" y="345" on="1"/>
        <pt x="140" y="34" on="1"/>
        <pt x="399" y="34" on="1"/>
        <pt x="399" y="0" on="1"/>
        <pt x="106" y="0" on="1"/>
        <pt x="106" y="311" on="1"/>
        <pt x="13" y="220" on="1"/>
      </contour>
    </TTGlyph>
    <TTGlyph name="Lslash.sc" xMin="20" yMin="0" xMax="357" yMax="577">
      <contour>
        <pt x="20" y="213" on="1"/>
        <pt x="99" y="280" on="1"/>
        <pt x="99" y="577" on="1"/>
        <pt x="133" y="577" on="1"/>
        <pt x="133" y="309" on="1"/>
        <pt x="219" y="383" on="1"/>
        <pt x="219" y="342" on="1"/>
        <pt x="133" y="268" on="1"/>
        <pt x="133" y="33" on="1"/>
        <pt x="357" y="33" on="1"/>
        <pt x="357" y="0" on="1"/>
        <pt x="99" y="0" on="1"/>
        <pt x="99" y="239" on="1"/>
        <pt x="20" y="172" on="1"/>
      </contour>
    </TTGlyph>
    <TTGlyph name="M" xMin="81" yMin="0" xMax="677" yMax="740">
      <contour>
        <pt x="81" y="740" on="1"/>
        <pt x="121" y="740" on="1"/>
        <pt x="345" y="158" on="1"/>
        <pt x="377" y="70" on="1"/>
        <pt x="381" y="70" on="1"/>
        <pt x="413" y="158" on="1"/>
        <pt x="637" y="740" on="1"/>
        <pt x="677" y="740" on="1"/>
        <pt x="677" y="0" on="1"/>
        <pt x="643" y="0" on="1"/>
        <pt x="643" y="656" on="1"/>
        <pt x="639" y="657" on="1"/>
        <pt x="604" y="560" on="1"/>
        <pt x="401" y="31" on="1"/>
        <pt x="357" y="31" on="1"/>
        <pt x="154" y="560" on="1"/>
        <pt x="119" y="657" on="1"/>
        <pt x="115" y="656" on="1"/>
        <pt x="115" y="0" on="1"/>
        <pt x="81" y="0" on="1"/>
      </contour>
    </TTGlyph>
    <TTGlyph name="M.sc" xMin="77" yMin="0" xMax="595" yMax="577">
      <contour>
        <pt x="77" y="577" on="1"/>
        <pt x="119" y="577" on="1"/>
        <pt x="305" y="139" on="1"/>
        <pt x="334" y="64" on="1"/>
        <pt x="338" y="64" on="1"/>
        <pt x="367" y="139" on="1"/>
        <pt x="553" y="577" on="1"/>
        <pt x="595" y="577" on="1"/>
        <pt x="595" y="0" on="1"/>
        <pt x="561" y="0" on="1"/>
        <pt x="561" y="506" on="1"/>
        <pt x="558" y="507" on="1"/>
        <pt x="525" y="423" on="1"/>
        <pt x="357" y="25" on="1"/>
        <pt x="315" y="25" on="1"/>
        <pt x="147" y="423" on="1"/>
        <pt x="114" y="507" on="1"/>
        <pt x="111" y="506" on="1"/>
        <pt x="111" y="0" on="1"/>
        <pt x="77" y="0" on="1"/>
      </contour>
    </TTGlyph>
    <TTGlyph name="N" xMin="81" yMin="0" xMax="559" yMax="740">
      <contour>
        <pt x="81" y="740" on="1"/>
        <pt x="121" y="740" on="1"/>
        <pt x="474" y="144" on="1"/>
        <pt x="521" y="59" on="1"/>
        <pt x="525" y="60" on="1"/>
        <pt x="525" y="740" on="1"/>
        <pt x="559" y="740" on="1"/>
        <pt x="559" y="0" on="1"/>
        <pt x="518" y="0" on="1"/>
        <pt x="169" y="590" on="1"/>
        <pt x="119" y="680" on="1"/>
        <pt x="115" y="679" on="1"/>
        <pt x="115" y="0" on="1"/>
        <pt x="81" y="0" on="1"/>
      </contour>
    </TTGlyph>
    <TTGlyph name="N.sc" xMin="77" yMin="0" xMax="491" yMax="577">
      <contour>
        <pt x="77" y="577" on="1"/>
        <pt x="115" y="577" on="1"/>
        <pt x="414" y="126" on="1"/>
        <pt x="454" y="59" on="1"/>
        <pt x="458" y="60" on="1"/>
        <pt x="458" y="577" on="1"/>
        <pt x="491" y="577" on="1"/>
        <pt x="491" y="0" on="1"/>
        <pt x="453" y="0" on="1"/>
        <pt x="156" y="448" on="1"/>
        <pt x="114" y="517" on="1"/>
        <pt x="110" y="517" on="1"/>
        <pt x="110" y="0" on="1"/>
        <pt x="77" y="0" on="1"/>
      </contour>
    </TTGlyph>
    <TTGlyph name="Nacute" xMin="81" yMin="0" xMax="559" yMax="910">
      <contour>
        <pt x="81" y="740" on="1"/>
        <pt x="121" y="740" on="1"/>
        <pt x="474" y="144" on="1"/>
        <pt x="521" y="59" on="1"/>
        <pt x="525" y="60" on="1"/>
        <pt x="525" y="740" on="1"/>
        <pt x="559" y="740" on="1"/>
        <pt x="559" y="0" on="1"/>
        <pt x="518" y="0" on="1"/>
        <pt x="169" y="590" on="1"/>
        <pt x="119" y="680" on="1"/>
        <pt x="115" y="679" on="1"/>
        <pt x="115" y="0" on="1"/>
        <pt x="81" y="0" on="1"/>
      </contour>
      <contour>
        <pt x="308" y="787" on="1"/>
        <pt x="387" y="910" on="1"/>
        <pt x="425" y="910" on="1"/>
        <pt x="340" y="784" on="1"/>
      </contour>
    </TTGlyph>
    <TTGlyph name="Nacute.sc" xMin="77" yMin="0" xMax="491" yMax="714">
      <contour>
        <pt x="77" y="577" on="1"/>
        <pt x="115" y="577" on="1"/>
        <pt x="414" y="126" on="1"/>
        <pt x="454" y="59" on="1"/>
        <pt x="458" y="60" on="1"/>
        <pt x="458" y="577" on="1"/>
        <pt x="491" y="577" on="1"/>
        <pt x="491" y="0" on="1"/>
        <pt x="453" y="0" on="1"/>
        <pt x="156" y="448" on="1"/>
        <pt x="114" y="517" on="1"/>
        <pt x="110" y="517" on="1"/>
        <pt x="110" y="0" on="1"/>
        <pt x="77" y="0" on="1"/>
      </contour>
      <contour>
        <pt x="271" y="615" on="1"/>
        <pt x="338" y="714" on="1"/>
        <pt x="375" y="714" on="1"/>
        <pt x="302" y="613" on="1"/>
      </contour>
    </TTGlyph>
    <TTGlyph name="Ncaron" xMin="81" yMin="0" xMax="559" yMax="912">
      <contour>
        <pt x="81" y="740" on="1"/>
        <pt x="121" y="740" on="1"/>
        <pt x="474" y="144" on="1"/>
        <pt x="521" y="59" on="1"/>
        <pt x="525" y="60" on="1"/>
        <pt x="525" y="740" on="1"/>
        <pt x="559" y="740" on="1"/>
        <pt x="559" y="0" on="1"/>
        <pt x="518" y="0" on="1"/>
        <pt x="169" y="590" on="1"/>
        <pt x="119" y="680" on="1"/>
        <pt x="115" y="679" on="1"/>
        <pt x="115" y="0" on="1"/>
        <pt x="81" y="0" on="1"/>
      </contour>
      <contour>
        <pt x="210" y="912" on="1"/>
        <pt x="331" y="840" on="1"/>
        <pt x="452" y="912" on="1"/>
        <pt x="452" y="871" on="1"/>
        <pt x="331" y="799" on="1"/>
        <pt x="210" y="871" on="1"/>
      </contour>
    </TTGlyph>
    <TTGlyph name="Ncaron.sc" xMin="77" yMin="0" xMax="491" yMax="715">
      <contour>
        <pt x="77" y="577" on="1"/>
        <pt x="115" y="577" on="1"/>
        <pt x="414" y="126" on="1"/>
        <pt x="454" y="59" on="1"/>
        <pt x="458" y="60" on="1"/>
        <pt x="458" y="577" on="1"/>
        <pt x="491" y="577" on="1"/>
        <pt x="491" y="0" on="1"/>
        <pt x="453" y="0" on="1"/>
        <pt x="156" y="448" on="1"/>
        <pt x="114" y="517" on="1"/>
        <pt x="110" y="517" on="1"/>
        <pt x="110" y="0" on="1"/>
        <pt x="77" y="0" on="1"/>
      </contour>
      <contour>
        <pt x="187" y="680" on="1"/>
        <pt x="187" y="715" on="1"/>
        <pt x="293" y="659" on="1"/>
        <pt x="398" y="715" on="1"/>
        <pt x="398" y="680" on="1"/>
        <pt x="293" y="623" on="1"/>
      </contour>
    </TTGlyph>
    <TTGlyph name="Ncommaaccent" xMin="81" yMin="-220" xMax="559" yMax="740">
      <contour>
        <pt x="81" y="740" on="1"/>
        <pt x="121" y="740" on="1"/>
        <pt x="474" y="144" on="1"/>
        <pt x="521" y="59" on="1"/>
        <pt x="525" y="60" on="1"/>
        <pt x="525" y="740" on="1"/>
        <pt x="559" y="740" on="1"/>
        <pt x="559" y="0" on="1"/>
        <pt x="518" y="0" on="1"/>
        <pt x="169" y="590" on="1"/>
        <pt x="119" y="680" on="1"/>
        <pt x="115" y="679" on="1"/>
        <pt x="115" y="0" on="1"/>
        <pt x="81" y="0" on="1"/>
      </contour>
      <contour>
        <pt x="338" y="-66" on="1"/>
        <pt x="373" y="-66" on="1"/>
        <pt x="321" y="-220" on="1"/>
        <pt x="286" y="-220" on="1"/>
      </contour>
    </TTGlyph>
    <TTGlyph name="Ncommaaccent.sc" xMin="77" yMin="-172" xMax="491" yMax="577">
      <contour>
        <pt x="77" y="577" on="1"/>
        <pt x="115" y="577" on="1"/>
        <pt x="414" y="126" on="1"/>
        <pt x="454" y="59" on="1"/>
        <pt x="458" y="60" on="1"/>
        <pt x="458" y="577" on="1"/>
        <pt x="491" y="577" on="1"/>
        <pt x="491" y="0" on="1"/>
        <pt x="453" y="0" on="1"/>
        <pt x="156" y="448" on="1"/>
        <pt x="114" y="517" on="1"/>
        <pt x="110" y="517" on="1"/>
        <pt x="110" y="0" on="1"/>
        <pt x="77" y="0" on="1"/>
      </contour>
      <contour>
        <pt x="295" y="-52" on="1"/>
        <pt x="330" y="-52" on="1"/>
        <pt x="285" y="-172" on="1"/>
        <pt x="251" y="-172" on="1"/>
      </contour>
    </TTGlyph>
    <TTGlyph name="Ndotaccent" xMin="81" yMin="0" xMax="559" yMax="858">
      <contour>
        <pt x="81" y="740" on="1"/>
        <pt x="121" y="740" on="1"/>
        <pt x="474" y="144" on="1"/>
        <pt x="521" y="59" on="1"/>
        <pt x="525" y="60" on="1"/>
        <pt x="525" y="740" on="1"/>
        <pt x="559" y="740" on="1"/>
        <pt x="559" y="0" on="1"/>
        <pt x="518" y="0" on="1"/>
        <pt x="169" y="590" on="1"/>
        <pt x="119" y="680" on="1"/>
        <pt x="115" y="679" on="1"/>
        <pt x="115" y="0" on="1"/>
        <pt x="81" y="0" on="1"/>
      </contour>
      <contour>
        <pt x="327" y="799" on="1"/>
        <pt x="315" y="799" on="0"/>
        <pt x="298" y="813" on="0"/>
        <pt x="298" y="828" on="1"/>
        <pt x="298" y="844" on="0"/>
        <pt x="315" y="858" on="0"/>
        <pt x="327" y="858" on="1"/>
        <pt x="339" y="858" on="0"/>
        <pt x="357" y="843" on="0"/>
        <pt x="357" y="828" on="1"/>
        <pt x="357" y="813" on="0"/>
        <pt x="339" y="799" on="0"/>
      </contour>
    </TTGlyph>
    <TTGlyph name="Ndotaccent.sc" xMin="77" yMin="0" xMax="491" yMax="677">
      <contour>
        <pt x="77" y="577" on="1"/>
        <pt x="115" y="577" on="1"/>
        <pt x="414" y="126" on="1"/>
        <pt x="454" y="59" on="1"/>
        <pt x="458" y="60" on="1"/>
        <pt x="458" y="577" on="1"/>
        <pt x="491" y="577" on="1"/>
        <pt x="491" y="0" on="1"/>
        <pt x="453" y="0" on="1"/>
        <pt x="156" y="448" on="1"/>
        <pt x="114" y="517" on="1"/>
        <pt x="110" y="517" on="1"/>
        <pt x="110" y="0" on="1"/>
        <pt x="77" y="0" on="1"/>
      </contour>
      <contour>
        <pt x="289" y="624" on="1"/>
        <pt x="278" y="624" on="0"/>
        <pt x="262" y="637" on="0"/>
        <pt x="262" y="651" on="1"/>
        <pt x="262" y="665" on="0"/>
        <pt x="278" y="677" on="0"/>
        <pt x="289" y="677" on="1"/>
        <pt x="301" y="677" on="0"/>
        <pt x="317" y="665" on="0"/>
        <pt x="317" y="651" on="1"/>
        <pt x="317" y="637" on="0"/>
        <pt x="301" y="624" on="0"/>
      </contour>
    </TTGlyph>
    <TTGlyph name="Ntilde" xMin="81" yMin="0" xMax="559" yMax="899">
      <contour>
        <pt x="81" y="740" on="1"/>
        <pt x="121" y="740" on="1"/>
        <pt x="474" y="144" on="1"/>
        <pt x="521" y="59" on="1"/>
        <pt x="525" y="60" on="1"/>
        <pt x="525" y="740" on="1"/>
        <pt x="559" y="740" on="1"/>
        <pt x="559" y="0" on="1"/>
        <pt x="518" y="0" on="1"/>
        <pt x="169" y="590" on="1"/>
        <pt x="119" y="680" on="1"/>
        <pt x="115" y="679" on="1"/>
        <pt x="115" y="0" on="1"/>
        <pt x="81" y="0" on="1"/>
      </contour>
      <contour>
        <pt x="186" y="850" on="1"/>
        <pt x="200" y="867" on="0"/>
        <pt x="247" y="899" on="0"/>
        <pt x="270" y="899" on="1"/>
        <pt x="289" y="899" on="0"/>
        <pt x="319" y="886" on="0"/>
        <pt x="346" y="869" on="0"/>
        <pt x="373" y="856" on="0"/>
        <pt x="389" y="856" on="1"/>
        <pt x="405" y="856" on="0"/>
        <pt x="432" y="878" on="0"/>
        <pt x="440" y="896" on="1"/>
        <pt x="468" y="876" on="1"/>
        <pt x="458" y="853" on="0"/>
        <pt x="412" y="822" on="0"/>
        <pt x="389" y="822" on="1"/>
        <pt x="370" y="822" on="0"/>
        <pt x="340" y="835" on="0"/>
        <pt x="313" y="852" on="0"/>
        <pt x="286" y="865" on="0"/>
        <pt x="270" y="865" on="1"/>
        <pt x="253" y="865" on="0"/>
        <pt x="221" y="841" on="0"/>
        <pt x="210" y="826" on="1"/>
      </contour>
    </TTGlyph>
    <TTGlyph name="Ntilde.sc" xMin="77" yMin="0" xMax="491" yMax="705">
      <contour>
        <pt x="166" y="663" on="1"/>
        <pt x="179" y="679" on="0"/>
        <pt x="220" y="705" on="0"/>
        <pt x="241" y="705" on="1"/>
        <pt x="257" y="705" on="0"/>
        <pt x="283" y="695" on="0"/>
        <pt x="307" y="682" on="0"/>
        <pt x="331" y="672" on="0"/>
        <pt x="345" y="672" on="1"/>
        <pt x="359" y="672" on="0"/>
        <pt x="383" y="689" on="0"/>
        <pt x="391" y="703" on="1"/>
        <pt x="414" y="687" on="1"/>
        <pt x="404" y="667" on="0"/>
        <pt x="364" y="641" on="0"/>
        <pt x="343" y="641" on="1"/>
        <pt x="327" y="641" on="0"/>
        <pt x="301" y="652" on="0"/>
        <pt x="277" y="664" on="0"/>
        <pt x="253" y="675" on="0"/>
        <pt x="239" y="675" on="1"/>
        <pt x="225" y="675" on="0"/>
        <pt x="196" y="657" on="0"/>
        <pt x="186" y="644" on="1"/>
      </contour>
      <contour>
        <pt x="77" y="577" on="1"/>
        <pt x="115" y="577" on="1"/>
        <pt x="414" y="126" on="1"/>
        <pt x="454" y="59" on="1"/>
        <pt x="458" y="60" on="1"/>
        <pt x="458" y="577" on="1"/>
        <pt x="491" y="577" on="1"/>
        <pt x="491" y="0" on="1"/>
        <pt x="453" y="0" on="1"/>
        <pt x="156" y="448" on="1"/>
        <pt x="114" y="517" on="1"/>
        <pt x="110" y="517" on="1"/>
        <pt x="110" y="0" on="1"/>
        <pt x="77" y="0" on="1"/>
      </contour>
    </TTGlyph>
    <TTGlyph name="O" xMin="49" yMin="-10" xMax="537" yMax="750">
      <contour>
        <pt x="293" y="-10" on="1"/>
        <pt x="49" y="-10" on="0"/>
        <pt x="49" y="369" on="1"/>
        <pt x="49" y="562" on="0"/>
        <pt x="169" y="750" on="0"/>
        <pt x="293" y="750" on="1"/>
        <pt x="537" y="750" on="0"/>
        <pt x="537" y="369" on="1"/>
        <pt x="537" y="-10" on="0"/>
      </contour>
      <contour>
        <pt x="293" y="24" on="1"/>
        <pt x="402" y="24" on="0"/>
        <pt x="503" y="190" on="0"/>
        <pt x="503" y="369" on="1"/>
        <pt x="503" y="546" on="0"/>
        <pt x="400" y="716" on="0"/>
        <pt x="293" y="716" on="1"/>
        <pt x="184" y="716" on="0"/>
        <pt x="83" y="549" on="0"/>
        <pt x="83" y="369" on="1"/>
        <pt x="83" y="189" on="0"/>
        <pt x="183" y="24" on="0"/>
      </contour>
    </TTGlyph>
    <TTGlyph name="O.sc" xMin="48" yMin="-8" xMax="473" yMax="585">
      <contour>
        <pt x="261" y="-8" on="1"/>
        <pt x="48" y="-8" on="0"/>
        <pt x="48" y="288" on="1"/>
        <pt x="48" y="585" on="0"/>
        <pt x="261" y="585" on="1"/>
        <pt x="473" y="585" on="0"/>
        <pt x="473" y="288" on="1"/>
        <pt x="473" y="-8" on="0"/>
      </contour>
      <contour>
        <pt x="261" y="25" on="1"/>
        <pt x="352" y="25" on="0"/>
        <pt x="439" y="152" on="0"/>
        <pt x="439" y="288" on="1"/>
        <pt x="439" y="423" on="0"/>
        <pt x="352" y="552" on="0"/>
        <pt x="261" y="552" on="1"/>
        <pt x="168" y="552" on="0"/>
        <pt x="82" y="426" on="0"/>
        <pt x="82" y="288" on="1"/>
        <pt x="82" y="150" on="0"/>
        <pt x="167" y="25" on="0"/>
      </contour>
    </TTGlyph>
</ttFont>
